{
.appVersion = "3151";
.formatVersion = 3;
axes = (
{
name = Weight;
tag = wght;
},
{
name = Width;
tag = wdth;
},
{
name = Slant;
tag = slnt;
}
);
classes = (
{
code = "zero one two three four five six seven eight nine ";
name = Num;
},
{
code = "zero.canadian one.canadian two.canadian three.canadian four.canadian five.canadian six.canadian seven.canadian eight.canadian nine.canadian 
";
name = Num_can;
},
{

glyphs = (
{
glyphname = idotless;
lastChange = "2023-01-13 15:28:19 +0000";
layers = (
{
layerId = "ABE41ABD-D787-4F86-A3B4-502CADE9F2A5";
shapes = (
{
closed = 1;
nodes = (
(144,0,l),
(260,547,l),
(114,547,l),
(-2,0,l)
);
}
);
width = 249;
}
);
note = dotlessi;
unicode = 305;
},
{
glyphname = "acuteFinal-canadian";
lastChange = "2023-01-13 15:31:51 +0000";
layers = (
{
layerId = "ABE41ABD-D787-4F86-A3B4-502CADE9F2A5";
shapes = (
{
closed = 1;
nodes = (
(159,357,l),
(374,714,l),
(254,714,l),
(39,357,l)
);
}
);
width = 293;
}
);
metricRight = "=|";
note = uni141F;
unicode = 5151;
},
{
glyphname = "graveFinal-canadian";
kernLeft = mwestleft;
kernRight = mwestright;
lastChange = "2023-01-13 15:31:51 +0000";
layers = (
{
layerId = "ABE41ABD-D787-4F86-A3B4-502CADE9F2A5";
shapes = (
{
closed = 1;
nodes = (
(298,357,l),
(223,714,l),
(115,714,l),
(190,357,l)
);
}
);
width = 293;
}
);
metricLeft = "=|acuteFinal-canadian";
metricRight = "=|acuteFinal-canadian";
note = uni1420;
unicode = 5152;
},
{
glyphname = "ringBottomhalfFinal-canadian";
kernLeft = mwestleft;
kernRight = mwestright;
lastChange = "2023-01-13 15:31:51 +0000";
layers = (
{
layerId = "ABE41ABD-D787-4F86-A3B4-502CADE9F2A5";
shapes = (
{
closed = 1;
nodes = (
(312,351,o),
(361,400,o),
(379,486,cs),
(427,714,l),
(330,714,l),
(282,489,ls),
(275,454,o),
(259,438,o),
(230,438,cs),
(198,438,o),
(186,457,o),
(194,491,cs),
(241,714,l),
(143,714,l),
(98,504,ls),
(79,411,o),
(126,351,o),
(221,351,cs)
);
}
);
width = 374;
}
);
metricLeft = "ai-canadian";
metricRight = "==|ai-canadian";
note = uni1421;
unicode = 5153;
},
{
glyphname = "ringTophalfFinal-canadian";
lastChange = "2023-01-13 15:31:51 +0000";
layers = (
{
layerId = "ABE41ABD-D787-4F86-A3B4-502CADE9F2A5";
shapes = (
{
closed = 1;
nodes = (
(166,357,l),
(213,582,ls),
(221,617,o),
(236,633,o),
(266,633,cs),
(297,633,o),
(309,614,o),
(302,580,cs),
(255,357,l),
(352,357,l),
(397,567,ls),
(417,660,o),
(370,720,o),
(274,720,cs),
(183,720,o),
(135,671,o),
(116,585,cs),
(68,357,l)
);
}
);
width = 375;
}
);
metricLeft = "ai-canadian";
metricRight = "==|ai-canadian";
note = uni1422;
unicode = 5154;
},
{
glyphname = "ringRighthalfFinal-canadian";
kernLeft = mwestleft;
kernRight = mwestright;
lastChange = "2023-01-13 15:28:19 +0000";
layers = (
{
layerId = "ABE41ABD-D787-4F86-A3B4-502CADE9F2A5";
shapes = (
{
closed = 1;
nodes = (
(122,357,ls),
(271,357,o),
(336,460,o),
(336,573,cs),
(336,663,o),
(278,714,o),
(186,714,cs),
(142,714,l),
(122,622,l),
(171,622,ls),
(213,622,o),
(238,600,o),
(238,559,cs),
(238,505,o),
(211,449,o),
(136,449,cs),
(86,449,l),
(66,357,l)
);
}
);
width = 315;
}
);
metricLeft = "=|t-canadian";
metricWidth = "t-canadian";
note = uni1423;
unicode = 5155;
},
{
glyphname = "ringFinal-canadian";
kernLeft = mwestleft;
kernRight = mwestright;
lastChange = "2023-01-13 15:28:19 +0000";
layers = (
{
layerId = "ABE41ABD-D787-4F86-A3B4-502CADE9F2A5";
shapes = (
{
closed = 1;
nodes = (
(368,396,o),
(436,466,o),
(436,559,cs),
(436,651,o),
(367,720,o),
(272,720,cs),
(175,720,o),
(106,651,o),
(106,559,cs),
(106,466,o),
(174,396,o),
(272,396,cs)
);
},
{
closed = 1;
nodes = (
(224,479,o),
(196,513,o),
(196,559,cs),
(196,604,o),
(224,637,o),
(272,637,cs),
(317,637,o),
(346,602,o),
(346,559,cs),
(346,513,o),
(317,479,o),
(272,479,cs)
);
}
);
width = 412;
}
);
note = uni1424;
unicode = 5156;
},
{
glyphname = "doubleacuteFinal-canadian";
lastChange = "2023-01-13 15:31:51 +0000";
layers = (
{
layerId = "ABE41ABD-D787-4F86-A3B4-502CADE9F2A5";
shapes = (
{
closed = 1;
nodes = (
(155,357,l),
(374,714,l),
(258,714,l),
(39,357,l)
);
},
{
closed = 1;
nodes = (
(315,357,l),
(534,714,l),
(419,714,l),
(200,357,l)
);
}
);
width = 453;
}
);
metricLeft = "acuteFinal-canadian";
metricRight = "=|";
note = uni1425;
unicode = 5157;
},
{
glyphname = "doubleshortverticalstrokesFinal-canadian";
kernLeft = mwestleft;
kernRight = mwestright;
lastChange = "2023-01-13 15:28:19 +0000";
layers = (
{
layerId = "ABE41ABD-D787-4F86-A3B4-502CADE9F2A5";
shapes = (
{
closed = 1;
nodes = (
(165,357,l),
(241,714,l),
(143,714,l),
(67,357,l)
);
},
{
closed = 1;
nodes = (
(305,357,l),
(381,714,l),
(283,714,l),
(207,357,l)
);
}
);
width = 328;
}
);
metricLeft = "pWestCree-canadian";
metricRight = "pWestCree-canadian";
note = uni1426;
unicode = 5158;
},
{
glyphname = "middledotFinal-canadian";
lastChange = "2023-01-13 15:28:19 +0000";
layers = (
{
layerId = "ABE41ABD-D787-4F86-A3B4-502CADE9F2A5";
shapes = (
{
closed = 1;
nodes = (
(169,297,o),
(200,328,o),
(200,367,cs),
(200,406,o),
(169,437,o),
(130,437,cs),
(91,437,o),
(60,406,o),
(60,367,cs),
(60,328,o),
(91,297,o),
(130,297,cs)
);
}
);
width = 211;
}
);
note = uni1427;
unicode = 5159;
},
{
glyphname = "shorthorizontalstrokeFinal-canadian";
kernLeft = mwestleft;
kernRight = mwestright;
lastChange = "2023-01-13 15:28:19 +0000";
layers = (
{
layerId = "ABE41ABD-D787-4F86-A3B4-502CADE9F2A5";
shapes = (
{
closed = 1;
nodes = (
(387,507,l),
(408,606,l),
(120,606,l),
(99,507,l)
);
}
);
width = 378;
}
);
metricRight = "=|";
note = uni1428;
unicode = 5160;
},
{
glyphname = "plusFinal-canadian";
kernLeft = mwestleft;
kernRight = mwestright;
lastChange = "2023-01-13 15:31:51 +0000";
layers = (
{
layerId = "ABE41ABD-D787-4F86-A3B4-502CADE9F2A5";
shapes = (
{
closed = 1;
nodes = (
(269,407,l),
(292,516,l),
(389,516,l),
(409,608,l),
(311,608,l),
(334,714,l),
(241,714,l),
(219,608,l),
(121,608,l),
(101,516,l),
(199,516,l),
(176,407,l)
);
}
);
width = 379;
}
);
metricLeft = "shorthorizontalstrokeFinal-canadian";
metricRight = "shorthorizontalstrokeFinal-canadian";
note = uni1429;
unicode = 5161;
},
{
glyphname = "downtackFinal-canadian";
kernLeft = mwestleft;
kernRight = mwestright;
lastChange = "2023-01-13 15:28:19 +0000";
layers = (
{
layerId = "ABE41ABD-D787-4F86-A3B4-502CADE9F2A5";
shapes = (
{
closed = 1;
nodes = (
(260,357,l),
(316,621,l),
(411,621,l),
(431,714,l),
(143,714,l),
(123,621,l),
(218,621,l),
(162,357,l)
);
}
);
width = 378;
}
);
metricLeft = "shorthorizontalstrokeFinal-canadian";
metricRight = "shorthorizontalstrokeFinal-canadian";
note = uni142A;
unicode = 5162;
},
{
glyphname = "thFinalWoodScree-canadian";
lastChange = "2023-01-13 15:31:52 +0000";
layers = (
{
layerId = "ABE41ABD-D787-4F86-A3B4-502CADE9F2A5";
shapes = (
{
closed = 1;
nodes = (
(260,357,l),
(273,419,l),
(367,419,l),
(385,501,l),
(291,501,l),
(305,570,l),
(399,570,l),
(417,652,l),
(323,652,l),
(336,714,l),
(238,714,l),
(225,652,l),
(129,652,l),
(112,570,l),
(208,570,l),
(193,501,l),
(97,501,l),
(80,419,l),
(176,419,l),
(162,357,l)
);
}
);
width = 376;
}
);
metricLeft = "hyphen-canadian";
metricRight = "hyphen-canadian";
note = uni167E;
unicode = 5758;
},
{
glyphname = "ringSmallFinal-canadian";
kernLeft = mwestleft;
kernRight = mwestright;
lastChange = "2023-01-13 15:28:19 +0000";
layers = (
{
layerId = "ABE41ABD-D787-4F86-A3B4-502CADE9F2A5";
shapes = (
{
closed = 1;
nodes = (
(289,517,o),
(339,562,o),
(339,623,cs),
(339,684,o),
(289,728,o),
(231,728,cs),
(173,728,o),
(124,685,o),
(124,623,cs),
(124,562,o),
(173,517,o),
(231,517,cs)
);
},
{
closed = 1;
nodes = (
(204,577,o),
(187,598,o),
(187,623,cs),
(187,648,o),
(205,669,o),
(231,669,cs),
(258,669,o),
(276,648,o),
(276,623,cs),
(276,598,o),
(258,577,o),
(231,577,cs)
);
}
);
width = 305;
}
);
note = g725;
unicode = 6366;
},
{
glyphname = "raiseddotFinal-canadian";
kernLeft = mwestleft;
kernRight = mwestright;
lastChange = "2023-01-13 15:28:19 +0000";
layers = (
{
layerId = "ABE41ABD-D787-4F86-A3B4-502CADE9F2A5";
shapes = (
{
closed = 1;
nodes = (
(232,589,o),
(263,620,o),
(263,659,cs),
(263,697,o),
(232,728,o),
(193,728,cs),
(154,728,o),
(123,697,o),
(123,659,cs),
(123,620,o),
(154,589,o),
(193,589,cs)
);
}
);
width = 213;
}
);
note = g725;
unicode = 6367;
},
{
glyphname = "plusFinal-canadian.base";
lastChange = "2023-01-13 15:28:19 +0000";
layers = (
{
layerId = "ABE41ABD-D787-4F86-A3B4-502CADE9F2A5";
shapes = (
{
closed = 1;
nodes = (
(182,0,l),
(205,109,l),
(302,109,l),
(322,201,l),
(225,201,l),
(248,307,l),
(155,307,l),
(133,201,l),
(34,201,l),
(14,109,l),
(113,109,l),
(90,0,l)
);
}
);
width = 378;
}
);
metricLeft = "shorthorizontalstrokeFinal-canadian";
metricRight = "shorthorizontalstrokeFinal-canadian";
note = uni1429;
},
{
glyphname = "e-canadian";
kernLeft = ecanleft;
kernRight = ecanright;
lastChange = "2023-01-13 15:31:51 +0000";
layers = (
{
anchors = (
{
name = middle_center_can;
pos = (359,470);
},
{
name = top_center_can;
pos = (417,714);
},
{
name = top_left_can;
pos = (221,714);
},
{
name = top_right_can;
pos = (613,714);
}
);
layerId = "ABE41ABD-D787-4F86-A3B4-502CADE9F2A5";
shapes = (
{
closed = 1;
nodes = (
(285,0,l),
(708,678,l),
(715,714,l),
(117,714,l),
(110,678,l),
(243,0,l)
);
},
{
closed = 1;
nodes = (
(331,163,l),
(252,626,l),
(222,597,l),
(556,597,l),
(530,626,l),
(258,163,l)
);
}
);
width = 637;
}
);
metricRight = "=|";
note = uni1401;
unicode = 5121;
},
{
glyphname = "i-canadian";
kernLeft = icanleft;
kernRight = icanright;
lastChange = "2023-01-13 15:31:51 +0000";
layers = (
{
anchors = (
{
name = middle_center_can;
pos = (335,301);
},
{
name = top_center_can;
pos = (417,714);
},
{
name = top_left_can;
pos = (221,714);
},
{
name = top_right_can;
pos = (614,714);
}
);
layerId = "ABE41ABD-D787-4F86-A3B4-502CADE9F2A5";
shapes = (
{
closed = 1;
nodes = (
(396,714,l),
(-27,36,l),
(-34,0,l),
(564,0,l),
(571,36,l),
(438,714,l)
);
},
{
closed = 1;
nodes = (
(350,551,l),
(429,88,l),
(459,117,l),
(125,117,l),
(150,88,l),
(423,551,l)
);
}
);
width = 637;
}
);
metricLeft = "e-canadian";
metricWidth = "e-canadian";
note = uni1403;
unicode = 5123;
},
{
glyphname = "o-canadian";
kernLeft = ocanleft;
kernRight = ocanright;
lastChange = "2023-01-13 15:28:19 +0000";
layers = (
{
anchors = (
{
name = middle_center_can;
pos = (273,372);
},
{
name = top_center_can;
pos = (401,714);
},
{
name = top_double;
pos = (502,714);
},
{
name = top_left_can;
pos = (209,714);
},
{
name = top_right_can;
pos = (604,714);
}
);
layerId = "ABE41ABD-D787-4F86-A3B4-502CADE9F2A5";
shapes = (
{
closed = 1;
nodes = (
(33,0,l),
(582,334,l),
(592,380,l),
(185,714,l),
(151,714,l),
(-1,0,l)
);
},
{
closed = 1;
nodes = (
(237,551,l),
(184,570,l),
(447,352,l),
(442,381,l),
(107,173,l),
(154,164,l)
);
}
);
width = 592;
}
);
metricLeft = "nunavuth-canadian";
note = uni1405;
unicode = 5125;
},
{
glyphname = "eeCarrier-canadian";
lastChange = "2023-01-13 15:28:19 +0000";
layers = (
{
layerId = "ABE41ABD-D787-4F86-A3B4-502CADE9F2A5";
shapes = (
{
closed = 1;
nodes = (
(33,0,l),
(582,334,l),
(592,380,l),
(185,714,l),
(151,714,l),
(-1,0,l)
);
},
{
closed = 1;
nodes = (
(227,551,l),
(207,556,l),
(453,351,l),
(461,388,l),
(127,182,l),
(144,164,l)
);
},
{
closed = 1;
nodes = (
(272,301,l),
(301,436,l),
(254,436,l),
(226,301,l)
);
}
);
width = 592;
}
);
metricLeft = "nunavuth-canadian";
metricRight = "o-canadian";
note = uni1408;
unicode = 5128;
},
{
glyphname = "a-canadian";
kernLeft = acanleft;
kernRight = acanright;
lastChange = "2023-01-13 15:28:19 +0000";
layers = (
{
anchors = (
{
name = middle_center_can;
pos = (364,355);
},
{
name = top_center_can;
pos = (356,714);
},
{
name = top_left_can;
pos = (194,714);
},
{
name = top_right_can;
pos = (574,714);
}
);
layerId = "ABE41ABD-D787-4F86-A3B4-502CADE9F2A5";
shapes = (
{
closed = 1;
nodes = (
(603,714,l),
(54,380,l),
(44,334,l),
(451,0,l),
(485,0,l),
(637,714,l)
);
},
{
closed = 1;
nodes = (
(399,163,l),
(452,144,l),
(189,362,l),
(194,333,l),
(529,541,l),
(482,550,l)
);
}
);
width = 592;
}
);
metricRight = "nunavuth-canadian";
note = uni140A;
unicode = 5130;
},
{
glyphname = "ai-canadian";
lastChange = "2023-01-13 15:28:19 +0000";
layers = (
{
layerId = "ABE41ABD-D787-4F86-A3B4-502CADE9F2A5";
shapes = (
{
closed = 1;
nodes = (
(254,351,o),
(292,376,o),
(319,424,c),
(292,424,l),
(302,376,o),
(337,351,o),
(392,351,cs),
(473,351,o),
(518,395,o),
(537,487,cs),
(585,714,l),
(494,714,l),
(446,488,ls),
(438,453,o),
(422,437,o),
(395,437,cs),
(366,437,o),
(354,454,o),
(362,489,cs),
(409,714,l),
(319,714,l),
(271,489,ls),
(264,453,o),
(247,437,o),
(221,437,cs),
(193,437,o),
(179,455,o),
(186,488,cs),
(234,714,l),
(143,714,l),
(94,484,ls),
(78,408,o),
(121,351,o),
(201,351,cs)
);
}
);
width = 532;
}
);
metricRight = "=|";
note = uni141C;
unicode = 5148;
},
{
glyphname = "ycreew-canadian";
lastChange = "2023-01-13 15:31:51 +0000";
layers = (
{
layerId = "ABE41ABD-D787-4F86-A3B4-502CADE9F2A5";
shapes = (
{
closed = 1;
nodes = (
(375,528,o),
(406,565,o),
(406,625,cs),
(406,685,o),
(374,720,o),
(330,720,cs),
(286,720,o),
(255,685,o),
(255,625,cs),
(255,565,o),
(285,528,o),
(330,528,cs)
);
},
{
closed = 1;
nodes = (
(209,351,o),
(240,388,o),
(240,448,cs),
(240,508,o),
(208,543,o),
(164,543,cs),
(120,543,o),
(88,508,o),
(88,448,cs),
(88,388,o),
(119,351,o),
(164,351,cs)
);
},
{
closed = 1;
nodes = (
(147,398,o),
(137,413,o),
(137,448,cs),
(137,482,o),
(147,496,o),
(164,496,cs),
(181,496,o),
(191,482,o),
(191,448,cs),
(191,413,o),
(181,398,o),
(164,398,cs)
);
},
{
closed = 1;
nodes = (
(314,575,o),
(303,590,o),
(303,625,cs),
(303,659,o),
(314,673,o),
(330,673,cs),
(347,673,o),
(358,659,o),
(358,625,cs),
(358,590,o),
(347,575,o),
(330,575,cs)
);
}
);
width = 373;
}
);
metricRight = "=|";
note = uni141D;
unicode = 5149;
},
{
glyphname = "glottalstop-canadian";
lastChange = "2023-01-13 15:31:51 +0000";
layers = (
{
layerId = "ABE41ABD-D787-4F86-A3B4-502CADE9F2A5";
shapes = (
{
closed = 1;
nodes = (
(358,357,l),
(363,376,l),
(295,714,l),
(274,714,l),
(63,376,l),
(59,357,l)
);
},
{
closed = 1;
nodes = (
(289,616,l),
(246,617,l),
(283,401,l),
(301,428,l),
(152,428,l),
(161,401,l)
);
}
);
width = 374;
}
);
metricRight = "=|";
note = uni141E;
unicode = 5150;
},
{
glyphname = "pe-canadian";
kernLeft = ecanleft;
kernRight = ecanright;
lastChange = "2023-01-13 15:31:51 +0000";
layers = (
{
anchors = (
{
name = middle_center_can;
pos = (357,470);
},
{
name = top_center_can;
pos = (416,714);
},
{
name = top_left_can;
pos = (221,714);
},
{
name = top_right_can;
pos = (613,714);
}
);
layerId = "ABE41ABD-D787-4F86-A3B4-502CADE9F2A5";
shapes = (
{
closed = 1;
nodes = (
(285,0,l),
(708,678,l),
(715,714,l),
(572,714,l),
(243,173,l),
(343,173,l),
(244,714,l),
(117,714,l),
(110,678,l),
(243,0,l)
);
}
);
width = 637;
}
);
metricLeft = "e-canadian";
metricRight = "e-canadian";
note = uni142F;
unicode = 5167;
},
{
glyphname = "pi-canadian";
kernLeft = icanleft;
kernRight = icanright;
lastChange = "2023-01-13 15:28:19 +0000";
layers = (
{
anchors = (
{
name = middle_center_can;
pos = (337,301);
},
{
name = top_center_can;
pos = (417,714);
},
{
name = top_left_can;
pos = (221,714);
},
{
name = top_right_can;
pos = (613,714);
}
);
layerId = "ABE41ABD-D787-4F86-A3B4-502CADE9F2A5";
shapes = (
{
closed = 1;
nodes = (
(396,714,l),
(-27,36,l),
(-34,0,l),
(109,0,l),
(438,541,l),
(338,541,l),
(436,0,l),
(563,0,l),
(571,36,l),
(438,714,l)
);
}
);
width = 636;
}
);
metricLeft = "e-canadian";
metricRight = "e-canadian";
note = uni1431;
unicode = 5169;
},
{
glyphname = "po-canadian";
kernLeft = ocanleft;
kernRight = ocanright;
lastChange = "2023-01-13 15:28:19 +0000";
layers = (
{
anchors = (
{
name = middle_center_can;
pos = (176,373);
},
{
name = top_center_can;
pos = (384,714);
},
{
name = top_double;
pos = (497,714);
},
{
name = top_left_can;
pos = (197,714);
},
{
name = top_right_can;
pos = (586,714);
}
);
layerId = "ABE41ABD-D787-4F86-A3B4-502CADE9F2A5";
name = "Thin Slanted";
shapes = (
{
closed = 1;
nodes = (
(17,0,l),
(563,334,l),
(573,380,l),
(169,714,l),
(134,714,l),
(107,588,l),
(410,338,l),
(423,403,l),
(15,154,l),
(-18,0,l)
);
}
);
width = 573;
}
);
metricRight = "o-canadian";
note = uni1433;
unicode = 5171;
},
{
glyphname = "pa-canadian";
kernLeft = acanleft;
kernRight = acanright;
lastChange = "2023-01-13 15:28:19 +0000";
layers = (
{
anchors = (
{
name = middle_center_can;
pos = (391,357);
},
{
name = top_center_can;
pos = (389,714);
},
{
name = top_left_can;
pos = (196,714);
},
{
name = top_right_can;
pos = (573,714);
}
);
layerId = "ABE41ABD-D787-4F86-A3B4-502CADE9F2A5";
shapes = (
{
closed = 1;
nodes = (
(600,714,l),
(54,380,l),
(44,334,l),
(448,0,l),
(483,0,l),
(510,126,l),
(207,376,l),
(195,311,l),
(602,560,l),
(634,714,l)
);
}
);
width = 573;
}
);
metricRight = "=|po-canadian";
note = uni1438;
unicode = 5176;
},
{
glyphname = "p-canadian";
kernLeft = mwestleft;
kernRight = mwestright;
lastChange = "2023-01-13 15:28:19 +0000";
layers = (
{
layerId = "ABE41ABD-D787-4F86-A3B4-502CADE9F2A5";
shapes = (
{
closed = 1;
nodes = (
(317,357,l),
(335,441,l),
(188,564,l),
(172,491,l),
(371,613,l),
(393,714,l),
(376,714,l),
(107,548,l),
(102,524,l),
(300,357,l)
);
}
);
width = 340;
}
);
note = uni1449;
unicode = 5193;
},
{
glyphname = "pWestCree-canadian";
kernLeft = mwestleft;
kernRight = mwestright;
lastChange = "2023-01-13 15:28:19 +0000";
layers = (
{
layerId = "ABE41ABD-D787-4F86-A3B4-502CADE9F2A5";
shapes = (
{
closed = 1;
nodes = (
(165,357,l),
(241,714,l),
(143,714,l),
(67,357,l)
);
}
);
width = 188;
}
);
metricRight = "=|";
note = uni144A;
unicode = 5194;
},
{
color = 6;
glyphname = "hCarrier-canadian";
lastChange = "2023-01-13 15:31:51 +0000";
layers = (
{
layerId = "ABE41ABD-D787-4F86-A3B4-502CADE9F2A5";
shapes = (
{
closed = 1;
nodes = (
(128,189,l),
(155,317,ls),
(162,350,o),
(177,365,o),
(198,365,cs),
(224,365,o),
(234,347,o),
(227,317,cs),
(200,189,l),
(297,189,l),
(328,333,ls),
(342,401,o),
(306,452,o),
(238,452,cs),
(198,452,o),
(162,429,o),
(151,395,c),
(169,379,l),
(204,546,l),
(107,546,l),
(31,189,l)
);
}
);
width = 341;
}
);
metricLeft = "pWestCree-canadian";
note = uni144B;
unicode = 5195;
},
{
glyphname = "te-canadian";
lastChange = "2023-01-13 15:28:19 +0000";
layers = (
{
anchors = (
{
name = middle_center_can;
pos = (342,357);
},
{
name = top_center_can;
pos = (418,714);
},
{
name = top_left_can;
pos = (222,714);
},
{
name = top_right_can;
pos = (615,714);
}
);
layerId = "ABE41ABD-D787-4F86-A3B4-502CADE9F2A5";
shapes = (
{
closed = 1;
nodes = (
(458,-14,o),
(552,73,o),
(590,250,cs),
(688,714,l),
(540.994,714,l),
(445,262,ls),
(424,163,o),
(380,121,o),
(306,121,cs),
(216,121,o),
(181,175,o),
(203,278,cs),
(296,714,l),
(148,714,l),
(59,292,ls),
(18,101,o),
(111,-14,o),
(295,-14,cs)
);
}
);
width = 641;
}
);
metricRight = "=|";
note = uni144C;
unicode = 5196;
},
{
glyphname = "ti-canadian";
lastChange = "2023-01-13 15:31:51 +0000";
layers = (
{
anchors = (
{
name = middle_center_can;
pos = (342,357);
},
{
name = middle_right_can;
pos = (738,357);
},
{
name = top_center_can;
pos = (418,714);
},
{
name = top_left_can;
pos = (222,714);
},
{
name = top_right_can;
pos = (615,714);
}
);
layerId = "ABE41ABD-D787-4F86-A3B4-502CADE9F2A5";
shapes = (
{
closed = 1;
nodes = (
(144,0,l),
(240,452,ls),
(261,551,o),
(305,593,o),
(379,593,cs),
(469,593,o),
(503,539,o),
(481,436,cs),
(388.994,0,l),
(536,0,l),
(626,422,ls),
(667,613,o),
(573,728,o),
(390,728,cs),
(227,728,o),
(133,641,o),
(95,464,cs),
(-4,0,l)
);
}
);
width = 640;
}
);
metricLeft = "te-canadian";
metricRight = "te-canadian";
note = uni144E;
unicode = 5198;
},
{
glyphname = "to-canadian";
kernLeft = toleft;
lastChange = "2023-01-13 15:28:19 +0000";
layers = (
{
anchors = (
{
name = middle_center_can;
pos = (217,357);
},
{
name = middle_right_can;
pos = (643,357);
},
{
name = top_center_can;
pos = (343,714);
},
{
name = top_double;
pos = (418,714);
},
{
name = top_left_can;
pos = (200,714);
},
{
name = top_right_can;
pos = (531,714);
}
);
layerId = "ABE41ABD-D787-4F86-A3B4-502CADE9F2A5";
shapes = (
{
closed = 1;
nodes = (
(121,0,ls),
(451,0,o),
(523,274,o),
(523,435,cs),
(523,609,o),
(418,714,o),
(231,714,cs),
(136,714,l),
(108,580,l),
(206,580,ls),
(318,580,o),
(375,526,o),
(375,423,cs),
(375,320,o),
(332,134,o),
(129,134,cs),
(13,134,l),
(-15,0,l)
);
}
);
width = 540;
}
);
note = uni1450;
unicode = 5200;
},
{
glyphname = "ta-canadian";
kernRight = taright;
lastChange = "2023-01-13 15:31:51 +0000";
layers = (
{
anchors = (
{
name = middle_center_can;
pos = (367,357);
},
{
name = top_center_can;
pos = (394,714);
},
{
name = top_left_can;
pos = (205,714);
},
{
name = top_right_can;
pos = (536,714);
}
);
layerId = "ABE41ABD-D787-4F86-A3B4-502CADE9F2A5";
shapes = (
{
closed = 1;
nodes = (
(447,0,l),
(475,134,l),
(377,134,ls),
(265,134,o),
(209,188,o),
(209,291,cs),
(209,407,o),
(264,580,o),
(454,580,cs),
(571,580,l),
(599,714,l),
(461,714,ls),
(143,714,o),
(61,451,o),
(61,279,cs),
(61,105,o),
(165,0,o),
(351,0,cs)
);
}
);
width = 539;
}
);
metricLeft = "=|to-canadian";
metricRight = "=|to-canadian";
note = uni1455;
unicode = 5205;
},
{
glyphname = "t-canadian";
kernLeft = mwestleft;
kernRight = mwestright;
lastChange = "2023-01-13 15:28:19 +0000";
layers = (
{
layerId = "ABE41ABD-D787-4F86-A3B4-502CADE9F2A5";
shapes = (
{
closed = 1;
nodes = (
(292,357,l),
(312,449,l),
(263,449,ls),
(220,449,o),
(196,472,o),
(196,511,cs),
(196,561,o),
(221,622,o),
(301,622,cs),
(349,622,l),
(368,714,l),
(313,714,ls),
(165,714,o),
(98,610,o),
(98,498,cs),
(98,408,o),
(156,357,o),
(248,357,cs)
);
}
);
width = 315;
}
);
note = uni1466;
unicode = 5222;
},
{
glyphname = "ke-canadian";
lastChange = "2023-01-13 15:28:19 +0000";
layers = (
{
anchors = (
{
name = middle_center_can;
pos = (308,457);
},
{
name = top_center_can;
pos = (357,714);
},
{
name = top_left_can;
pos = (210,714);
},
{
name = top_right_can;
pos = (501,716);
}
);
layerId = "ABE41ABD-D787-4F86-A3B4-502CADE9F2A5";
shapes = (
{
closed = 1;
nodes = (
(425,0,l),
(517,436,ls),
(548,579,o),
(510,728,o),
(340,728,cs),
(150,728,o),
(78,533,o),
(78,388,cs),
(78,267,o),
(138,193,o),
(238,193,cs),
(287,193,o),
(328,217,o),
(355,267,c),
(336,275,l),
(278,0,l)
);
},
{
closed = 1;
nodes = (
(242,318,o),
(221,344,o),
(221,395,cs),
(221,449,o),
(247,604,o),
(326,604,cs),
(365,604,o),
(386,578,o),
(386,526,cs),
(386,473,o),
(360,318,o),
(281,318,cs)
);
}
);
width = 529;
}
);
metricRight = "te-canadian";
note = uni146B;
unicode = 5227;
},
{
glyphname = "ki-canadian";
lastChange = "2023-01-13 15:28:19 +0000";
layers = (
{
anchors = (
{
name = middle_center_can;
pos = (318,457);
},
{
name = top_center_can;
pos = (367,714);
},
{
name = top_left_can;
pos = (222,714);
},
{
name = top_right_can;
pos = (516,714);
}
);
layerId = "ABE41ABD-D787-4F86-A3B4-502CADE9F2A5";
shapes = (
{
closed = 1;
nodes = (
(144,0,l),
(206,294,l),
(187,270,l),
(187,227,o),
(233,193,o),
(297,193,cs),
(468,193,o),
(539,395,o),
(539,525,cs),
(539,653,o),
(468,728,o),
(349,728,cs),
(220,728,o),
(133,642,o),
(99,482,cs),
(-4,0,l)
);
},
{
closed = 1;
nodes = (
(253,318,o),
(232,344,o),
(232,395,cs),
(232,448,o),
(262,604,o),
(338,604,cs),
(376,604,o),
(397,578,o),
(397,527,cs),
(397,473,o),
(371,318,o),
(292,318,cs)
);
}
);
width = 529;
}
);
metricLeft = "te-canadian";
metricRight = "=|ke-canadian";
note = uni146D;
unicode = 5229;
},
{
glyphname = "ko-canadian";
lastChange = "2023-01-13 15:31:51 +0000";
layers = (
{
anchors = (
{
name = middle_center_can;
pos = (277,309);
},
{
name = top_center_can;
pos = (359,714);
},
{
name = top_double;
pos = (505,714);
},
{
name = top_left_can;
pos = (211,714);
},
{
name = top_right_can;
pos = (505,714);
}
);
layerId = "ABE41ABD-D787-4F86-A3B4-502CADE9F2A5";
shapes = (
{
closed = 1;
nodes = (
(355,-14,o),
(441,72,o),
(475,232,cs),
(578,714,l),
(430,714,l),
(368,420,l),
(387,444,l),
(387,487,o),
(341,521,o),
(277,521,cs),
(106,521,o),
(35,318,o),
(35,189,cs),
(35,61,o),
(106,-14,o),
(226,-14,cs)
);
},
{
closed = 1;
nodes = (
(198,110,o),
(177,135,o),
(177,187,cs),
(177,240,o),
(207,395,o),
(282,395,cs),
(320,395,o),
(342,370,o),
(342,319,cs),
(342,264,o),
(316,110,o),
(237,110,cs)
);
}
);
width = 530;
}
);
metricLeft = "ke-canadian";
metricRight = "te-canadian";
note = uni146F;
unicode = 5231;
},
{
glyphname = "ka-canadian";
lastChange = "2023-01-13 15:28:19 +0000";
layers = (
{
anchors = (
{
name = middle_center_can;
pos = (287,313);
},
{
name = top_center_can;
pos = (368,714);
},
{
name = top_left_can;
pos = (222,714);
},
{
name = top_right_can;
pos = (515,714);
}
);
layerId = "ABE41ABD-D787-4F86-A3B4-502CADE9F2A5";
shapes = (
{
closed = 1;
nodes = (
(423,-14,o),
(495,181,o),
(495,326,cs),
(495,447,o),
(435,521,o),
(335,521,cs),
(287,521,o),
(246,497,o),
(219,447,c),
(237,439,l),
(296,714,l),
(148,714,l),
(56,279,ls),
(17,98,o),
(90,-14,o),
(235,-14,cs)
);
},
{
closed = 1;
nodes = (
(209,110,o),
(188,136,o),
(188,188,cs),
(188,241,o),
(213,396,o),
(293,396,cs),
(331,396,o),
(352,370,o),
(352,319,cs),
(352,266,o),
(327,110,o),
(247,110,cs)
);
}
);
width = 529;
}
);
metricLeft = "te-canadian";
metricRight = "==|ke-canadian";
note = uni1472;
unicode = 5234;
},
{
glyphname = "k-canadian";
kernLeft = mwestleft;
kernRight = mwestright;
lastChange = "2023-01-13 15:28:19 +0000";
layers = (
{
layerId = "ABE41ABD-D787-4F86-A3B4-502CADE9F2A5";
shapes = (
{
closed = 1;
nodes = (
(307,351,o),
(346,457,o),
(346,524,cs),
(346,584,o),
(314,622,o),
(262,622,cs),
(225.002,622,o),
(198,601,o),
(184,568,c),
(210,569,l),
(241,714,l),
(143,714,l),
(97,501,ls),
(82,430,o),
(102,351,o),
(202,351,cs)
);
},
{
closed = 1;
nodes = (
(192,423,o),
(182,435,o),
(182,458,cs),
(182,486,o),
(198,551,o),
(231,551,cs),
(248,551,o),
(257,538,o),
(257,516,cs),
(257,487,o),
(241,423,o),
(208,423,cs)
);
}
);
width = 328;
}
);
note = uni1483;
unicode = 5251;
},
{
glyphname = "kw-canadian";
kernLeft = mwestleft;
kernRight = mwestright;
lastChange = "2023-01-13 15:31:51 +0000";
layers = (
{
layerId = "ABE41ABD-D787-4F86-A3B4-502CADE9F2A5";
shapes = (
{
closed = 1;
nodes = (
(264,350,o),
(312,394,o),
(332,487,cs),
(379,714,l),
(282,714,l),
(249,562,l),
(269,563,l),
(272,596,o),
(245,622,o),
(206,622,cs),
(121,622,o),
(83,523,o),
(83,460,cs),
(83,393,o),
(123,350,o),
(192,350,cs)
);
},
{
closed = 1;
nodes = (
(178,422,o),
(168,435,o),
(168,457,cs),
(168,486,o),
(184,550,o),
(217,550,cs),
(234,550,o),
(244,538,o),
(244,515,cs),
(244,488,o),
(228,422,o),
(195,422,cs)
);
}
);
width = 326;
}
);
metricLeft = "=|k-canadian";
metricRight = "=|k-canadian";
note = uni1484;
unicode = 5252;
},
{
glyphname = "ce-canadian";
kernLeft = celeft;
lastChange = "2023-01-13 15:31:51 +0000";
layers = (
{
anchors = (
{
name = middle_center_can;
pos = (286,384);
},
{
name = top_center_can;
pos = (354,714);
},
{
name = top_left_can;
pos = (209,714);
},
{
name = top_right_can;
pos = (495,714);
}
);
layerId = "ABE41ABD-D787-4F86-A3B4-502CADE9F2A5";
shapes = (
{
closed = 1;
nodes = (
(416,0,l),
(516,469,ls),
(550,630,o),
(477,728,o),
(335,728,cs),
(200,728,o),
(122,651,o),
(87,489,cs),
(67,395,l),
(213,395,l),
(236,504,ls),
(251,571,o),
(277,600,o),
(318,600,cs),
(368,600,o),
(389,565,o),
(375,498,cs),
(269.003,0,l)
);
}
);
width = 520;
}
);
metricRight = "te-canadian";
note = uni1489;
unicode = 5257;
},
{
glyphname = "ci-canadian";
kernRight = ciright;
lastChange = "2023-01-13 15:31:51 +0000";
layers = (
{
anchors = (
{
name = middle_center_can;
pos = (298,384);
},
{
name = top_center_can;
pos = (367,714);
},
{
name = top_left_can;
pos = (222,714);
},
{
name = top_right_can;
pos = (511,714);
}
);
layerId = "ABE41ABD-D787-4F86-A3B4-502CADE9F2A5";
shapes = (
{
closed = 1;
nodes = (
(144,0,l),
(250,504,ls),
(265,571,o),
(290,600,o),
(333,600,cs),
(383,600,o),
(403,565,o),
(389,498,cs),
(368,395,l),
(513,395,l),
(529,469,ls),
(563,630,o),
(490,728,o),
(348,728,cs),
(213,728,o),
(135,651,o),
(100,489,cs),
(-4,0,l)
);
}
);
width = 520;
}
);
metricLeft = "te-canadian";
metricRight = "=|ce-canadian";
note = uni148B;
unicode = 5259;
},
{
glyphname = "co-canadian";
kernLeft = coleft;
lastChange = "2023-01-13 15:31:51 +0000";
layers = (
{
anchors = (
{
name = middle_center_can;
pos = (287,384);
},
{
name = top_center_can;
pos = (353,714);
},
{
name = top_double;
pos = (495,714);
},
{
name = top_left_can;
pos = (209,714);
},
{
name = top_right_can;
pos = (495,714);
}
);
layerId = "ABE41ABD-D787-4F86-A3B4-502CADE9F2A5";
shapes = (
{
closed = 1;
nodes = (
(352,-14,o),
(430,63,o),
(464,225,cs),
(568,714,l),
(421.003,714,l),
(314,210,ls),
(300,143,o),
(274,114,o),
(232,114,cs),
(182,114,o),
(161,149,o),
(175,216,cs),
(197,319,l),
(51,319,l),
(36,245,ls),
(1,84,o),
(75,-14,o),
(216,-14,cs)
);
}
);
width = 520;
}
);
metricLeft = "ce-canadian";
metricRight = "te-canadian";
note = uni148D;
unicode = 5261;
},
{
glyphname = "ca-canadian";
kernRight = caright;
lastChange = "2023-01-13 15:31:51 +0000";
layers = (
{
anchors = (
{
name = middle_center_can;
pos = (299,384);
},
{
name = top_center_can;
pos = (367,714);
},
{
name = top_left_can;
pos = (223,714);
},
{
name = top_right_can;
pos = (509,714);
}
);
layerId = "ABE41ABD-D787-4F86-A3B4-502CADE9F2A5";
shapes = (
{
closed = 1;
nodes = (
(365,-14,o),
(442,63,o),
(477,225,cs),
(497,319,l),
(351,319,l),
(328,210,ls),
(314,143,o),
(288,114,o),
(246,114,cs),
(197,114,o),
(176,149,o),
(190,216,cs),
(296,714,l),
(148,714,l),
(49,245,ls),
(15,84,o),
(88,-14,o),
(229,-14,cs)
);
}
);
width = 520;
}
);
metricLeft = "te-canadian";
metricRight = "=|ce-canadian";
note = uni1490;
unicode = 5264;
},
{
glyphname = "c-canadian";
kernLeft = mwestleft;
kernRight = mwestright;
lastChange = "2023-01-13 15:28:19 +0000";
layers = (
{
layerId = "ABE41ABD-D787-4F86-A3B4-502CADE9F2A5";
shapes = (
{
closed = 1;
nodes = (
(277,351,o),
(325,394,o),
(341,474,cs),
(348,507,l),
(258,507,l),
(249,465,ls),
(244,441,o),
(231,427,o),
(212,427,cs),
(191,427,o),
(183,444,o),
(188,469,cs),
(241,714,l),
(143,714,l),
(97,496,ls),
(78,408,o),
(118,351,o),
(206,351,cs)
);
}
);
width = 319;
}
);
note = uni14A1;
unicode = 5281;
},
{
glyphname = "thSayisi-canadian";
lastChange = "2023-01-13 15:31:51 +0000";
layers = (
{
layerId = "ABE41ABD-D787-4F86-A3B4-502CADE9F2A5";
shapes = (
{
closed = 1;
nodes = (
(258,351,o),
(304,394,o),
(322,474,cs),
(373,714,l),
(275,714,l),
(223,467,ls),
(217,439,o),
(203,427,o),
(185,427,cs),
(163,427,o),
(156,444,o),
(161,469,cs),
(170,507,l),
(80,507,l),
(75,487,ls),
(59,408,o),
(98,351,o),
(184,351,cs)
);
}
);
width = 320;
}
);
metricLeft = "=|c-canadian";
metricRight = "=|c-canadian";
note = uni14A2;
unicode = 5282;
},
{
glyphname = "me-canadian";
kernLeft = meleft;
lastChange = "2023-01-13 15:28:19 +0000";
layers = (
{
anchors = (
{
name = middle_center_can;
pos = (182,357);
},
{
name = top_center_can;
pos = (334,714);
},
{
name = top_left_can;
pos = (203,714);
},
{
name = top_right_can;
pos = (457,714);
}
);
layerId = "ABE41ABD-D787-4F86-A3B4-502CADE9F2A5";
shapes = (
{
closed = 1;
nodes = (
(379,0,l),
(531,714,l),
(130,714,l),
(101,580,l),
(354,580,l),
(231,0,l)
);
}
);
width = 486;
}
);
metricRight = "nunavuth-canadian";
note = uni14A3;
unicode = 5283;
},
{
glyphname = "mi-canadian";
kernRight = miright;
lastChange = "2023-01-13 15:31:51 +0000";
layers = (
{
anchors = (
{
name = middle_center_can;
pos = (350,357);
},
{
name = top_center_can;
pos = (352,714);
},
{
name = top_left_can;
pos = (225,714);
},
{
name = top_right_can;
pos = (479,714);
}
);
layerId = "ABE41ABD-D787-4F86-A3B4-502CADE9F2A5";
shapes = (
{
closed = 1;
nodes = (
(146,0,l),
(270,580,l),
(523,580,l),
(552,714,l),
(151,714,l),
(-1,0,l)
);
}
);
width = 485;
}
);
metricLeft = "nunavuth-canadian";
metricRight = "=|me-canadian";
note = uni14A5;
unicode = 5285;
},
{
glyphname = "mo-canadian";
kernLeft = moleft;
lastChange = "2023-01-13 15:28:19 +0000";
layers = (
{
anchors = (
{
name = middle_center_can;
pos = (181,357);
},
{
name = top_center_can;
pos = (334,714);
},
{
name = top_double;
pos = (457,714);
},
{
name = top_left_can;
pos = (203,714);
},
{
name = top_right_can;
pos = (457,714);
}
);
layerId = "ABE41ABD-D787-4F86-A3B4-502CADE9F2A5";
shapes = (
{
closed = 1;
nodes = (
(379,0,l),
(531,714,l),
(383,714,l),
(260,134,l),
(6,134,l),
(-22,0,l)
);
}
);
width = 486;
}
);
metricLeft = "me-canadian";
metricRight = "nunavuth-canadian";
note = uni14A7;
unicode = 5287;
},
{
glyphname = "ma-canadian";
kernRight = maright;
lastChange = "2023-01-13 15:31:51 +0000";
layers = (
{
anchors = (
{
name = middle_center_can;
pos = (350,357);
},
{
name = top_center_can;
pos = (352,714);
},
{
name = top_left_can;
pos = (225,714);
},
{
name = top_right_can;
pos = (478,714);
}
);
layerId = "ABE41ABD-D787-4F86-A3B4-502CADE9F2A5";
shapes = (
{
closed = 1;
nodes = (
(400,0,l),
(428,134,l),
(175,134,l),
(298,714,l),
(151,714,l),
(-1,0,l)
);
}
);
width = 485;
}
);
metricLeft = "nunavuth-canadian";
metricRight = "=|me-canadian";
note = uni14AA;
unicode = 5290;
},
{
glyphname = "m-canadian";
kernLeft = mwestleft;
kernRight = mwestright;
lastChange = "2023-01-13 15:28:19 +0000";
layers = (
{
layerId = "ABE41ABD-D787-4F86-A3B4-502CADE9F2A5";
shapes = (
{
closed = 1;
nodes = (
(287,357,l),
(307,449,l),
(184,449,l),
(241,714,l),
(143,714,l),
(67,357,l)
);
}
);
width = 294;
}
);
metricLeft = "pWestCree-canadian";
note = uni14BB;
unicode = 5307;
},
{
glyphname = "mh-canadian";
kernLeft = mwestleft;
kernRight = mwestright;
lastChange = "2023-01-13 15:31:51 +0000";
layers = (
{
layerId = "ABE41ABD-D787-4F86-A3B4-502CADE9F2A5";
shapes = (
{
closed = 1;
nodes = (
(272,357,l),
(348,714,l),
(251,714,l),
(194,449,l),
(71,449,l),
(51,357,l)
);
}
);
width = 295;
}
);
metricLeft = "=|m-canadian";
metricRight = "=|m-canadian";
note = uni14BD;
unicode = 5309;
},
{
glyphname = "mAthapascan-canadian";
lastChange = "2023-01-13 15:28:19 +0000";
layers = (
{
layerId = "ABE41ABD-D787-4F86-A3B4-502CADE9F2A5";
shapes = (
{
closed = 1;
nodes = (
(295,357,l),
(312,439,l),
(180,439,l),
(176,398,l),
(278,500,ls),
(315,536,o),
(344,578,o),
(344,627,cs),
(344,682,o),
(306,720,o),
(242,720,cs),
(170,720,o),
(124,679,o),
(107,590,c),
(193,590,l),
(201,633,o),
(215,651,o),
(234,651,cs),
(250,651,o),
(259,641,o),
(259,624,cs),
(259,592,o),
(231,557,o),
(200,527,cs),
(81,409,l),
(70,357,l)
);
}
);
width = 309;
}
);
note = uni14BE;
unicode = 5310;
},
{
glyphname = "ne-canadian";
kernLeft = neleft;
lastChange = "2023-01-13 15:28:19 +0000";
layers = (
{
anchors = (
{
name = middle_center_can;
pos = (445,254);
},
{
name = top_center_can;
pos = (487,526);
},
{
name = top_left_can;
pos = (170,526);
},
{
name = top_right_can;
pos = (654,526);
}
);
layerId = "ABE41ABD-D787-4F86-A3B4-502CADE9F2A5";
shapes = (
{
closed = 1;
nodes = (
(596,-14,o),
(671,175,o),
(671,300,cs),
(671,425,o),
(595,506,o),
(467,506,cs),
(92,506,l),
(64,374,l),
(314,374,l),
(313,424,l),
(243,373,o),
(218,263,o),
(218,189,cs),
(218,63,o),
(294,-14,o),
(416,-14,cs)
);
},
{
closed = 1;
nodes = (
(382,110,o),
(360,139,o),
(360,191,cs),
(360,245,o),
(386,382,o),
(465,382,cs),
(506,382,o),
(528,353,o),
(528,301,cs),
(528,247,o),
(502,110,o),
(423,110,cs)
);
}
);
width = 708;
}
);
metricRight = "=|ke-canadian";
note = uni14C0;
unicode = 5312;
},
{
glyphname = "ni-canadian";
kernRight = niright;
lastChange = "2023-01-13 15:28:19 +0000";
layers = (
{
anchors = (
{
name = middle_center_can;
pos = (262,254);
},
{
name = top_center_can;
pos = (340,526);
},
{
name = top_left_can;
pos = (169,526);
},
{
name = top_right_can;
pos = (654,526);
}
);
layerId = "ABE41ABD-D787-4F86-A3B4-502CADE9F2A5";
shapes = (
{
closed = 1;
nodes = (
(413,-14,o),
(487,175,o),
(487,302,cs),
(487,342,o),
(478,372,o),
(460,395,c),
(445,374,l),
(695,374,l),
(724,506,l),
(299,506,ls),
(108,506,o),
(34,318,o),
(34,192,cs),
(34,63,o),
(111,-14,o),
(232,-14,cs)
);
},
{
closed = 1;
nodes = (
(199,110,o),
(176,139,o),
(176,191,cs),
(176,245,o),
(203,382,o),
(282,382,cs),
(323,382,o),
(345,353,o),
(345,301,cs),
(345,247,o),
(319,110,o),
(240,110,cs)
);
}
);
width = 708;
}
);
metricLeft = "ke-canadian";
metricRight = "=|ne-canadian";
note = uni14C2;
unicode = 5314;
},
{
glyphname = "no-canadian";
kernLeft = noleft;
lastChange = "2023-01-13 15:28:19 +0000";
layers = (
{
anchors = (
{
name = middle_center_can;
pos = (444,254);
},
{
name = top_center_can;
pos = (502,526);
},
{
name = top_double;
pos = (504,526);
},
{
name = top_left_can;
pos = (170,526);
},
{
name = top_right_can;
pos = (655,526);
}
);
layerId = "ABE41ABD-D787-4F86-A3B4-502CADE9F2A5";
shapes = (
{
closed = 1;
nodes = (
(409,0,ls),
(600,0,o),
(674,189,o),
(674,314,cs),
(674,444,o),
(597,521,o),
(475,521,cs),
(295,521,o),
(221,332,o),
(221,204,cs),
(221,165,o),
(230,134,o),
(248,111,c),
(263,133,l),
(12,133,l),
(-16,0,l)
);
},
{
closed = 1;
nodes = (
(385,125,o),
(363,154,o),
(363,205,cs),
(363,259,o),
(389,396,o),
(468,396,cs),
(509,396,o),
(531,367,o),
(531,316,cs),
(531,262,o),
(504,125,o),
(426,125,cs)
);
}
);
width = 708;
}
);
metricLeft = "ne-canadian";
metricRight = "=|ke-canadian";
note = uni14C4;
unicode = 5316;
},
{
glyphname = "na-canadian";
kernRight = naright;
lastChange = "2023-01-13 15:31:51 +0000";
layers = (
{
anchors = (
{
name = middle_center_can;
pos = (264,254);
},
{
name = top_center_can;
pos = (321,526);
},
{
name = top_double;
pos = (482,526);
},
{
name = top_left_can;
pos = (169,526);
},
{
name = top_right_can;
pos = (654,526);
}
);
layerId = "ABE41ABD-D787-4F86-A3B4-502CADE9F2A5";
shapes = (
{
closed = 1;
nodes = (
(615,0,l),
(643,133,l),
(394,133,l),
(395,82,l),
(465,133,o),
(490,243,o),
(490,317,cs),
(490,443,o),
(414,521,o),
(292,521,cs),
(112,521,o),
(37,332,o),
(37,206,cs),
(37,81,o),
(113,0,o),
(241,0,cs)
);
},
{
closed = 1;
nodes = (
(202,125,o),
(179,154,o),
(179,205,cs),
(179,259,o),
(206,396,o),
(285,396,cs),
(326,396,o),
(348,367,o),
(348,316,cs),
(348,262,o),
(322,125,o),
(243,125,cs)
);
}
);
width = 707;
}
);
metricLeft = "ke-canadian";
metricRight = "=|ne-canadian";
note = uni14C7;
unicode = 5319;
},
{
glyphname = "n-canadian";
kernLeft = mwestleft;
kernRight = mwestright;
lastChange = "2023-01-13 15:31:51 +0000";
layers = (
{
layerId = "ABE41ABD-D787-4F86-A3B4-502CADE9F2A5";
shapes = (
{
closed = 1;
nodes = (
(418,449,l),
(438,542,l),
(301,542,l),
(297,489,l),
(332,513,o),
(351,571,o),
(351,612,cs),
(351,678,o),
(310,720,o),
(243,720,cs),
(152,720,o),
(104,636,o),
(104,560,cs),
(104,493,o),
(146,449,o),
(215,449,cs)
);
},
{
closed = 1;
nodes = (
(199,520,o),
(189,534,o),
(189,558,cs),
(189,588,o),
(203,649,o),
(238,649,cs),
(256,649,o),
(266,636,o),
(266,611,cs),
(266,581,o),
(252,520,o),
(216,520,cs)
);
}
);
width = 405;
}
);
metricLeft = "=|k-canadian";
note = uni14D0;
unicode = 5328;
},
{
glyphname = "nh-canadian";
kernLeft = mwestleft;
kernRight = mwestright;
lastChange = "2023-01-13 15:28:19 +0000";
layers = (
{
layerId = "ABE41ABD-D787-4F86-A3B4-502CADE9F2A5";
shapes = (
{
closed = 1;
nodes = (
(298,449,ls),
(395,449,o),
(443,531,o),
(443,612,cs),
(443,677,o),
(400,720,o),
(335,720,cs),
(243,720,o),
(195,636,o),
(195,560,cs),
(195,539,o),
(200,519,o),
(212,504,c),
(226,542,l),
(90,542,l),
(70,449,l)
);
},
{
closed = 1;
nodes = (
(290,520,o),
(280,534,o),
(280,558,cs),
(280,588,o),
(295,649,o),
(329,649,cs),
(348,649,o),
(358,636,o),
(358,611,cs),
(358,581,o),
(343,520,o),
(308,520,cs)
);
}
);
width = 406;
}
);
metricLeft = "=|n-canadian";
metricRight = "=|n-canadian";
note = uni14D2;
unicode = 5330;
},
{
glyphname = "le-canadian";
kernLeft = neleft;
lastChange = "2023-01-13 15:28:19 +0000";
layers = (
{
anchors = (
{
name = middle_center_can;
pos = (444,254);
},
{
name = top_center_can;
pos = (489,526);
},
{
name = top_left_can;
pos = (170,526);
},
{
name = top_right_can;
pos = (654,526);
}
);
layerId = "ABE41ABD-D787-4F86-A3B4-502CADE9F2A5";
shapes = (
{
closed = 1;
nodes = (
(353,0,ls),
(555,0,o),
(669,120,o),
(669,293,cs),
(669,423,o),
(584,506,o),
(444,506,cs),
(92,506,l),
(64,373,l),
(416,373,ls),
(485,373,o),
(523,339,o),
(523,280,cs),
(523,209,o),
(483,129,o),
(374,129,cs),
(351,129,l),
(323,0,l)
);
}
);
width = 708;
}
);
metricLeft = "ne-canadian";
metricRight = "=|ke-canadian";
note = uni14D3;
unicode = 5331;
},
{
glyphname = "li-canadian";
kernRight = niright;
lastChange = "2023-01-13 15:31:51 +0000";
layers = (
{
anchors = (
{
name = middle_center_can;
pos = (266,254);
},
{
name = top_center_can;
pos = (342,526);
},
{
name = top_left_can;
pos = (172,526);
},
{
name = top_right_can;
pos = (655,526);
}
);
layerId = "ABE41ABD-D787-4F86-A3B4-502CADE9F2A5";
shapes = (
{
closed = 1;
nodes = (
(279,0,l),
(306,129,l),
(282,129,ls),
(223,129,o),
(187,165,o),
(187,224,cs),
(187,292,o),
(226,373,o),
(335,373,cs),
(696,373,l),
(724,506,l),
(347,506,ls),
(153,506,o),
(40,387,o),
(40,220,cs),
(40,92,o),
(124,0,o),
(252,0,cs)
);
}
);
width = 708;
}
);
metricLeft = "ke-canadian";
metricRight = "=|ne-canadian";
note = uni14D5;
unicode = 5333;
},
{
glyphname = "lo-canadian";
kernLeft = noleft;
lastChange = "2023-01-13 15:28:19 +0000";
layers = (
{
anchors = (
{
name = middle_center_can;
pos = (443,254);
},
{
name = top_center_can;
pos = (501,526);
},
{
name = top_double;
pos = (472,526);
},
{
name = top_left_can;
pos = (170,526);
},
{
name = top_right_can;
pos = (654,526);
}
);
layerId = "ABE41ABD-D787-4F86-A3B4-502CADE9F2A5";
shapes = (
{
closed = 1;
nodes = (
(362,0,ls),
(555,0,o),
(668,119,o),
(668,287,cs),
(668,414,o),
(585,506,o),
(457,506,cs),
(430,506,l),
(403,377,l),
(426,377,ls),
(486,377,o),
(522,341,o),
(522,282,cs),
(522,214,o),
(483,133,o),
(374,133,cs),
(13,133,l),
(-16,0,l)
);
}
);
width = 708;
}
);
metricLeft = "ne-canadian";
metricRight = "=|ke-canadian";
note = uni14D7;
unicode = 5335;
},
{
glyphname = "la-canadian";
kernRight = naright;
lastChange = "2023-01-13 15:31:51 +0000";
layers = (
{
anchors = (
{
name = middle_center_can;
pos = (265,254);
},
{
name = top_center_can;
pos = (322,526);
},
{
name = top_left_can;
pos = (170,526);
},
{
name = top_right_can;
pos = (654,526);
}
);
layerId = "ABE41ABD-D787-4F86-A3B4-502CADE9F2A5";
shapes = (
{
closed = 1;
nodes = (
(615,0,l),
(643,133,l),
(292,133,ls),
(222,133,o),
(185,167,o),
(185,226,cs),
(185,298,o),
(225,377,o),
(334,377,cs),
(357,377,l),
(384,506,l),
(354,506,ls),
(153,506,o),
(39,387,o),
(39,213,cs),
(39,84,o),
(123,0,o),
(264,0,cs)
);
}
);
width = 707;
}
);
metricLeft = "ke-canadian";
metricRight = "=|ne-canadian";
note = uni14DA;
unicode = 5338;
},
{
glyphname = "l-canadian";
kernLeft = mwestleft;
kernRight = mwestright;
lastChange = "2023-01-13 15:28:19 +0000";
layers = (
{
layerId = "ABE41ABD-D787-4F86-A3B4-502CADE9F2A5";
shapes = (
{
closed = 1;
nodes = (
(385,357,l),
(405,449,l),
(263,449,ls),
(220,449,o),
(196,472,o),
(196,512,cs),
(196,561,o),
(221,623,o),
(297,623,cs),
(306,623,l),
(326,714,l),
(311,714,ls),
(163,714,o),
(98,609,o),
(98,499,cs),
(98,408,o),
(157,357,o),
(256,357,cs)
);
}
);
width = 392;
}
);
metricLeft = "t-canadian";
metricRight = "m-canadian";
note = uni14EA;
unicode = 5354;
},
{
glyphname = "lWestCree-canadian";
kernLeft = mwestleft;
kernRight = mwestright;
lastChange = "2023-01-13 15:28:19 +0000";
layers = (
{
layerId = "ABE41ABD-D787-4F86-A3B4-502CADE9F2A5";
shapes = (
{
closed = 1;
nodes = (
(276,357,l),
(289,417,l),
(166,485,l),
(154,434,l),
(309,508,l),
(318,552,l),
(193,618,l),
(183,572,l),
(337,641,l),
(352,714,l),
(337,714,l),
(123,619,l),
(116,587,l),
(244,517,l),
(252,553,l),
(94,483,l),
(87,451,l),
(261,357,l)
);
}
);
width = 300;
}
);
metricRight = "=|";
note = uni14EB;
unicode = 5355;
},
{
glyphname = "mediall-canadian";
lastChange = "2023-01-13 15:31:51 +0000";
layers = (
{
layerId = "ABE41ABD-D787-4F86-A3B4-502CADE9F2A5";
shapes = (
{
closed = 1;
nodes = (
(429,-14,l),
(450,86,l),
(179,235,l),
(163,162,l),
(500,317,l),
(512,377,l),
(239,518,l),
(224,457,l),
(561,607,l),
(586,728,l),
(552,728,l),
(108,531,l),
(96,478,l),
(370,329,l),
(381,382,l),
(46,236,l),
(34,183,l),
(394,-14,l)
);
}
);
width = 534;
}
);
metricRight = "=|";
note = uni14EC;
unicode = 5356;
},
{
glyphname = "se-canadian";
kernRight = seright;
lastChange = "2023-01-13 15:28:19 +0000";
layers = (
{
anchors = (
{
name = top_left_can;
pos = (225,714);
},
{
name = top_right_can;
pos = (459,714);
}
);
layerId = "ABE41ABD-D787-4F86-A3B4-502CADE9F2A5";
shapes = (
{
closed = 1;
nodes = (
(381,0,l),
(460,372,l),
(429,372,ls),
(294,372,o),
(237,427,o),
(270,580,cs),
(298,714,l),
(151,714,l),
(123,583,ls),
(76,366,o),
(179,240,o),
(393,240,cs),
(409,240,l),
(294,285,l),
(233,0,l)
);
}
);
width = 489;
}
);
note = uni14ED;
unicode = 5357;
},
{
glyphname = "si-canadian";
kernLeft = sileft;
lastChange = "2023-01-13 15:28:19 +0000";
layers = (
{
anchors = (
{
name = top_left_can;
pos = (226,714);
},
{
name = top_right_can;
pos = (461,714);
}
);
layerId = "ABE41ABD-D787-4F86-A3B4-502CADE9F2A5";
shapes = (
{
closed = 1;
nodes = (
(148,0,l),
(209,287,l),
(86,240,l),
(122,240,ls),
(336,240,o),
(453,335,o),
(503,568,cs),
(534,714,l),
(386,714,l),
(357,578,ls),
(328,443,o),
(256,372,o),
(128,372,cs),
(79,372,l),
(0,0,l)
);
}
);
width = 489;
}
);
metricLeft = "=|se-canadian";
metricRight = "=|se-canadian";
note = uni14EF;
unicode = 5359;
},
{
glyphname = "so-canadian";
kernRight = soright;
lastChange = "2023-01-13 15:28:19 +0000";
layers = (
{
anchors = (
{
name = top_double;
pos = (460,714);
},
{
name = top_left_can;
pos = (225,714);
},
{
name = top_right_can;
pos = (459,714);
}
);
layerId = "ABE41ABD-D787-4F86-A3B4-502CADE9F2A5";
shapes = (
{
closed = 1;
nodes = (
(147,0,l),
(176,136,ls),
(205,271,o),
(278,342,o),
(405,342,cs),
(454,342,l),
(533,714,l),
(385,714,l),
(325,427,l),
(447,474,l),
(411,474,ls),
(197,474,o),
(80,379,o),
(30,146,cs),
(-1,0,l)
);
}
);
width = 489;
}
);
metricLeft = "se-canadian";
metricRight = "se-canadian";
note = uni14F1;
unicode = 5361;
},
{
glyphname = "sa-canadian";
kernLeft = saleft;
kernRight = saright;
lastChange = "2023-01-13 15:28:19 +0000";
layers = (
{
anchors = (
{
name = top_left_can;
pos = (226,714);
},
{
name = top_right_can;
pos = (460,714);
}
);
layerId = "ABE41ABD-D787-4F86-A3B4-502CADE9F2A5";
shapes = (
{
closed = 1;
nodes = (
(382,0,l),
(410,131,ls),
(456,348,o),
(354,474,o),
(139,474,cs),
(124,474,l),
(238,429,l),
(299,714,l),
(152,714,l),
(73,342,l),
(103,342,ls),
(238,342,o),
(295,287,o),
(262,134,cs),
(234,0,l)
);
}
);
width = 489;
}
);
metricLeft = "=|se-canadian";
metricRight = "=|se-canadian";
note = uni14F4;
unicode = 5364;
},
{
glyphname = "s-canadian";
kernLeft = mwestleft;
kernRight = mwestright;
lastChange = "2023-01-13 15:31:51 +0000";
layers = (
{
layerId = "ABE41ABD-D787-4F86-A3B4-502CADE9F2A5";
shapes = (
{
closed = 1;
nodes = (
(290,357,l),
(305,429,ls),
(327,536,o),
(279,605,o),
(177,605,cs),
(152,605,l),
(209,568,l),
(241,714,l),
(143,714,l),
(103,529,l),
(140,529,ls),
(202,529,o),
(222,497,o),
(207,428,cs),
(192,357,l)
);
}
);
width = 312;
}
);
metricRight = "=|";
note = uni1505;
unicode = 5381;
},
{
color = 6;
glyphname = "sAthapascan-canadian";
lastChange = "2023-01-13 15:28:19 +0000";
layers = (
{
layerId = "ABE41ABD-D787-4F86-A3B4-502CADE9F2A5";
shapes = (
{
closed = 1;
nodes = (
(257,183,o),
(307,231,o),
(307,298,cs),
(307,344,o),
(284,375,o),
(243,391,cs),
(204,406,ls),
(186,413,o),
(176,425,o),
(176,441,cs),
(176,466,o),
(191,481,o),
(217,481,cs),
(242,481,o),
(254,466,o),
(248,433,c),
(336,433,l),
(349,511,o),
(296,552,o),
(223,552,cs),
(136,552,o),
(88,504,o),
(88,432,cs),
(88,392,o),
(111,358,o),
(150,343,cs),
(189,328,ls),
(209,320,o),
(218,308,o),
(218,292,cs),
(218,269,o),
(203,254,o),
(178,254,cs),
(150,254,o),
(135,267,o),
(143,303,c),
(55,303,l),
(42,226,o),
(91,183,o),
(174,183,cs)
);
}
);
width = 344;
}
);
metricRight = "=|";
note = uni1506;
unicode = 5382;
},
{
glyphname = "sw-canadian";
kernLeft = mwestleft;
kernRight = mwestright;
lastChange = "2023-01-13 15:31:51 +0000";
layers = (
{
layerId = "ABE41ABD-D787-4F86-A3B4-502CADE9F2A5";
shapes = (
{
closed = 1;
nodes = (
(163,357,l),
(178,427,ls),
(193,499,o),
(227,529,o),
(295,529,cs),
(324,529,l),
(364,714,l),
(266,714,l),
(235,569,l),
(309,605,l),
(271,605,ls),
(169,605,o),
(105,547,o),
(82,434,cs),
(66,357,l)
);
}
);
width = 310;
}
);
metricLeft = "=|s-canadian";
metricRight = "=|s-canadian";
note = uni1507;
unicode = 5383;
},
{
glyphname = "sBlackfoot-canadian";
lastChange = "2023-01-13 15:28:19 +0000";
layers = (
{
layerId = "ABE41ABD-D787-4F86-A3B4-502CADE9F2A5";
shapes = (
{
closed = 1;
nodes = (
(296,357,l),
(316,449,l),
(241,449,ls),
(204,449,o),
(188,469,o),
(197,508,cs),
(241,714,l),
(143,714,l),
(102,518,ls),
(81,420,o),
(129,357,o),
(228,357,cs)
);
}
);
width = 303;
}
);
metricLeft = "ai-canadian";
metricRight = "m-canadian";
note = uni1508;
unicode = 5384;
},
{
glyphname = "moosecreesk-canadian";
kernLeft = mwestleft;
kernRight = mwestright;
lastChange = "2023-01-13 15:28:19 +0000";
layers = (
{
layerId = "ABE41ABD-D787-4F86-A3B4-502CADE9F2A5";
shapes = (
{
closed = 1;
nodes = (
(293,225,o),
(326,360,o),
(326,449,cs),
(326,548,o),
(276,606,o),
(182,606,cs),
(169,606,l),
(210,570,l),
(241,714,l),
(143,714,l),
(104,530,l),
(143,530,ls),
(219,530,o),
(238,508,o),
(237,444,c),
(256,440,l),
(252,464,o),
(232,493,o),
(189,493,cs),
(100,493,o),
(67,393,o),
(67,336,cs),
(67,269,o),
(108,225,o),
(177,225,cs)
);
},
{
closed = 1;
nodes = (
(162,295,o),
(153,308,o),
(153,331,cs),
(153,360,o),
(169,426,o),
(203,426,cs),
(221,426,o),
(231,413,o),
(231,390,cs),
(231,362,o),
(214,295,o),
(181,295,cs)
);
}
);
width = 338;
}
);
metricRight = "=|";
note = uni1509;
unicode = 5385;
},
{
glyphname = "skwNaskapi-canadian";
kernLeft = mwestleft;
kernRight = mwestright;
lastChange = "2023-01-13 15:31:51 +0000";
layers = (
{
layerId = "ABE41ABD-D787-4F86-A3B4-502CADE9F2A5";
shapes = (
{
closed = 1;
nodes = (
(274,225,o),
(319,317,o),
(319,393,cs),
(319,453,o),
(287,493,o),
(236,493,cs),
(201,493,o),
(173,474,o),
(164,444,c),
(184,446,l),
(207,508,o),
(237,530,o),
(314,530,cs),
(352,530,l),
(390,714,l),
(293,714,l),
(262,568,l),
(324,606,l),
(305,606,ls),
(128,606,o),
(71,444,o),
(71,341,cs),
(71,272,o),
(109,225,o),
(180,225,cs)
);
},
{
closed = 1;
nodes = (
(164,295,o),
(155,308,o),
(155,331,cs),
(155,360,o),
(171,426,o),
(205,426,cs),
(223,426,o),
(233,413,o),
(233,390,cs),
(233,362,o),
(216,295,o),
(183,295,cs)
);
}
);
width = 339;
}
);
metricLeft = "=|moosecreesk-canadian";
metricRight = "=|moosecreesk-canadian";
note = uni150A;
unicode = 5386;
},
{
glyphname = "swNaskapi-canadian";
lastChange = "2023-01-13 15:31:51 +0000";
layers = (
{
layerId = "ABE41ABD-D787-4F86-A3B4-502CADE9F2A5";
shapes = (
{
closed = 1;
nodes = (
(273,195,l),
(284,247,ls),
(307,356,o),
(253,425,o),
(156,425,cs),
(132,425,l),
(180,389,l),
(208,519,l),
(110,519,l),
(75,349,l),
(113,349,ls),
(173,349,o),
(202,322,o),
(187,250,cs),
(175,195,l)
);
},
{
closed = 1;
nodes = (
(239,14,o),
(270,45,o),
(270,85,cs),
(270,124,o),
(239,155,o),
(200,155,cs),
(163,155,o),
(131,124,o),
(131,85,cs),
(131,45,o),
(163,14,o),
(200,14,cs)
);
},
{
closed = 1;
nodes = (
(222,559,o),
(253,591,o),
(253,629,cs),
(253,669,o),
(222,700,o),
(183,700,cs),
(145,700,o),
(114,669,o),
(114,629,cs),
(114,591,o),
(145,559,o),
(183,559,cs)
);
}
);
width = 339;
}
);
metricRight = "=|";
note = uni150B;
unicode = 5387;
},
{
glyphname = "spwaNaskapi-canadian";
lastChange = "2023-01-13 15:28:19 +0000";
layers = (
{
layerId = "ABE41ABD-D787-4F86-A3B4-502CADE9F2A5";
shapes = (
{
closed = 1;
nodes = (
(483,0,l),
(510,126,l),
(207,376,l),
(195,311,l),
(602,560,l),
(634,714,l),
(600,714,l),
(54,380,l),
(44,334,l),
(448,0,l)
);
},
{
closed = 1;
nodes = (
(222,523,o),
(253,555,o),
(253,593,cs),
(253,632,o),
(221,664,o),
(183,664,cs),
(146,664,o),
(114,632,o),
(114,593,cs),
(114,554,o),
(146,523,o),
(183,523,cs)
);
},
{
closed = 1;
nodes = (
(408,636,l),
(420,692,ls),
(437,770,o),
(401,821,o),
(325,821,cs),
(294,821,l),
(358,790,l),
(381,896,l),
(287,896,l),
(256,750,l),
(277,750,ls),
(319,750,o),
(334,728,o),
(324,681,cs),
(314,636,l)
);
},
{
closed = 1;
nodes = (
(581,738,o),
(613,770,o),
(613,808,cs),
(613,847,o),
(581,879,o),
(543,879,cs),
(505,879,o),
(474,847,o),
(474,808,cs),
(474,770,o),
(505,738,o),
(543,738,cs)
);
}
);
width = 573;
}
);
metricRight = "pa-canadian";
metricWidth = "pa-canadian";
note = uni150C;
unicode = 5388;
},
{
glyphname = "she-canadian";
kernRight = caright;
lastChange = "2023-01-13 15:28:19 +0000";
layers = (
{
anchors = (
{
name = top_left_can;
pos = (352,714);
},
{
name = top_right_can;
pos = (728,714);
}
);
layerId = "ABE41ABD-D787-4F86-A3B4-502CADE9F2A5";
shapes = (
{
closed = 1;
nodes = (
(623,-14,o),
(698,70,o),
(731,226,cs),
(751,319,l),
(605,319,l),
(582,210,ls),
(568,142,o),
(545,114,o),
(506,114,cs),
(461,114,o),
(446,148,o),
(457,215,cs),
(502,468,ls),
(531,638,o),
(463,728,o),
(327,728,cs),
(197,728,o),
(121,644,o),
(88,488,cs),
(68,395,l),
(214,395,l),
(237,504,ls),
(252,572,o),
(274,600,o),
(314,600,cs),
(358,600,o),
(373,566,o),
(362,499,cs),
(317,246,ls),
(288,76,o),
(357,-14,o),
(493,-14,cs)
);
}
);
width = 775;
}
);
metricRight = "=|";
note = uni1510;
unicode = 5392;
},
{
glyphname = "shi-canadian";
kernLeft = coleft;
lastChange = "2023-01-13 15:28:19 +0000";
layers = (
{
anchors = (
{
name = top_left_can;
pos = (243,714);
},
{
name = top_right_can;
pos = (619,714);
}
);
layerId = "ABE41ABD-D787-4F86-A3B4-502CADE9F2A5";
shapes = (
{
closed = 1;
nodes = (
(336,-14,o),
(408,56,o),
(451,231,cs),
(517,499,ls),
(535,574,o),
(556,600,o),
(596,600,cs),
(640,600,o),
(657,566,o),
(642,497,cs),
(621,395,l),
(767,395,l),
(781,460,ls),
(815,619,o),
(748,728,o),
(605,728,cs),
(482,728,o),
(412,658,o),
(369,483,cs),
(302,214,ls),
(283,140,o),
(262,114,o),
(222,114,cs),
(179,114,o),
(162,148,o),
(177,217,cs),
(198,319,l),
(52,319,l),
(38,254,ls),
(4,94,o),
(71,-14,o),
(214,-14,cs)
);
}
);
width = 775;
}
);
metricLeft = "she-canadian";
metricRight = "she-canadian";
note = uni1511;
unicode = 5393;
},
{
glyphname = "sho-canadian";
lastChange = "2023-01-13 15:31:51 +0000";
layers = (
{
anchors = (
{
name = top_center_can;
pos = (457,526);
},
{
name = top_left_can;
pos = (314,526);
},
{
name = top_right_can;
pos = (599,526);
}
);
layerId = "ABE41ABD-D787-4F86-A3B4-502CADE9F2A5";
shapes = (
{
closed = 1;
nodes = (
(296,112,l),
(220,115,o),
(173,145,o),
(173,192,cs),
(173,233,o),
(199,264,o),
(246,264,cs),
(344,264,o),
(401,111,o),
(562,111,cs),
(692,111,o),
(767,204,o),
(767,320,cs),
(767,437,o),
(672,517,o),
(528,521,c),
(502,394,l),
(578,391,o),
(626,361,o),
(626,314,cs),
(626,273,o),
(599,242,o),
(552,242,cs),
(454,242,o),
(397,396,o),
(236,396,cs),
(101,396,o),
(31,297,o),
(31,187,cs),
(31,70,o),
(127,-10,o),
(269,-14,c)
);
}
);
width = 797;
}
);
metricLeft = "ke-canadian";
metricRight = "=|ke-canadian";
note = uni1513;
unicode = 5395;
},
{
glyphname = "sha-canadian";
lastChange = "2023-01-13 15:28:19 +0000";
layers = (
{
anchors = (
{
name = top_center_can;
pos = (457,526);
},
{
name = top_left_can;
pos = (314,526);
},
{
name = top_right_can;
pos = (599,526);
}
);
layerId = "ABE41ABD-D787-4F86-A3B4-502CADE9F2A5";
shapes = (
{
closed = 1;
nodes = (
(605,-19,o),
(746,65,o),
(746,228,cs),
(746,326,o),
(681,396,o),
(575,396,cs),
(429,396,o),
(330,242,o),
(249,242,cs),
(216,242,o),
(197,262,o),
(197,293,cs),
(197,364,o),
(265,394,o),
(345,394,c),
(373,521,l),
(192,525,o),
(50,441,o),
(50,278,cs),
(50,180,o),
(116,111,o),
(222,111,cs),
(367,111,o),
(467,264,o),
(547,264,cs),
(580,264,o),
(600,245,o),
(600,214,cs),
(600,143,o),
(532,112,o),
(451,112,c),
(424,-14,l)
);
}
);
width = 796;
}
);
metricLeft = "ke-canadian";
metricRight = "=|ke-canadian";
note = uni1515;
unicode = 5397;
},
{
glyphname = "sh-canadian";
kernLeft = mwestleft;
kernRight = mwestright;
lastChange = "2023-01-13 15:31:51 +0000";
layers = (
{
layerId = "ABE41ABD-D787-4F86-A3B4-502CADE9F2A5";
shapes = (
{
closed = 1;
nodes = (
(509,290,o),
(617,353,o),
(617,480,cs),
(617,554,o),
(565,608,o),
(482,608,cs),
(385,608,o),
(313,508,o),
(251,508,cs),
(223,508,o),
(207,524,o),
(207,549,cs),
(207,601,o),
(256,636,o),
(336,633,c),
(356,723,l),
(215,729,o),
(106,666,o),
(106,540,cs),
(106,465,o),
(158,411,o),
(241,411,cs),
(338,411,o),
(410,511,o),
(472,511,cs),
(500,511,o),
(516,495,o),
(516,470,cs),
(516,419,o),
(468,382,o),
(388,386,c),
(368,295,l)
);
}
);
width = 613;
}
);
metricLeft = "t-canadian";
metricRight = "=|";
note = uni1525;
unicode = 5413;
},
{
glyphname = "ye-canadian";
kernLeft = yeleft;
lastChange = "2023-01-13 15:28:19 +0000";
layers = (
{
anchors = (
{
name = middle_right_can;
pos = (601,357);
},
{
name = top_left_can;
pos = (198,714);
},
{
name = top_right_can;
pos = (482,714);
}
);
layerId = "ABE41ABD-D787-4F86-A3B4-502CADE9F2A5";
shapes = (
{
closed = 1;
nodes = (
(404,0,l),
(480,357,l),
(238,357,l),
(246,311,l),
(551,637,l),
(451,726,l),
(30,267,l),
(22,229,l),
(305,229,l),
(257,0,l)
);
}
);
width = 510;
}
);
note = uni1526;
unicode = 5414;
},
{
glyphname = "yi-canadian";
kernRight = yiright;
lastChange = "2023-01-13 15:28:19 +0000";
layers = (
{
anchors = (
{
name = top_left_can;
pos = (225,714);
},
{
name = top_right_can;
pos = (509,714);
}
);
layerId = "ABE41ABD-D787-4F86-A3B4-502CADE9F2A5";
shapes = (
{
closed = 1;
nodes = (
(146,0,l),
(194,229,l),
(477,229,l),
(486,267,l),
(234,726,l),
(117,660,l),
(310,316,l),
(317,357,l),
(74,357,l),
(-2,0,l)
);
}
);
width = 510;
}
);
metricRight = "=|ye-canadian";
metricWidth = "ye-canadian";
note = uni1528;
unicode = 5416;
},
{
glyphname = "yo-canadian";
kernLeft = yoleft;
lastChange = "2023-01-13 15:28:19 +0000";
layers = (
{
anchors = (
{
name = middle_right_can;
pos = (601,357);
},
{
name = top_double;
pos = (482,714);
},
{
name = top_left_can;
pos = (198,714);
},
{
name = top_right_can;
pos = (482,714);
}
);
layerId = "ABE41ABD-D787-4F86-A3B4-502CADE9F2A5";
shapes = (
{
closed = 1;
nodes = (
(437,54,l),
(244,398,l),
(237,357,l),
(480,357,l),
(555,714,l),
(408,714,l),
(359,485,l),
(77,485,l),
(68,447,l),
(320,-12,l)
);
}
);
width = 510;
}
);
metricLeft = "ye-canadian";
metricWidth = "ye-canadian";
note = uni152A;
unicode = 5418;
},
{
glyphname = "ya-canadian";
kernRight = yaright;
lastChange = "2023-01-13 15:28:19 +0000";
layers = (
{
anchors = (
{
name = top_left_can;
pos = (224,714);
},
{
name = top_right_can;
pos = (507,714);
}
);
layerId = "ABE41ABD-D787-4F86-A3B4-502CADE9F2A5";
shapes = (
{
closed = 1;
nodes = (
(524,447,l),
(532,485,l),
(249,485,l),
(297,714,l),
(150,714,l),
(74,357,l),
(316,357,l),
(308,403,l),
(4,77,l),
(103,-12,l)
);
}
);
width = 510;
}
);
metricRight = "=|ye-canadian";
metricWidth = "ye-canadian";
note = uni152D;
unicode = 5421;
},
{
glyphname = "y-canadian";
kernLeft = mwestleft;
kernRight = mwestright;
lastChange = "2023-01-13 15:28:19 +0000";
layers = (
{
layerId = "ABE41ABD-D787-4F86-A3B4-502CADE9F2A5";
shapes = (
{
closed = 1;
nodes = (
(348,573,l),
(354,600,l),
(221,600,l),
(245,714,l),
(147.994,714,l),
(106,519,l),
(233,519,l),
(234,577,l),
(78,405,l),
(144,348,l)
);
}
);
width = 302;
}
);
note = uni153E;
unicode = 5438;
},
{
glyphname = "biblecreey-canadian";
lastChange = "2023-01-13 15:28:19 +0000";
layers = (
{
layerId = "ABE41ABD-D787-4F86-A3B4-502CADE9F2A5";
shapes = (
{
closed = 1;
nodes = (
(150,357,l),
(253,613,l),
(200,613,l),
(228,357,l),
(286,357,l),
(424,613,l),
(367,613,l),
(364,357,l),
(451,357,l),
(456,380,l),
(458,714,l),
(387,714,l),
(240,440,l),
(300,440,l),
(273,714,l),
(202,714,l),
(62,380,l),
(57,357,l)
);
}
);
width = 464;
}
);
metricRight = "=|";
note = uni153F;
unicode = 5439;
},
{
glyphname = "yWestCree-canadian";
lastChange = "2023-01-13 15:31:51 +0000";
layers = (
{
layerId = "ABE41ABD-D787-4F86-A3B4-502CADE9F2A5";
shapes = (
{
closed = 1;
nodes = (
(227,214,l),
(250,322,l),
(348,322,l),
(368,415,l),
(270,415,l),
(293,521,l),
(200,521,l),
(178,415,l),
(80,415,l),
(60,322,l),
(158,322,l),
(135,214,l)
);
}
);
width = 379;
}
);
metricLeft = "shorthorizontalstrokeFinal-canadian";
metricRight = "shorthorizontalstrokeFinal-canadian";
note = uni1540;
unicode = 5440;
},
{
glyphname = "re-canadian";
kernRight = niright;
lastChange = "2023-01-13 15:28:19 +0000";
layers = (
{
anchors = (
{
name = top_center_can;
pos = (329,526);
},
{
name = top_left_can;
pos = (182,526);
},
{
name = top_right_can;
pos = (691,526);
}
);
layerId = "ABE41ABD-D787-4F86-A3B4-502CADE9F2A5";
shapes = (
{
closed = 1;
nodes = (
(370,-14,o),
(448,59,o),
(482,216,cs),
(515,374,l),
(732,374,l),
(760,506,l),
(400,506,l),
(337,209,ls),
(323,142,o),
(296,114,o),
(251,114,cs),
(198,114,o),
(176,149,o),
(191,219,cs),
(252,506,l),
(105,506,l),
(49,242,ls),
(15,87,o),
(91,-14,o),
(243,-14,cs)
);
}
);
width = 744;
}
);
metricRight = "=|ne-canadian";
note = uni1542;
unicode = 5442;
},
{
glyphname = "reRCree-canadian";
kernLeft = neleft;
lastChange = "2023-01-13 15:28:19 +0000";
layers = (
{
anchors = (
{
name = top_center_can;
pos = (530,526);
},
{
name = top_left_can;
pos = (169,526);
},
{
name = top_right_can;
pos = (678,526);
}
);
layerId = "ABE41ABD-D787-4F86-A3B4-502CADE9F2A5";
shapes = (
{
closed = 1;
nodes = (
(573,-14,o),
(652,59,o),
(685,216,cs),
(747,506,l),
(600,506,l),
(537,209,ls),
(522,142,o),
(495,114,o),
(450,114,cs),
(398,114,o),
(376,149,o),
(391,219,cs),
(452,506,l),
(92,506,l),
(64,374,l),
(280,374,l),
(252,242,ls),
(219,87,o),
(295,-14,o),
(446,-14,cs)
);
}
);
width = 744;
}
);
metricLeft = "ne-canadian";
metricRight = "=|re-canadian";
note = uni1543;
unicode = 5443;
},
{
glyphname = "leWestCree-canadian";
kernLeft = noleft;
lastChange = "2023-01-13 15:31:51 +0000";
layers = (
{
anchors = (
{
name = top_center_can;
pos = (531,526);
},
{
name = top_left_can;
pos = (169,526);
},
{
name = top_right_can;
pos = (678,526);
}
);
layerId = "ABE41ABD-D787-4F86-A3B4-502CADE9F2A5";
shapes = (
{
closed = 1;
nodes = (
(344,0,l),
(408,297,ls),
(422,364,o),
(449,392,o),
(494,392,cs),
(546,392,o),
(568,358,o),
(553,288,cs),
(492,0,l),
(640,0,l),
(696,264,ls),
(729,420,o),
(653,521,o),
(502,521,cs),
(375,521,o),
(296,447,o),
(263,290,cs),
(229,133,l),
(12,133,l),
(-16,0,l)
);
}
);
width = 745;
}
);
metricLeft = "ne-canadian";
metricRight = "=|re-canadian";
note = uni1544;
unicode = 5444;
},
{
glyphname = "ri-canadian";
kernRight = naright;
lastChange = "2023-01-13 15:28:19 +0000";
layers = (
{
anchors = (
{
name = top_center_can;
pos = (330,526);
},
{
name = top_left_can;
pos = (183,526);
},
{
name = top_right_can;
pos = (691,526);
}
);
layerId = "ABE41ABD-D787-4F86-A3B4-502CADE9F2A5";
shapes = (
{
closed = 1;
nodes = (
(145,0,l),
(208,297,ls),
(222,364,o),
(249,392,o),
(295,392,cs),
(346,392,o),
(368,357,o),
(354,288,cs),
(292,0,l),
(652,0,l),
(680,133,l),
(464,133,l),
(492,264,ls),
(526,419,o),
(450,521,o),
(305,521,cs),
(171,521,o),
(93,447,o),
(59,290,cs),
(-3,0,l)
);
}
);
width = 744;
}
);
metricLeft = "re-canadian";
metricRight = "=|ne-canadian";
note = uni1546;
unicode = 5446;
},
{
glyphname = "ro-canadian";
lastChange = "2023-01-13 15:28:19 +0000";
layers = (
{
anchors = (
{
name = top_center_can;
pos = (315,714);
}
);
layerId = "ABE41ABD-D787-4F86-A3B4-502CADE9F2A5";
shapes = (
{
closed = 1;
nodes = (
(147,0,l),
(209,294,l),
(139,229,l),
(217,229,ls),
(431,229,o),
(501,377,o),
(501,511,cs),
(501,635,o),
(419,714,o),
(284,714,cs),
(151,714,l),
(123,583,l),
(257,583,ls),
(321,583,o),
(354,552,o),
(354,496,cs),
(354,417,o),
(312,358,o),
(211,358,cs),
(76,358,l),
(0,0,l)
);
}
);
width = 490;
}
);
metricLeft = "nunavuth-canadian";
note = uni1548;
unicode = 5448;
},
{
glyphname = "loWestCree-canadian";
lastChange = "2023-01-13 15:31:51 +0000";
layers = (
{
anchors = (
{
name = top_center_can;
pos = (315,714);
},
{
name = top_left_can;
pos = (225,714);
}
);
layerId = "ABE41ABD-D787-4F86-A3B4-502CADE9F2A5";
shapes = (
{
closed = 1;
nodes = (
(169,0,ls),
(382,0,o),
(453,148,o),
(453,282,cs),
(453,406,o),
(371,485,o),
(235,485,cs),
(185,485,l),
(236,419,l),
(298,714,l),
(151,714,l),
(75,357,l),
(210,357,ls),
(274,357,o),
(307,326,o),
(307,271,cs),
(307,191,o),
(264,132,o),
(163,132,cs),
(27,132,l),
(-1,0,l)
);
}
);
width = 491;
}
);
metricLeft = "nunavuth-canadian";
metricRight = "ro-canadian";
note = uni154A;
unicode = 5450;
},
{
glyphname = "ra-canadian";
lastChange = "2023-01-13 15:28:19 +0000";
layers = (
{
anchors = (
{
name = top_center_can;
pos = (370,714);
},
{
name = top_right_can;
pos = (460,714);
}
);
layerId = "ABE41ABD-D787-4F86-A3B4-502CADE9F2A5";
shapes = (
{
closed = 1;
nodes = (
(383,0,l),
(458,357,l),
(325,357,ls),
(261,357,o),
(227,388,o),
(227,443,cs),
(227,523,o),
(271,582,o),
(371,582,cs),
(506,582,l),
(534,714,l),
(365,714,ls),
(152,714,o),
(82,566,o),
(82,432,cs),
(82,308,o),
(163,229,o),
(299,229,cs),
(349,229,l),
(298,295,l),
(235,0,l)
);
}
);
width = 490;
}
);
metricLeft = "=|ro-canadian";
metricRight = "nunavuth-canadian";
note = uni154B;
unicode = 5451;
},
{
glyphname = "laWestCree-canadian";
lastChange = "2023-01-13 15:31:51 +0000";
layers = (
{
anchors = (
{
name = top_center_can;
pos = (462,714);
}
);
layerId = "ABE41ABD-D787-4F86-A3B4-502CADE9F2A5";
shapes = (
{
closed = 1;
nodes = (
(384,0,l),
(412,131,l),
(278,131,ls),
(214,131,o),
(181,162,o),
(181,218,cs),
(181,297,o),
(223,356,o),
(324,356,cs),
(460,356,l),
(536,714,l),
(388,714,l),
(326,420,l),
(396,485,l),
(318,485,ls),
(105,485,o),
(34,337,o),
(34,203,cs),
(34,79,o),
(116,0,o),
(252,0,cs)
);
}
);
width = 491;
}
);
metricLeft = "=|ro-canadian";
metricRight = "nunavuth-canadian";
note = uni154D;
unicode = 5453;
},
{
glyphname = "r-canadian";
kernLeft = mwestleft;
kernRight = mwestright;
lastChange = "2023-01-13 15:28:19 +0000";
layers = (
{
layerId = "ABE41ABD-D787-4F86-A3B4-502CADE9F2A5";
shapes = (
{
closed = 1;
nodes = (
(264,357,l),
(304,545,l),
(243,545,ls),
(214,545,o),
(200,558,o),
(200,580,cs),
(200,613,o),
(219,635,o),
(261,635,cs),
(323,635,l),
(340,714,l),
(276,714,ls),
(175,714,o),
(107,667,o),
(107,575,cs),
(107,513,o),
(151,468,o),
(223,468,cs),
(246,468,l),
(195,491,l),
(166,357,l)
);
}
);
width = 287;
}
);
metricLeft = "=|k-canadian";
note = uni1550;
unicode = 5456;
},
{
glyphname = "rWestCree-canadian";
kernLeft = mwestleft;
kernRight = mwestright;
lastChange = "2023-01-13 15:28:19 +0000";
layers = (
{
layerId = "ABE41ABD-D787-4F86-A3B4-502CADE9F2A5";
shapes = (
{
closed = 1;
nodes = (
(143,714,l),
(131,654,l),
(254,586,l),
(265,637,l),
(111,563,l),
(102,519,l),
(226,453,l),
(236,499,l),
(83,430,l),
(67,357,l),
(83,357,l),
(296,452,l),
(303,484,l),
(175,554,l),
(167,518,l),
(325,588,l),
(332,620,l),
(159,714,l)
);
}
);
width = 299;
}
);
metricLeft = "=|lWestCree-canadian";
metricRight = "=|lWestCree-canadian";
note = uni1551;
unicode = 5457;
},
{
glyphname = "rMedial-canadian";
lastChange = "2023-01-13 15:31:51 +0000";
layers = (
{
layerId = "ABE41ABD-D787-4F86-A3B4-502CADE9F2A5";
shapes = (
{
closed = 1;
nodes = (
(27,-14,l),
(470,183,l),
(482,236,l),
(209,385,l),
(198,332,l),
(533,478,l),
(544,531,l),
(184,728,l),
(150,728,l),
(128,628,l),
(400,479,l),
(415,552,l),
(79,397,l),
(66,337,l),
(339,196,l),
(355,257,l),
(18,107,l),
(-8,-14,l)
);
}
);
width = 534;
}
);
metricLeft = "mediall-canadian";
metricRight = "mediall-canadian";
note = uni1552;
unicode = 5458;
},
{
glyphname = "fe-canadian";
kernLeft = ecanleft;
kernRight = ecanright;
lastChange = "2023-01-13 15:28:19 +0000";
layers = (
{
layerId = "ABE41ABD-D787-4F86-A3B4-502CADE9F2A5";
shapes = (
{
closed = 1;
nodes = (
(300,0,l),
(763,678,l),
(771,714,l),
(648,714,l),
(290,169,l),
(317,169,l),
(268,363,l),
(185,364,l),
(203,343,o),
(230,331,o),
(266,331,cs),
(391,331,o),
(455,477,o),
(455,576,cs),
(455,667,o),
(405,728,o),
(315,728,cs),
(182,728,o),
(124,587,o),
(124,479,cs),
(124,443,o),
(130,408,o),
(144,367,cs),
(258,0,l)
);
},
{
closed = 1;
nodes = (
(248,423,o),
(235,443,o),
(235,478,cs),
(235,519,o),
(256,625,o),
(307,625,cs),
(331,625,o),
(344,605,o),
(344,571,cs),
(344,529,o),
(324,423,o),
(273,423,cs)
);
}
);
width = 692;
}
);
metricRight = "e-canadian";
note = uni1553;
unicode = 5459;
},
{
glyphname = "fi-canadian";
kernLeft = icanleft;
kernRight = icanright;
lastChange = "2023-01-13 15:28:19 +0000";
layers = (
{
anchors = (
{
name = top_center_can;
pos = (425,714);
},
{
name = top_left_can;
pos = (222,714);
},
{
name = top_right_can;
pos = (644,714);
}
);
layerId = "ABE41ABD-D787-4F86-A3B4-502CADE9F2A5";
shapes = (
{
closed = 1;
nodes = (
(331,-14,o),
(382,128,o),
(382,225,cs),
(382,322,o),
(330,387,o),
(258,387,cs),
(233,387,o),
(203,375,o),
(177,354,c),
(273,354,l),
(411,545,l),
(377,545,l),
(516,0,l),
(619,0,l),
(626,36,l),
(446,714,l),
(403,714,l),
(138,363,ls),
(85,292,o),
(51,221,o),
(51,139,cs),
(51,48,o),
(103,-14,o),
(192,-14,cs)
);
},
{
closed = 1;
nodes = (
(175,89,o),
(162,109,o),
(162,144,cs),
(162,185,o),
(183,291,o),
(234,291,cs),
(258,291,o),
(271,271,o),
(271,236,cs),
(271,193,o),
(250,89,o),
(200,89,cs)
);
}
);
width = 692;
}
);
metricLeft = "fe-canadian";
metricRight = "e-canadian";
note = uni1555;
unicode = 5461;
},
{
glyphname = "fo-canadian";
kernLeft = ocanleft;
kernRight = ocanright;
lastChange = "2023-01-13 15:28:19 +0000";
layers = (
{
anchors = (
{
name = top_center_can;
pos = (299,714);
}
);
layerId = "ABE41ABD-D787-4F86-A3B4-502CADE9F2A5";
shapes = (
{
closed = 1;
nodes = (
(48,0,l),
(582,334,l),
(592,380,l),
(407,653,ls),
(374,703,o),
(338,728,o),
(283,728,cs),
(178,728,o),
(111,628,o),
(96,520,cs),
(78,403,o),
(132,322,o),
(226,322,cs),
(324,322,o),
(393,419,o),
(407,524,cs),
(411,554,o),
(413,585,o),
(411,610,c),
(351,532,l),
(469,360,l),
(481,405,l),
(42,130,l),
(13,0,l)
);
},
{
closed = 1;
nodes = (
(212,424,o),
(201,456,o),
(209,514,cs),
(216,569,o),
(235,628,o),
(276,628,cs),
(305,628,o),
(316,596,o),
(308,538,cs),
(301,483,o),
(282,424,o),
(241,424,cs)
);
}
);
width = 592;
}
);
metricRight = "o-canadian";
note = uni1557;
unicode = 5463;
},
{
glyphname = "fa-canadian";
kernLeft = acanleft;
kernRight = acanright;
lastChange = "2023-01-13 15:31:51 +0000";
layers = (
{
anchors = (
{
name = top_center_can;
pos = (491,714);
}
);
layerId = "ABE41ABD-D787-4F86-A3B4-502CADE9F2A5";
shapes = (
{
closed = 1;
nodes = (
(471,0,l),
(494,111,l),
(184,375,l),
(178,347,l),
(363,522,l),
(337,635,l),
(310,587,o),
(291,522,o),
(291,472,cs),
(291,381,o),
(344,319,o),
(433,319,cs),
(556,319,o),
(616,470,o),
(616,570,cs),
(616,666,o),
(564,728,o),
(479,728,cs),
(431,728,o),
(389,709,o),
(347,666,cs),
(54,380,l),
(44,334,l),
(436,0,l)
);
},
{
closed = 1;
nodes = (
(410,422,o),
(397,442,o),
(397,476,cs),
(397,518,o),
(418,624,o),
(469,624,cs),
(493,624,o),
(506,605,o),
(506,571,cs),
(506,529,o),
(486,422,o),
(434,422,cs)
);
}
);
width = 593;
}
);
metricRight = "=|fo-canadian";
note = uni1559;
unicode = 5465;
},
{
glyphname = "f-canadian";
kernLeft = mwestleft;
kernRight = mwestright;
lastChange = "2023-01-13 15:28:19 +0000";
layers = (
{
layerId = "ABE41ABD-D787-4F86-A3B4-502CADE9F2A5";
shapes = (
{
closed = 1;
nodes = (
(307,357,l),
(319,420,l),
(166,550,l),
(164,530,l),
(254,620,l),
(244,674,l),
(231,652,o),
(218,614,o),
(218,588,cs),
(218,545,o),
(245,514,o),
(286,514,cs),
(344,514,o),
(379,580,o),
(379,645,cs),
(379,692,o),
(354.992,720,o),
(314,720,cs),
(289,720,o),
(267,710,o),
(243,687,cs),
(97,545,l),
(93,522,l),
(290,357,l)
);
},
{
closed = 1;
nodes = (
(276,566,o),
(270,575,o),
(270,591,cs),
(270,613,o),
(282,668,o),
(306,668,cs),
(318,668,o),
(324,659,o),
(324,642,cs),
(324,621,o),
(313,566,o),
(288,566,cs)
);
}
);
width = 339;
}
);
note = uni155D;
unicode = 5469;
},
{
glyphname = "the-canadian";
lastChange = "2023-01-13 15:28:19 +0000";
layers = (
{
anchors = (
{
name = middle_right_can;
pos = (746,357);
},
{
name = top_center_can;
pos = (423,714);
},
{
name = top_left_can;
pos = (220,714);
},
{
name = top_right_can;
pos = (624,714);
}
);
layerId = "ABE41ABD-D787-4F86-A3B4-502CADE9F2A5";
shapes = (
{
closed = 1;
nodes = (
(465,-14,o),
(559,69,o),
(598,250,cs),
(697,714,l),
(549,714,l),
(453,261,ls),
(432,164,o),
(388,120,o),
(307,120,cs),
(203,120,o),
(180,187,o),
(204,292,cs),
(234,420,l),
(160,379,l),
(173,345,o),
(203,316,o),
(242,316,cs),
(356,316,o),
(418,414,o),
(436,532,cs),
(455,652,o),
(403,728,o),
(298,728,cs),
(198,728,o),
(136,657,o),
(106,516,cs),
(63,311,ls),
(22,115,o),
(99,-14,o),
(300,-14,cs)
);
},
{
closed = 1;
nodes = (
(231,421,o),
(218,441,o),
(218,476,cs),
(218,517,o),
(239,625,o),
(290,625,cs),
(314,625,o),
(326,605,o),
(326,570,cs),
(326,528,o),
(306,421,o),
(255,421,cs)
);
}
);
width = 649;
}
);
metricLeft = "te-canadian";
metricRight = "te-canadian";
note = uni155E;
unicode = 5470;
},
{
glyphname = "theNCree-canadian";
lastChange = "2023-01-13 15:28:19 +0000";
layers = (
{
layerId = "ABE41ABD-D787-4F86-A3B4-502CADE9F2A5";
shapes = (
{
closed = 1;
nodes = (
(468,-14,o),
(559,74,o),
(602,270,cs),
(650,495,ls),
(683,648,o),
(620,728,o),
(521,728,cs),
(388,728,o),
(330,586,o),
(330,478,cs),
(330,387,o),
(375,316,o),
(462,316,cs),
(497,316,o),
(532,333,o),
(554,361,c),
(487,414,l),
(457,270,ls),
(433,161,o),
(390,117,o),
(309,117,cs),
(214,117,o),
(182,177,o),
(203,279,cs),
(296,714,l),
(148,714,l),
(59,292,ls),
(18,102,o),
(111,-14,o),
(298,-14,cs)
);
},
{
closed = 1;
nodes = (
(454,421,o),
(442,441,o),
(442,476,cs),
(442,517,o),
(462,625,o),
(513,625,cs),
(536,625,o),
(549,605,o),
(549,570,cs),
(549,528,o),
(529,421,o),
(478,421,cs)
);
}
);
width = 649;
}
);
metricLeft = "te-canadian";
metricRight = "te-canadian";
note = uni155F;
unicode = 5471;
},
{
glyphname = "thi-canadian";
lastChange = "2023-01-13 15:28:19 +0000";
layers = (
{
anchors = (
{
name = top_center_can;
pos = (419,714);
}
);
layerId = "ABE41ABD-D787-4F86-A3B4-502CADE9F2A5";
shapes = (
{
closed = 1;
nodes = (
(305,-14,o),
(363,128,o),
(363,236,cs),
(363,327,o),
(318,398,o),
(231,398,cs),
(196,398,o),
(161,381,o),
(139,353,c),
(206,300,l),
(236,444,ls),
(259,553,o),
(303,597,o),
(384,597,cs),
(479,597,o),
(511,537,o),
(490,435,cs),
(397,0,l),
(545,0,l),
(634,422,ls),
(675,612,o),
(582,728,o),
(395,728,cs),
(225,728,o),
(133,640,o),
(91,444,cs),
(43,219,ls),
(10,66,o),
(73,-14,o),
(172,-14,cs)
);
},
{
closed = 1;
nodes = (
(156,89,o),
(144,109,o),
(144,144,cs),
(144,186,o),
(164,293,o),
(215,293,cs),
(239,293,o),
(251,273,o),
(251,238,cs),
(251,197,o),
(231,89,o),
(180,89,cs)
);
}
);
width = 649;
}
);
metricLeft = "te-canadian";
metricRight = "te-canadian";
note = uni1560;
unicode = 5472;
},
{
glyphname = "thiNCree-canadian";
lastChange = "2023-01-13 15:28:19 +0000";
layers = (
{
anchors = (
{
name = top_center_can;
pos = (419,714);
}
);
layerId = "ABE41ABD-D787-4F86-A3B4-502CADE9F2A5";
shapes = (
{
closed = 1;
nodes = (
(495,-14,o),
(557,57,o),
(587,198,cs),
(630,403,ls),
(671,599,o),
(594,728,o),
(393,728,cs),
(228,728,o),
(134,645,o),
(95,464,cs),
(-4,0,l),
(144,0,l),
(240,453,ls),
(261,550,o),
(305,594,o),
(386,594,cs),
(490,594,o),
(513,527,o),
(489,422,cs),
(459,294,l),
(533,335,l),
(520,369,o),
(490,398,o),
(451,398,cs),
(337,398,o),
(275,300,o),
(257,182,cs),
(238,62,o),
(290,-14,o),
(395,-14,cs)
);
},
{
closed = 1;
nodes = (
(379,89,o),
(366,109,o),
(366,144,cs),
(366,186,o),
(387,293,o),
(438,293,cs),
(462,293,o),
(475,273,o),
(475,238,cs),
(475,197,o),
(454,89,o),
(403,89,cs)
);
}
);
width = 649;
}
);
metricLeft = "te-canadian";
metricRight = "te-canadian";
note = uni1561;
unicode = 5473;
},
{
glyphname = "tho-canadian";
lastChange = "2023-01-13 15:28:19 +0000";
layers = (
{
anchors = (
{
name = top_center_can;
pos = (365,714);
}
);
layerId = "ABE41ABD-D787-4F86-A3B4-502CADE9F2A5";
shapes = (
{
closed = 1;
nodes = (
(197,0,ls),
(489,0,o),
(578,260,o),
(578,444,cs),
(578,616,o),
(487,728,o),
(341,728,cs),
(178,728,o),
(90,588,o),
(90,446,cs),
(90,351,o),
(140,289,o),
(225,289,cs),
(354,289,o),
(407,433,o),
(407,531,cs),
(407,605,o),
(374,657,o),
(316,667,c),
(285,628,l),
(294,633,o),
(308,637,o),
(324,637,cs),
(393,636,o),
(439,568,o),
(439,459,cs),
(439,345,o),
(402,134,o),
(204,134,cs),
(47,134,l),
(19,0,l)
);
},
{
closed = 1;
nodes = (
(216,392,o),
(204,410,o),
(204,444,cs),
(204,482,o),
(227,611,o),
(281,611,cs),
(304,611,o),
(316,593,o),
(316,559,cs),
(316,522,o),
(293,392,o),
(239,392,cs)
);
}
);
width = 594;
}
);
metricRight = "to-canadian";
note = uni1564;
unicode = 5476;
},
{
glyphname = "tha-canadian";
lastChange = "2023-01-13 15:31:51 +0000";
layers = (
{
anchors = (
{
name = top_center_can;
pos = (433,714);
}
);
layerId = "ABE41ABD-D787-4F86-A3B4-502CADE9F2A5";
shapes = (
{
closed = 1;
nodes = (
(467,0,l),
(496,134,l),
(356,134,ls),
(255,134,o),
(203,186,o),
(203,288,cs),
(203,394,o),
(271,636,o),
(413,636,cs),
(434,636,o),
(454,630,o),
(470,618,c),
(448,664,l),
(332,667,o),
(283,522,o),
(283,433,cs),
(283,344,o),
(330,289,o),
(413,289,cs),
(530,289,o),
(606,406,o),
(606,534,cs),
(606,654,o),
(531,728,o),
(410,728,cs),
(171,728,o),
(59,453,o),
(59,274,cs),
(59,107,o),
(161,0,o),
(328,0,cs)
);
},
{
closed = 1;
nodes = (
(394,392,o),
(382,410,o),
(382,444,cs),
(382,482,o),
(405,611,o),
(460,611,cs),
(483,611,o),
(495,593,o),
(495,559,cs),
(495,522,o),
(472,392,o),
(418,392,cs)
);
}
);
width = 594;
}
);
metricLeft = "=|theCarrier-canadian";
metricRight = "=|tho-canadian";
note = uni1566;
unicode = 5478;
},
{
glyphname = "th-canadian";
kernLeft = mwestleft;
kernRight = mwestright;
lastChange = "2023-01-13 15:28:19 +0000";
layers = (
{
layerId = "ABE41ABD-D787-4F86-A3B4-502CADE9F2A5";
shapes = (
{
closed = 1;
nodes = (
(300,357,l),
(317,438,l),
(253,438,ls),
(206,438,o),
(182,462,o),
(182,508,cs),
(182,560,o),
(214,662,o),
(285,662,cs),
(293,662,o),
(301,660,o),
(307,658,c),
(289,681,l),
(236,681,o),
(211,607,o),
(211,571,cs),
(211,527,o),
(236,497,o),
(276,497,cs),
(342,497,o),
(370,577,o),
(370,625,cs),
(370,683,o),
(334,720,o),
(273,720,cs),
(153.008,720,o),
(98,586,o),
(98,500,cs),
(98,413,o),
(151,357,o),
(238,357,cs)
);
},
{
closed = 1;
nodes = (
(264,548,o),
(258,556,o),
(258,572,cs),
(258,595,o),
(269,650,o),
(295,650,cs),
(307,650,o),
(313,642,o),
(313,626,cs),
(313,604,o),
(302,548,o),
(276,548,cs)
);
}
);
width = 334;
}
);
metricLeft = "t-canadian";
note = uni156A;
unicode = 5482;
},
{
glyphname = "tthe-canadian";
lastChange = "2023-01-13 15:28:19 +0000";
layers = (
{
anchors = (
{
name = middle_right_can;
pos = (738,357);
},
{
name = top_center_can;
pos = (418,714);
},
{
name = top_left_can;
pos = (222,714);
},
{
name = top_right_can;
pos = (615,714);
}
);
layerId = "ABE41ABD-D787-4F86-A3B4-502CADE9F2A5";
shapes = (
{
closed = 1;
nodes = (
(458,-14,o),
(552,73,o),
(590,250,cs),
(688,714,l),
(551,714,l),
(454,262,ls),
(433,163,o),
(388,121,o),
(306,121,cs),
(209,121,o),
(171,174,o),
(193,278,cs),
(286,714,l),
(148,714,l),
(59,292,ls),
(18,101,o),
(111,-14,o),
(295,-14,cs)
);
},
{
closed = 1;
nodes = (
(405,395,l),
(473,714,l),
(363,714,l),
(295,395,l)
);
}
);
width = 641;
}
);
metricLeft = "te-canadian";
metricRight = "te-canadian";
note = uni156B;
unicode = 5483;
},
{
glyphname = "tthi-canadian";
lastChange = "2023-01-13 15:31:51 +0000";
layers = (
{
layerId = "ABE41ABD-D787-4F86-A3B4-502CADE9F2A5";
shapes = (
{
closed = 1;
nodes = (
(134,0,l),
(230,452,ls),
(251,551,o),
(297,593,o),
(378,593,cs),
(475,593,o),
(514,540,o),
(492,436,cs),
(399,0,l),
(536,0,l),
(626,422,ls),
(667,613,o),
(573,728,o),
(390,728,cs),
(227,728,o),
(133,641,o),
(95,464,cs),
(-4,0,l)
);
},
{
closed = 1;
nodes = (
(322,0,l),
(390,319,l),
(279,319,l),
(211,0,l)
);
}
);
width = 640;
}
);
metricLeft = "te-canadian";
metricRight = "te-canadian";
note = uni156C;
unicode = 5484;
},
{
glyphname = "ttho-canadian";
lastChange = "2023-01-13 15:28:19 +0000";
layers = (
{
anchors = (
{
name = top_center_can;
pos = (354,714);
},
{
name = top_left_can;
pos = (210,714);
},
{
name = top_right_can;
pos = (540,714);
}
);
layerId = "ABE41ABD-D787-4F86-A3B4-502CADE9F2A5";
shapes = (
{
closed = 1;
nodes = (
(134,0,ls),
(464,0,o),
(535,274,o),
(535,435,cs),
(535,609,o),
(430,714,o),
(244,714,cs),
(148,714,l),
(120,580,l),
(218,580,ls),
(330,580,o),
(387,526,o),
(387,423,cs),
(387,320,o),
(344,134,o),
(141,134,cs),
(25,134,l),
(-3,0,l)
);
},
{
closed = 1;
nodes = (
(257,297,l),
(283,419,l),
(85,419,l),
(60,297,l)
);
}
);
width = 552;
}
);
metricRight = "to-canadian";
note = uni156D;
unicode = 5485;
},
{
glyphname = "ttha-canadian";
lastChange = "2023-01-13 15:28:19 +0000";
layers = (
{
anchors = (
{
name = top_center_can;
pos = (369,714);
},
{
name = top_left_can;
pos = (213,714);
},
{
name = top_right_can;
pos = (525,714);
}
);
layerId = "ABE41ABD-D787-4F86-A3B4-502CADE9F2A5";
shapes = (
{
closed = 1;
nodes = (
(448,0,l),
(476,134,l),
(377,134,ls),
(265,134,o),
(209,188,o),
(209,291,cs),
(209,407,o),
(264,580,o),
(454,580,cs),
(571,580,l),
(599,714,l),
(461,714,ls),
(143,714,o),
(61,451,o),
(61,279,cs),
(61,105,o),
(165,0,o),
(351,0,cs)
);
},
{
closed = 1;
nodes = (
(509,297,l),
(535,419,l),
(337,419,l),
(311,297,l)
);
}
);
width = 552;
}
);
metricLeft = "=|to-canadian";
metricRight = "=|ttho-canadian";
note = uni156E;
unicode = 5486;
},
{
glyphname = "tth-canadian";
lastChange = "2023-01-13 15:28:19 +0000";
layers = (
{
layerId = "ABE41ABD-D787-4F86-A3B4-502CADE9F2A5";
shapes = (
{
closed = 1;
nodes = (
(265,496,l),
(227,496,l),
(287,373,l),
(362,410,l),
(299,540,l),
(279,503,l),
(421,557,l),
(395,630,l),
(266,580,l),
(296,560,l),
(328,714,l),
(245,714,l),
(212,560,l),
(248,580,l),
(128,630,l),
(96,556,l),
(208,510,l),
(204,546,l),
(96,426,l),
(155,373,l)
);
},
{
closed = 1;
nodes = (
(633,496,l),
(595,496,l),
(655,373,l),
(730,410,l),
(667,540,l),
(647,503,l),
(789,557,l),
(763,630,l),
(634,580,l),
(663,560,l),
(696,714,l),
(613,714,l),
(580,560,l),
(615,580,l),
(496,630,l),
(464,556,l),
(575,510,l),
(572,546,l),
(464,426,l),
(522,373,l)
);
}
);
width = 756;
}
);
metricRight = "=|";
note = uni156F;
unicode = 5487;
},
{
glyphname = "tye-canadian";
lastChange = "2023-01-13 15:31:51 +0000";
layers = (
{
layerId = "ABE41ABD-D787-4F86-A3B4-502CADE9F2A5";
shapes = (
{
closed = 1;
nodes = (
(458,-14,o),
(552,73,o),
(590,251,cs),
(688,714,l),
(551,714,l),
(456,265,ls),
(434,164,o),
(388,121,o),
(305,121,cs),
(209,121,o),
(171,174,o),
(193,278,cs),
(286,714,l),
(148,714,l),
(59,292,ls),
(18,101,o),
(111,-14,o),
(295,-14,cs)
);
},
{
closed = 1;
nodes = (
(422,425,o),
(456,456,o),
(469,519,cs),
(511,714,l),
(449,714,l),
(410,530,ls),
(404,502,o),
(392,490,o),
(372,490,cs),
(350,490,o),
(343,502,o),
(349,530,cs),
(388,714,l),
(326,714,l),
(286,527,ls),
(273,465,o),
(305,425,o),
(367,425,cs)
);
}
);
width = 640;
}
);
metricLeft = "te-canadian";
metricRight = "te-canadian";
note = uni1570;
unicode = 5488;
},
{
glyphname = "tyi-canadian";
lastChange = "2023-01-13 15:31:51 +0000";
layers = (
{
layerId = "ABE41ABD-D787-4F86-A3B4-502CADE9F2A5";
shapes = (
{
closed = 1;
nodes = (
(134,0,l),
(229,449,ls),
(251,550,o),
(296,593,o),
(379,593,cs),
(475,593,o),
(514,540,o),
(492,436,cs),
(399,0,l),
(536,0,l),
(626,422,ls),
(667,613,o),
(574,728,o),
(389,728,cs),
(227,728,o),
(133,641,o),
(95,463,cs),
(-4,0,l)
);
},
{
closed = 1;
nodes = (
(236,0,l),
(275,184,ls),
(280,212,o),
(293,224,o),
(313,224,cs),
(334,224,o),
(342,212,o),
(336,184,cs),
(297,0,l),
(359,0,l),
(399,187,ls),
(412,249,o),
(380,289,o),
(318,289,cs),
(263,289,o),
(229,258,o),
(216,195,cs),
(173.993,0,l)
);
}
);
width = 640;
}
);
metricLeft = "te-canadian";
metricRight = "te-canadian";
note = uni1571;
unicode = 5489;
},
{
glyphname = "tyo-canadian";
lastChange = "2023-01-13 15:31:51 +0000";
layers = (
{
layerId = "ABE41ABD-D787-4F86-A3B4-502CADE9F2A5";
shapes = (
{
closed = 1;
nodes = (
(134,0,ls),
(464,0,o),
(538,274,o),
(538,435,cs),
(538,609,o),
(431,714,o),
(244,714,cs),
(151,714,l),
(123,583,l),
(221,583,ls),
(331,583,o),
(390,526,o),
(390,423,cs),
(390,268,o),
(297,131,o),
(141,131,cs),
(28,131,l),
(0,0,l)
);
},
{
closed = 1;
nodes = (
(107,223,ls),
(211,223,o),
(260,277,o),
(271,357,cs),
(282,438,o),
(238,491,o),
(159,491,cs),
(104,491,l),
(88,417,l),
(142,417,ls),
(179,417,o),
(197,398,o),
(193,363,cs),
(189,326,o),
(169,297,o),
(115,297,cs),
(63,297,l),
(47,223,l)
);
}
);
width = 555;
}
);
metricLeft = "nunavuth-canadian";
metricRight = "theCarrier-canadian";
note = uni1572;
unicode = 5490;
},
{
glyphname = "tya-canadian";
lastChange = "2023-01-13 15:28:19 +0000";
layers = (
{
layerId = "ABE41ABD-D787-4F86-A3B4-502CADE9F2A5";
shapes = (
{
closed = 1;
nodes = (
(447,0,l),
(475,131,l),
(377,131,ls),
(267,131,o),
(209,188,o),
(209,291,cs),
(209,446,o),
(301,583,o),
(458,583,cs),
(570,583,l),
(598,714,l),
(464,714,ls),
(134,714,o),
(61,440,o),
(61,279,cs),
(61,105,o),
(167,0,o),
(354,0,cs)
);
},
{
closed = 1;
nodes = (
(494,223,l),
(510,297,l),
(456,297,ls),
(419,297,o),
(402,316,o),
(405,351,cs),
(409,388,o),
(429,417,o),
(483,417,cs),
(535,417,l),
(551,491,l),
(491,491,ls),
(387,491,o),
(338,437,o),
(327,357,cs),
(316,276,o),
(360,223,o),
(439,223,cs)
);
}
);
width = 554;
}
);
metricLeft = "=|theCarrier-canadian";
metricRight = "nunavuth-canadian";
note = uni1573;
unicode = 5491;
},
{
glyphname = "heNunavik-canadian";
lastChange = "2023-01-13 15:28:19 +0000";
layers = (
{
layerId = "ABE41ABD-D787-4F86-A3B4-502CADE9F2A5";
shapes = (
{
closed = 1;
nodes = (
(409,0,l),
(664,203,l),
(586,304,l),
(408,164,l),
(452,130,l),
(517,436,ls),
(548,579,o),
(510,728,o),
(340,728,cs),
(150,728,o),
(78,533,o),
(78,388,cs),
(78,267,o),
(138,193,o),
(238,193,cs),
(287,193,o),
(328,217,o),
(355,267,c),
(336,273,l),
(278,0,l)
);
},
{
closed = 1;
nodes = (
(242,318,o),
(221,344,o),
(221,395,cs),
(221,448,o),
(247,604,o),
(326,604,cs),
(365,604,o),
(386,578,o),
(386,526,cs),
(386,473,o),
(360,318,o),
(281,318,cs)
);
}
);
width = 691;
}
);
metricLeft = "ke-canadian";
note = uni1574;
unicode = 5492;
},
{
glyphname = "hiNunavik-canadian";
lastChange = "2023-01-13 15:31:51 +0000";
layers = (
{
anchors = (
{
name = top_center_can;
pos = (527,714);
}
);
layerId = "ABE41ABD-D787-4F86-A3B4-502CADE9F2A5";
shapes = (
{
closed = 1;
nodes = (
(305,0,l),
(372,312,l),
(349,270,l),
(348,227,o),
(395,193,o),
(459,193,cs),
(630,193,o),
(700,396,o),
(700,525,cs),
(700,653,o),
(629,728,o),
(511,728,cs),
(382,728,o),
(294,642,o),
(261,482,cs),
(185,125,l),
(233,139,l),
(106,289,l),
(5,202,l),
(175,0,l)
);
},
{
closed = 1;
nodes = (
(415,318,o),
(394,344,o),
(394,395,cs),
(394,448,o),
(424,604,o),
(499,604,cs),
(537,604,o),
(559,578,o),
(559,527,cs),
(559,473,o),
(532,318,o),
(453,318,cs)
);
}
);
width = 690;
}
);
metricLeft = "=|heNunavik-canadian";
metricRight = "=|ke-canadian";
note = uni1575;
unicode = 5493;
},
{
glyphname = "hoNunavik-canadian";
lastChange = "2023-01-13 15:28:19 +0000";
layers = (
{
anchors = (
{
name = top_center_can;
pos = (355,714);
},
{
name = top_right_can;
pos = (503,714);
}
);
layerId = "ABE41ABD-D787-4F86-A3B4-502CADE9F2A5";
shapes = (
{
closed = 1;
nodes = (
(354,-14,o),
(441,72,o),
(475,232,cs),
(550,589,l),
(502,575,l),
(630,425,l),
(730,512,l),
(560,714,l),
(430,714,l),
(363,402,l),
(386,444,l),
(387,487,o),
(341,521,o),
(276,521,cs),
(106,521,o),
(35,318,o),
(35,189,cs),
(35,61,o),
(106,-14,o),
(224,-14,cs)
);
},
{
closed = 1;
nodes = (
(198,110,o),
(176,136,o),
(176,187,cs),
(176,241,o),
(203,396,o),
(282,396,cs),
(321,396,o),
(342,370,o),
(342,319,cs),
(342,266,o),
(312,110,o),
(236,110,cs)
);
}
);
width = 691;
}
);
metricLeft = "ke-canadian";
metricRight = "heNunavik-canadian";
note = uni1577;
unicode = 5495;
},
{
glyphname = "haNunavik-canadian";
lastChange = "2023-01-13 15:28:19 +0000";
layers = (
{
anchors = (
{
name = top_center_can;
pos = (531,714);
},
{
name = top_left_can;
pos = (384,714);
}
);
layerId = "ABE41ABD-D787-4F86-A3B4-502CADE9F2A5";
shapes = (
{
closed = 1;
nodes = (
(585,-14,o),
(657,181,o),
(657,326,cs),
(657,447,o),
(597,521,o),
(496,521,cs),
(447,521,o),
(407,497,o),
(380,447,c),
(399,441,l),
(457,714,l),
(326,714,l),
(71,511,l),
(149,410,l),
(327,550,l),
(282,584,l),
(217,278,ls),
(187,135,o),
(225,-14,o),
(395,-14,cs)
);
},
{
closed = 1;
nodes = (
(370,110,o),
(349,136,o),
(349,188,cs),
(349,241,o),
(375,396,o),
(454,396,cs),
(493,396,o),
(514,370,o),
(514,319,cs),
(514,266,o),
(488,110,o),
(409,110,cs)
);
}
);
width = 691;
}
);
metricLeft = "=|heNunavik-canadian";
metricRight = "=|ke-canadian";
note = uni1579;
unicode = 5497;
},
{
glyphname = "hNunavik-canadian";
kernLeft = mwestleft;
kernRight = mwestright;
lastChange = "2023-01-13 15:28:19 +0000";
layers = (
{
layerId = "ABE41ABD-D787-4F86-A3B4-502CADE9F2A5";
shapes = (
{
closed = 1;
nodes = (
(379,351,o),
(422,459,o),
(422,527,cs),
(422,585,o),
(390,622,o),
(338,622,cs),
(306,622,o),
(282,608,o),
(263,571,c),
(279,546,l),
(315,714,l),
(227,714,l),
(100,614,l),
(146,557,l),
(254,644,l),
(216,693,l),
(174,496,ls),
(157,414,o),
(193,351,o),
(274,351,cs)
);
},
{
closed = 1;
nodes = (
(265,422,o),
(255,434,o),
(255,459,cs),
(255,504,o),
(275,551,o),
(307,551,cs),
(325,551,o),
(336,540,o),
(336,515,cs),
(336,472,o),
(315,422,o),
(283,422,cs)
);
}
);
width = 403;
}
);
metricRight = "k-canadian";
note = uni157B;
unicode = 5499;
},
{
color = 4;
glyphname = "nunavuth-canadian";
lastChange = "2023-01-13 15:28:19 +0000";
layers = (
{
layerId = "ABE41ABD-D787-4F86-A3B4-502CADE9F2A5";
shapes = (
{
closed = 1;
nodes = (
(146,0,l),
(211,303,l),
(430,303,l),
(366,0,l),
(513,0,l),
(665,714,l),
(518,714,l),
(458,434,l),
(239,434,l),
(298,714,l),
(151,714,l),
(-1,0,l)
);
}
);
width = 620;
}
);
metricRight = "=|";
note = uni157C;
unicode = 5500;
},
{
glyphname = "tlhe-canadian";
lastChange = "2023-01-13 15:31:51 +0000";
layers = (
{
anchors = (
{
name = top_center_can;
pos = (371,714);
}
);
layerId = "ABE41ABD-D787-4F86-A3B4-502CADE9F2A5";
shapes = (
{
closed = 1;
nodes = (
(149,0,l),
(318,287,l),
(210,227,l),
(220,225,o),
(231,224,o),
(241,224,cs),
(291,224,o),
(336,242,o),
(374,285,c),
(362,328,l),
(292,0,l),
(438,0,l),
(536,460,ls),
(564,591,o),
(523,728,o),
(356,728,cs),
(172,728,o),
(95,558,o),
(95,418,cs),
(95,358,o),
(115,304,o),
(157,271,c),
(-4,0,l)
);
},
{
closed = 1;
nodes = (
(253,350,o),
(234,381,o),
(234,426,cs),
(234,481,o),
(262,604,o),
(339,604,cs),
(381,604,o),
(400,573,o),
(400,529,cs),
(400,474,o),
(371,350,o),
(295,350,cs)
);
}
);
width = 542;
}
);
metricRight = "te-canadian";
note = uni1586;
unicode = 5510;
},
{
glyphname = "tlhi-canadian";
lastChange = "2023-01-13 15:31:51 +0000";
layers = (
{
layerId = "ABE41ABD-D787-4F86-A3B4-502CADE9F2A5";
shapes = (
{
closed = 1;
nodes = (
(142,0,l),
(213,337,l),
(156,313,l),
(187,258,o),
(229,230,o),
(294,228,c),
(241,260,l),
(285,0,l),
(439,0,l),
(396,253,l),
(501,296,o),
(546,432,o),
(546,526,cs),
(546,648,o),
(472,728,o),
(347,728,cs),
(221,728,o),
(134,649,o),
(99,485,cs),
(-4,0,l)
);
},
{
closed = 1;
nodes = (
(259,350,o),
(237,377,o),
(237,425,cs),
(237,478,o),
(265,604,o),
(342,604,cs),
(383,604,o),
(404,577,o),
(404,529,cs),
(404,475,o),
(377,350,o),
(300,350,cs)
);
}
);
width = 546;
}
);
metricLeft = "te-canadian";
metricRight = "=|tlhe-canadian";
note = uni1587;
unicode = 5511;
},
{
glyphname = "tlho-canadian";
lastChange = "2023-01-13 15:31:51 +0000";
layers = (
{
anchors = (
{
name = top_center_can;
pos = (380,714);
}
);
layerId = "ABE41ABD-D787-4F86-A3B4-502CADE9F2A5";
shapes = (
{
closed = 1;
nodes = (
(369,-14,o),
(456,65,o),
(491,229,cs),
(594,714,l),
(448,714,l),
(377,377,l),
(434,401,l),
(403,456,o),
(362,484,o),
(296,486,c),
(349,454,l),
(305,714,l),
(152,714,l),
(194,461,l),
(89,418,o),
(44,282,o),
(44,188,cs),
(44,66,o),
(118,-14,o),
(243,-14,cs)
);
},
{
closed = 1;
nodes = (
(208,110,o),
(187,137,o),
(187,185,cs),
(187,239,o),
(213,364,o),
(291,364,cs),
(331,364,o),
(353,337,o),
(353,289,cs),
(353,236,o),
(326,110,o),
(249,110,cs)
);
}
);
width = 546;
}
);
metricLeft = "tlhe-canadian";
metricRight = "te-canadian";
note = uni1588;
unicode = 5512;
},
{
glyphname = "tlha-canadian";
lastChange = "2023-01-13 15:28:19 +0000";
layers = (
{
layerId = "ABE41ABD-D787-4F86-A3B4-502CADE9F2A5";
shapes = (
{
closed = 1;
nodes = (
(415,-14,o),
(491,156,o),
(491,296,cs),
(491,356,o),
(472,410,o),
(430,443,c),
(591,714,l),
(437,714,l),
(269,427,l),
(377,487,l),
(367,489,o),
(356,490,o),
(346,490,cs),
(295,490,o),
(250,472,o),
(213,429,c),
(225,386,l),
(294,714,l),
(148,714,l),
(51,254,ls),
(23,123,o),
(63,-14,o),
(230,-14,cs)
);
},
{
closed = 1;
nodes = (
(205,110,o),
(187,141,o),
(187,185,cs),
(187,240,o),
(215,364,o),
(291,364,cs),
(333,364,o),
(353,333,o),
(353,288,cs),
(353,233,o),
(324,110,o),
(248,110,cs)
);
}
);
width = 543;
}
);
metricLeft = "te-canadian";
note = uni1589;
unicode = 5513;
},
{
glyphname = "reWestCree-canadian";
lastChange = "2023-01-13 15:28:19 +0000";
layers = (
{
layerId = "ABE41ABD-D787-4F86-A3B4-502CADE9F2A5";
shapes = (
{
closed = 1;
nodes = (
(399,0,l),
(655,206,l),
(575,305,l),
(400,165,l),
(443,132,l),
(514,469,ls),
(548,630,o),
(477,728,o),
(335,728,cs),
(200,728,o),
(122,651,o),
(87,489,cs),
(67,395,l),
(213,395,l),
(236,504,ls),
(251,572,o),
(275,600,o),
(318,600,cs),
(369,600,o),
(389,564,o),
(375,498,cs),
(269.003,0,l)
);
}
);
width = 681;
}
);
metricLeft = "ce-canadian";
metricRight = "heNunavik-canadian";
note = uni158A;
unicode = 5514;
},
{
glyphname = "riWestCree-canadian";
lastChange = "2023-01-13 15:31:51 +0000";
layers = (
{
layerId = "ABE41ABD-D787-4F86-A3B4-502CADE9F2A5";
shapes = (
{
closed = 1;
nodes = (
(304,0,l),
(410,504,ls),
(425,571,o),
(450,600,o),
(493,600,cs),
(543,600,o),
(564,565,o),
(549,498,cs),
(527,395,l),
(673,395,l),
(689,469,ls),
(723,630,o),
(650,728,o),
(508,728,cs),
(373,728,o),
(296,651,o),
(261,489,cs),
(185,131,l),
(236,144,l),
(113,294,l),
(6,206,l),
(174,0,l)
);
}
);
width = 680;
}
);
metricLeft = "=|heNunavik-canadian";
metricRight = "=|ce-canadian";
note = uni158B;
unicode = 5515;
},
{
glyphname = "roWestCree-canadian";
lastChange = "2023-01-13 15:28:19 +0000";
layers = (
{
layerId = "ABE41ABD-D787-4F86-A3B4-502CADE9F2A5";
shapes = (
{
closed = 1;
nodes = (
(352,-14,o),
(429,63,o),
(463,225,cs),
(539,583,l),
(489,570,l),
(613,420,l),
(719,508,l),
(551,714,l),
(421.003,714,l),
(314,210,ls),
(300,143,o),
(274,114,o),
(232,114,cs),
(182,114,o),
(161,149,o),
(175,216,cs),
(197,319,l),
(51,319,l),
(36,245,ls),
(1,84,o),
(75,-14,o),
(216,-14,cs)
);
}
);
width = 681;
}
);
metricLeft = "ce-canadian";
metricRight = "heNunavik-canadian";
note = uni158C;
unicode = 5516;
},
{
glyphname = "raWestCree-canadian";
lastChange = "2023-01-13 15:31:51 +0000";
layers = (
{
layerId = "ABE41ABD-D787-4F86-A3B4-502CADE9F2A5";
shapes = (
{
closed = 1;
nodes = (
(525,-14,o),
(603,63,o),
(638,225,cs),
(658,319,l),
(512,319,l),
(489,210,ls),
(474,142,o),
(450,114,o),
(407,114,cs),
(356,114,o),
(336,150,o),
(350,216,cs),
(456,714,l),
(326,714,l),
(70,508,l),
(150,409,l),
(326,549,l),
(282,582,l),
(211,245,ls),
(177,84,o),
(248,-14,o),
(390,-14,cs)
);
}
);
width = 681;
}
);
metricLeft = "=|heNunavik-canadian";
metricRight = "=|ce-canadian";
note = uni158D;
unicode = 5517;
},
{
glyphname = "ng-canadian";
kernLeft = mwestleft;
kernRight = mwestright;
lastChange = "2023-01-13 15:31:51 +0000";
layers = (
{
layerId = "ABE41ABD-D787-4F86-A3B4-502CADE9F2A5";
shapes = (
{
closed = 1;
nodes = (
(481,225,o),
(529,268,o),
(546,350,cs),
(552,381,l),
(462,381,l),
(453,342,ls),
(447,314,o),
(435,301,o),
(416,301,cs),
(394,301,o),
(386,316,o),
(392,343,cs),
(434,542,l),
(296,542,l),
(303,491,l),
(327,510,o),
(345,554,o),
(349,593,cs),
(359,666,o),
(318,720,o),
(243,720,cs),
(166,720,o),
(117,658,o),
(106,585,cs),
(94,503,o),
(138,449,o),
(215,449,cs),
(355,449,l),
(329,506,l),
(300,370,ls),
(281,281,o),
(323,225,o),
(407,225,cs)
);
},
{
closed = 1;
nodes = (
(196,520,o),
(186,539,o),
(190,575,cs),
(195,611,o),
(210,649,o),
(238,649,cs),
(259,649,o),
(269,630,o),
(264,595,cs),
(260,559,o),
(245,520,o),
(216,520,cs)
);
}
);
width = 550;
}
);
metricLeft = "n-canadian";
metricRight = "c-canadian";
note = uni1595;
unicode = 5525;
},
{
glyphname = "nng-canadian";
kernLeft = mwestleft;
kernRight = mwestright;
lastChange = "2023-01-13 15:31:51 +0000";
layers = (
{
layerId = "ABE41ABD-D787-4F86-A3B4-502CADE9F2A5";
shapes = (
{
closed = 1;
nodes = (
(752,225,o),
(799,268,o),
(816,350,cs),
(823,381,l),
(733,381,l),
(724,342,ls),
(718,314,o),
(706,301,o),
(686,301,cs),
(665,301,o),
(656,316,o),
(662,343,cs),
(705,542,l),
(581,542,l),
(574,491,l),
(605,517,o),
(623,572,o),
(623,611,cs),
(623,678,o),
(582,720,o),
(515,720,cs),
(424,720,o),
(376,636,o),
(376,560,cs),
(376,537,o),
(381,518,o),
(393,500,c),
(404,542,l),
(311,542,l),
(302,491,l),
(333,517,o),
(351,573,o),
(351,611,cs),
(351,675,o),
(310,720,o),
(243,720,cs),
(152,720,o),
(104,636,o),
(104,560,cs),
(104,493,o),
(146,449,o),
(215,449,cs),
(587,449,l),
(570,370,ls),
(551,281,o),
(594,225,o),
(678,225,cs)
);
},
{
closed = 1;
nodes = (
(199,520,o),
(189,534,o),
(189,558,cs),
(189,588,o),
(203,649,o),
(238,649,cs),
(256,649,o),
(266,636,o),
(266,611,cs),
(266,581,o),
(252,520,o),
(216,520,cs)
);
},
{
closed = 1;
nodes = (
(471,520,o),
(461,534,o),
(461,558,cs),
(461,588,o),
(475,649,o),
(510,649,cs),
(528,649,o),
(538,636,o),
(538,611,cs),
(538,581,o),
(524,520,o),
(489,520,cs)
);
}
);
width = 821;
}
);
metricLeft = "n-canadian";
metricRight = "c-canadian";
note = uni1596;
unicode = 5526;
},
{
glyphname = "sheSayisi-canadian";
lastChange = "2023-01-13 15:31:51 +0000";
layers = (
{
anchors = (
{
name = middle_right_can;
pos = (633,357);
},
{
name = top_center_can;
pos = (366,714);
}
);
layerId = "ABE41ABD-D787-4F86-A3B4-502CADE9F2A5";
shapes = (
{
closed = 1;
nodes = (
(434,0,l),
(529,444,ls),
(565,618,o),
(499,728,o),
(351,728,cs),
(146,728,o),
(72,506,o),
(72,359,cs),
(72,255,o),
(115,194,o),
(195,194,cs),
(277,194,o),
(318,259,o),
(347,428,c),
(288,428,l),
(274,343,o),
(260,314,o),
(236,314,cs),
(218,314,o),
(209,330,o),
(209,361,cs),
(209,413,o),
(242,604,o),
(331,604,cs),
(390,604,o),
(403,546,o),
(381,443,cs),
(286,0,l)
);
}
);
width = 538;
}
);
metricLeft = "ke-canadian";
metricRight = "te-canadian";
note = uni1597;
unicode = 5527;
},
{
glyphname = "shiSayisi-canadian";
lastChange = "2023-01-13 15:31:51 +0000";
layers = (
{
layerId = "ABE41ABD-D787-4F86-A3B4-502CADE9F2A5";
shapes = (
{
closed = 1;
nodes = (
(144,0,l),
(242,460,ls),
(263,561,o),
(293,604,o),
(343,604,cs),
(386,604,o),
(408,576,o),
(408,520,cs),
(408,476,o),
(380,314,o),
(335,314,cs),
(308,314,o),
(302,341,o),
(323,428,c),
(265,428,l),
(225,272,o),
(258,194,o),
(356,194,cs),
(493,194,o),
(547,411,o),
(547,517,cs),
(547,649,o),
(474,728,o),
(347,728,cs),
(219,728,o),
(134,646,o),
(100,488,cs),
(-4,0,l)
);
}
);
width = 540;
}
);
metricLeft = "te-canadian";
metricRight = "=|ke-canadian";
note = uni1598;
unicode = 5528;
},
{
glyphname = "shoSayisi-canadian";
lastChange = "2023-01-13 15:31:51 +0000";
layers = (
{
anchors = (
{
name = top_center_can;
pos = (363,714);
},
{
name = top_left_can;
pos = (209,714);
},
{
name = top_right_can;
pos = (515,714);
}
);
layerId = "ABE41ABD-D787-4F86-A3B4-502CADE9F2A5";
shapes = (
{
closed = 1;
nodes = (
(365,-14,o),
(450,68,o),
(484,226,cs),
(588,714,l),
(440,714,l),
(342,254,ls),
(321,153,o),
(291,110,o),
(241,110,cs),
(198,110,o),
(176,138,o),
(176,194,cs),
(176,238,o),
(204,400,o),
(249,400,cs),
(276,400,o),
(282,373,o),
(261,286,c),
(319,286,l),
(359,442,o),
(326,520,o),
(228,520,cs),
(91,520,o),
(37,303,o),
(37,197,cs),
(37,65,o),
(110,-14,o),
(237,-14,cs)
);
}
);
width = 540;
}
);
metricLeft = "ke-canadian";
metricRight = "te-canadian";
note = uni1599;
unicode = 5529;
},
{
glyphname = "shaSayisi-canadian";
lastChange = "2023-01-13 15:28:19 +0000";
layers = (
{
layerId = "ABE41ABD-D787-4F86-A3B4-502CADE9F2A5";
shapes = (
{
closed = 1;
nodes = (
(437,-14,o),
(511,208,o),
(511,355,cs),
(511,459,o),
(468,520,o),
(388,520,cs),
(306,520,o),
(264,455,o),
(236,286,c),
(294,286,l),
(309,371,o),
(323,400,o),
(347,400,cs),
(365,400,o),
(374,384,o),
(374,353,cs),
(374,301,o),
(341,110,o),
(251,110,cs),
(193,110,o),
(180,168,o),
(202,271,cs),
(296,714,l),
(149,714,l),
(54,270,ls),
(18,96,o),
(83,-14,o),
(232,-14,cs)
);
}
);
width = 539;
}
);
metricLeft = "te-canadian";
metricRight = "=|ke-canadian";
note = uni159A;
unicode = 5530;
},
{
glyphname = "theWoodScree-canadian";
lastChange = "2023-01-13 15:28:19 +0000";
layers = (
{
layerId = "ABE41ABD-D787-4F86-A3B4-502CADE9F2A5";
shapes = (
{
closed = 1;
nodes = (
(601,-14,o),
(675,172,o),
(675,300,cs),
(675,426,o),
(599,506,o),
(471,506,cs),
(97,506,l),
(72,385,l),
(321,385,l),
(315,425,l),
(248,374,o),
(222,264,o),
(222,192,cs),
(222,68,o),
(297,-14,o),
(419,-14,cs)
);
},
{
closed = 1;
nodes = (
(387,110,o),
(364,140,o),
(364,192,cs),
(364,246,o),
(392,384,o),
(470,384,cs),
(511,384,o),
(533,355,o),
(533,303,cs),
(533,247,o),
(505,110,o),
(427,110,cs)
);
},
{
closed = 1;
nodes = (
(736,593,l),
(761,714,l),
(142,714,l),
(116,593,l)
);
}
);
width = 716;
}
);
note = uni159B;
unicode = 5531;
},
{
glyphname = "thiWoodScree-canadian";
kernRight = niright;
lastChange = "2023-01-13 15:31:51 +0000";
layers = (
{
layerId = "ABE41ABD-D787-4F86-A3B4-502CADE9F2A5";
shapes = (
{
closed = 1;
nodes = (
(418,-14,o),
(493,172,o),
(493,300,cs),
(493,340,o),
(484,372,o),
(467,396,c),
(453,385,l),
(702,385,l),
(727,506,l),
(313,506,ls),
(105,506,o),
(39,317,o),
(39,192,cs),
(39,68,o),
(114,-14,o),
(237,-14,cs)
);
},
{
closed = 1;
nodes = (
(204,110,o),
(182,140,o),
(182,192,cs),
(182,246,o),
(209,384,o),
(288,384,cs),
(329,384,o),
(351,355,o),
(351,303,cs),
(351,247,o),
(323,110,o),
(245,110,cs)
);
},
{
closed = 1;
nodes = (
(746,593,l),
(772,714,l),
(153,714,l),
(127,593,l)
);
}
);
width = 717;
}
);
metricLeft = "theWoodScree-canadian";
metricRight = "theWoodScree-canadian";
note = uni159C;
unicode = 5532;
},
{
glyphname = "thoWoodScree-canadian";
lastChange = "2023-01-13 15:31:51 +0000";
layers = (
{
layerId = "ABE41ABD-D787-4F86-A3B4-502CADE9F2A5";
shapes = (
{
closed = 1;
nodes = (
(404,0,ls),
(612,0,o),
(678,189,o),
(678,315,cs),
(678,438,o),
(603,521,o),
(481,521,cs),
(299,521,o),
(224,334,o),
(224,206,cs),
(224,167,o),
(233,134,o),
(250,110,c),
(264,121,l),
(16,121,l),
(-10,0,l)
);
},
{
closed = 1;
nodes = (
(389,123,o),
(367,151,o),
(367,203,cs),
(367,260,o),
(395,396,o),
(472,396,cs),
(513,396,o),
(536,367,o),
(536,315,cs),
(536,260,o),
(508,123,o),
(430,123,cs)
);
},
{
closed = 1;
nodes = (
(735,593,l),
(761,714,l),
(141,714,l),
(115,593,l)
);
}
);
width = 717;
}
);
metricLeft = "theWoodScree-canadian";
metricRight = "theWoodScree-canadian";
note = uni159D;
unicode = 5533;
},
{
glyphname = "thaWoodScree-canadian";
lastChange = "2023-01-13 15:31:51 +0000";
layers = (
{
layerId = "ABE41ABD-D787-4F86-A3B4-502CADE9F2A5";
shapes = (
{
closed = 1;
nodes = (
(619,0,l),
(645,121,l),
(395,121,l),
(401,81,l),
(468,132,o),
(495,242,o),
(495,314,cs),
(495,438,o),
(419,521,o),
(297,521,cs),
(115,521,o),
(41,334,o),
(41,206,cs),
(41,81,o),
(117,0,o),
(245,0,cs)
);
},
{
closed = 1;
nodes = (
(205,123,o),
(183,151,o),
(183,203,cs),
(183,260,o),
(211,396,o),
(289,396,cs),
(330,396,o),
(352,367,o),
(352,315,cs),
(352,260,o),
(325,123,o),
(246,123,cs)
);
},
{
closed = 1;
nodes = (
(744,593,l),
(770,714,l),
(151,714,l),
(125,593,l)
);
}
);
width = 716;
}
);
metricLeft = "theWoodScree-canadian";
metricRight = "theWoodScree-canadian";
note = uni159E;
unicode = 5534;
},
{
glyphname = "thWoodScree-canadian";
lastChange = "2023-01-13 15:28:19 +0000";
layers = (
{
layerId = "ABE41ABD-D787-4F86-A3B4-502CADE9F2A5";
shapes = (
{
closed = 1;
nodes = (
(409,356,l),
(428,441,l),
(292,441,l),
(288,396,l),
(323,420,o),
(342,478,o),
(342,519,cs),
(342,585,o),
(301,627,o),
(234,627,cs),
(143,627,o),
(95,543,o),
(95,467,cs),
(95,399,o),
(137,356,o),
(206,356,cs)
);
},
{
closed = 1;
nodes = (
(190,427,o),
(180,441,o),
(180,465,cs),
(180,495,o),
(194,556,o),
(229,556,cs),
(247,556,o),
(257,542,o),
(257,518,cs),
(257,488,o),
(243,427,o),
(208,427,cs)
);
},
{
closed = 1;
nodes = (
(465,670,l),
(483,755,l),
(155,755,l),
(136,670,l)
);
}
);
width = 433;
}
);
metricRight = "=|";
note = uni159F;
unicode = 5535;
},
{
glyphname = "lhi-canadian";
kernRight = niright;
lastChange = "2023-01-13 15:31:51 +0000";
layers = (
{
anchors = (
{
name = top_center_can;
pos = (474,714);
},
{
name = top_right_can;
pos = (578,714);
}
);
layerId = "ABE41ABD-D787-4F86-A3B4-502CADE9F2A5";
shapes = (
{
closed = 1;
nodes = (
(279,0,l),
(306,129,l),
(282,129,ls),
(223,129,o),
(187,166,o),
(187,224,cs),
(187,292,o),
(226,373,o),
(335,373,cs),
(696,373,l),
(721,491,l),
(620,763,l),
(485,712,l),
(586,440,l),
(639,506,l),
(347,506,ls),
(153,506,o),
(40,387,o),
(40,220,cs),
(40,92,o),
(124,0,o),
(252,0,cs)
);
}
);
width = 708;
}
);
metricLeft = "ke-canadian";
metricRight = "=|ne-canadian";
note = uni15A0;
unicode = 5536;
},
{
glyphname = "lho-canadian";
kernLeft = noleft;
lastChange = "2023-01-13 15:31:51 +0000";
layers = (
{
anchors = (
{
name = top_center_can;
pos = (408,524);
},
{
name = top_right_can;
pos = (499,524);
}
);
layerId = "ABE41ABD-D787-4F86-A3B4-502CADE9F2A5";
shapes = (
{
closed = 1;
nodes = (
(223,-206,l),
(122,66,l),
(69,0,l),
(361,0,ls),
(554,0,o),
(667,119,o),
(667,286,cs),
(667,414,o),
(584,506,o),
(456,506,cs),
(429,506,l),
(402,377,l),
(425,377,ls),
(485,377,o),
(521,340,o),
(521,282,cs),
(521,214,o),
(482,133,o),
(373,133,cs),
(12,133,l),
(-13,15,l),
(88,-257,l)
);
}
);
width = 707;
}
);
metricLeft = "ne-canadian";
metricRight = "=|ke-canadian";
note = uni15A2;
unicode = 5538;
},
{
glyphname = "lha-canadian";
kernRight = naright;
lastChange = "2023-01-13 15:28:19 +0000";
layers = (
{
anchors = (
{
name = top_center_can;
pos = (415,524);
},
{
name = top_left_can;
pos = (323,524);
}
);
layerId = "ABE41ABD-D787-4F86-A3B4-502CADE9F2A5";
shapes = (
{
closed = 1;
nodes = (
(619,15,l),
(644,133,l),
(292,133,ls),
(222,133,o),
(185,167,o),
(185,227,cs),
(185,297,o),
(224,377,o),
(334,377,cs),
(357,377,l),
(385,506,l),
(354,506,ls),
(153,506,o),
(39,387,o),
(39,213,cs),
(39,84,o),
(123,0,o),
(264,0,cs),
(521,0,l),
(483,61,l),
(296,-175,l),
(400,-258,l)
);
}
);
width = 708;
}
);
metricLeft = "ke-canadian";
metricRight = "=|ne-canadian";
note = uni15A4;
unicode = 5540;
},
{
glyphname = "lh-canadian";
kernLeft = mwestleft;
kernRight = mwestright;
lastChange = "2023-01-13 15:28:19 +0000";
layers = (
{
layerId = "ABE41ABD-D787-4F86-A3B4-502CADE9F2A5";
shapes = (
{
closed = 1;
nodes = (
(399,367,l),
(417,449,l),
(263,449,ls),
(220,449,o),
(196,472,o),
(196,512,cs),
(196,561,o),
(221,623,o),
(297,623,cs),
(306,623,l),
(326,714,l),
(311,714,ls),
(163,714,o),
(98,609,o),
(98,499,cs),
(98,408,o),
(157,357,o),
(256,357,cs),
(354,357,l),
(319,418,l),
(204,274,l),
(275,214,l)
);
}
);
width = 415;
}
);
metricLeft = "t-canadian";
metricRight = "=|";
note = uni15A6;
unicode = 5542;
},
{
glyphname = "theThCree-canadian";
lastChange = "2023-01-13 15:28:19 +0000";
layers = (
{
anchors = (
{
name = top_left_can;
pos = (198,714);
},
{
name = top_right_can;
pos = (482,714);
}
);
layerId = "ABE41ABD-D787-4F86-A3B4-502CADE9F2A5";
shapes = (
{
closed = 1;
nodes = (
(275,85,l),
(257,0,l),
(404,0,l),
(422,85,l),
(482,85,l),
(499,165,l),
(439,165,l),
(480,357,l),
(225,357,l),
(247,309,l),
(551,637,l),
(451,726,l),
(30,267,l),
(22,229,l),
(305,229,l),
(292,165,l),
(110,165,l),
(93,85,l)
);
}
);
width = 543;
}
);
metricLeft = "ye-canadian";
note = uni15A7;
unicode = 5543;
},
{
glyphname = "thiThCree-canadian";
kernRight = yiright;
lastChange = "2023-01-13 15:31:51 +0000";
layers = (
{
anchors = (
{
name = top_left_can;
pos = (258,714);
},
{
name = top_right_can;
pos = (542,714);
}
);
layerId = "ABE41ABD-D787-4F86-A3B4-502CADE9F2A5";
shapes = (
{
closed = 1;
nodes = (
(179,0,l),
(197,85,l),
(379,85,l),
(395,165,l),
(214,165,l),
(227,229,l),
(510,229,l),
(518,267,l),
(267,726,l),
(150,660,l),
(349,300,l),
(383,357,l),
(107,357,l),
(66,165,l),
(6,165,l),
(-11,85,l),
(50,85,l),
(31,0,l)
);
}
);
width = 542;
}
);
metricLeft = "=|theThCree-canadian";
metricRight = "=|ye-canadian";
note = uni15A8;
unicode = 5544;
},
{
glyphname = "thoThCree-canadian";
kernLeft = yoleft;
lastChange = "2023-01-13 15:28:19 +0000";
layers = (
{
anchors = (
{
name = top_left_can;
pos = (198,714);
},
{
name = top_right_can;
pos = (482,714);
}
);
layerId = "ABE41ABD-D787-4F86-A3B4-502CADE9F2A5";
shapes = (
{
closed = 1;
nodes = (
(437,54,l),
(238,414,l),
(204,357,l),
(479,357,l),
(520,549,l),
(581,549,l),
(598,629,l),
(537,629,l),
(555,714,l),
(408,714,l),
(389,629,l),
(208,629,l),
(191,549,l),
(373,549,l),
(359,485,l),
(77,485,l),
(68,447,l),
(320,-12,l)
);
}
);
width = 543;
}
);
metricLeft = "ye-canadian";
metricRight = "theThCree-canadian";
note = uni15AA;
unicode = 5546;
},
{
glyphname = "thaThCree-canadian";
kernRight = yaright;
lastChange = "2023-01-13 15:31:51 +0000";
layers = (
{
anchors = (
{
name = top_left_can;
pos = (258,714);
},
{
name = top_right_can;
pos = (542,714);
}
);
layerId = "ABE41ABD-D787-4F86-A3B4-502CADE9F2A5";
shapes = (
{
closed = 1;
nodes = (
(558,447,l),
(566,485,l),
(283,485,l),
(296,549,l),
(478,549,l),
(495,629,l),
(313,629,l),
(331,714,l),
(184,714,l),
(165,629,l),
(105,629,l),
(89,549,l),
(149,549,l),
(108,357,l),
(363,357,l),
(341,405,l),
(37,77,l),
(137,-12,l)
);
}
);
width = 544;
}
);
metricLeft = "=|theThCree-canadian";
metricRight = "=|ye-canadian";
note = uni15AC;
unicode = 5548;
},
{
glyphname = "thThCree-canadian";
kernLeft = mwestleft;
kernRight = mwestright;
lastChange = "2023-01-13 15:31:51 +0000";
layers = (
{
layerId = "ABE41ABD-D787-4F86-A3B4-502CADE9F2A5";
shapes = (
{
closed = 1;
nodes = (
(146,636,l),
(121,519,l),
(263,519,l),
(241,568,l),
(92,405,l),
(159,348,l),
(363,573,l),
(369,600,l),
(235,600,l),
(243,636,l),
(325,636,l),
(334,677,l),
(252,677,l),
(260,714,l),
(163,714,l),
(155,677,l),
(124,677,l),
(115,636,l)
);
}
);
width = 317;
}
);
metricRight = "y-canadian";
note = uni15AE;
unicode = 5550;
},
{
glyphname = "bAivilik-canadian";
lastChange = "2023-01-13 15:28:19 +0000";
layers = (
{
layerId = "ABE41ABD-D787-4F86-A3B4-502CADE9F2A5";
shapes = (
{
closed = 1;
nodes = (
(424,-14,o),
(500,181,o),
(500,326,cs),
(500,446,o),
(439,521,o),
(339,521,cs),
(291,521,o),
(251,497,o),
(223,448,c),
(239,437,l),
(298,714,l),
(151,714,l),
(-1,0,l),
(134,0,l),
(152,84,l),
(140,70,l),
(150,16,o),
(194,-14,o),
(257,-14,cs)
);
},
{
closed = 1;
nodes = (
(213,110,o),
(192,136,o),
(192,188,cs),
(192,241,o),
(218,396,o),
(297,396,cs),
(335,396,o),
(357,370,o),
(357,319,cs),
(357,266,o),
(331,110,o),
(252,110,cs)
);
}
);
width = 534;
}
);
metricLeft = "nunavuth-canadian";
metricRight = "=|ke-canadian";
note = uni15AF;
unicode = 5551;
},
{
glyphname = "eBlackfoot-canadian";
lastChange = "2023-01-13 15:28:19 +0000";
layers = (
{
layerId = "ABE41ABD-D787-4F86-A3B4-502CADE9F2A5";
shapes = (
{
closed = 1;
nodes = (
(146,0,l),
(237,424,l),
(255,382,o),
(298,356,o),
(353,356,cs),
(481,356,o),
(538,487,o),
(538,581,cs),
(538,669,o),
(487,728,o),
(403,728,cs),
(356,728,o),
(311,708,o),
(282,673,c),
(290,714,l),
(151,714,l),
(-1,0,l)
);
}
);
width = 507;
}
);
metricLeft = "nunavuth-canadian";
note = uni15B0;
unicode = 5552;
},
{
glyphname = "iBlackfoot-canadian";
lastChange = "2023-01-13 15:31:51 +0000";
layers = (
{
layerId = "ABE41ABD-D787-4F86-A3B4-502CADE9F2A5";
shapes = (
{
closed = 1;
nodes = (
(196,-14,o),
(241,6,o),
(270,41,c),
(262,0,l),
(401,0,l),
(553,714,l),
(406,714,l),
(315,290,l),
(297,332,o),
(254,358,o),
(199,358,cs),
(71,358,o),
(13,227,o),
(13,133,cs),
(13,45,o),
(65,-14,o),
(149,-14,cs)
);
}
);
width = 508;
}
);
metricLeft = "=|eBlackfoot-canadian";
metricRight = "nunavuth-canadian";
note = uni15B1;
unicode = 5553;
},
{
glyphname = "oBlackfoot-canadian";
lastChange = "2023-01-13 15:31:51 +0000";
layers = (
{
layerId = "ABE41ABD-D787-4F86-A3B4-502CADE9F2A5";
shapes = (
{
closed = 1;
nodes = (
(402,-14,o),
(460,117,o),
(460,211,cs),
(460,299,o),
(409,358,o),
(326,358,cs),
(283,358,o),
(243,342,o),
(213,314,c),
(298,714,l),
(151,714,l),
(-1,0,l),
(138,0,l),
(153,68,l),
(168,18,o),
(214,-14,o),
(275,-14,cs)
);
}
);
width = 508;
}
);
metricLeft = "nunavuth-canadian";
metricRight = "eBlackfoot-canadian";
note = uni15B2;
unicode = 5554;
},
{
glyphname = "aBlackfoot-canadian";
lastChange = "2023-01-13 15:31:51 +0000";
layers = (
{
layerId = "ABE41ABD-D787-4F86-A3B4-502CADE9F2A5";
shapes = (
{
closed = 1;
nodes = (
(400,0,l),
(552,714,l),
(413,714,l),
(399,646,l),
(384,696,o),
(338,728,o),
(277,728,cs),
(149,728,o),
(92,597,o),
(92,503,cs),
(92,415,o),
(143,356,o),
(225,356,cs),
(269,356,o),
(309,372,o),
(338,400,c),
(253,0,l)
);
}
);
width = 507;
}
);
metricLeft = "=|eBlackfoot-canadian";
metricRight = "nunavuth-canadian";
note = uni15B3;
unicode = 5555;
},
{
glyphname = "weBlackfoot-canadian";
lastChange = "2023-01-13 15:28:19 +0000";
layers = (
{
layerId = "ABE41ABD-D787-4F86-A3B4-502CADE9F2A5";
shapes = (
{
closed = 1;
nodes = (
(146,0,l),
(209,292,l),
(488,292,l),
(514,418,l),
(235,418,l),
(272,589,l),
(551,589,l),
(577,714,l),
(151,714,l),
(-1,0,l)
);
}
);
width = 524;
}
);
metricLeft = "nunavuth-canadian";
note = uni15B4;
unicode = 5556;
},
{
glyphname = "wiBlackfoot-canadian";
lastChange = "2023-01-13 15:28:19 +0000";
layers = (
{
layerId = "ABE41ABD-D787-4F86-A3B4-502CADE9F2A5";
shapes = (
{
closed = 1;
nodes = (
(417,0,l),
(569,714,l),
(421,714,l),
(359,422,l),
(81,422,l),
(54,296,l),
(332,296,l),
(296,125,l),
(17,125,l),
(-9,0,l)
);
}
);
width = 524;
}
);
metricLeft = "=|weBlackfoot-canadian";
metricRight = "nunavuth-canadian";
note = uni15B5;
unicode = 5557;
},
{
glyphname = "woBlackfoot-canadian";
lastChange = "2023-01-13 15:31:51 +0000";
layers = (
{
layerId = "ABE41ABD-D787-4F86-A3B4-502CADE9F2A5";
shapes = (
{
closed = 1;
nodes = (
(425,0,l),
(452,125,l),
(173,125,l),
(209,296,l),
(488,296,l),
(515,422,l),
(236,422,l),
(298,714,l),
(151,714,l),
(-1,0,l)
);
}
);
width = 523;
}
);
metricLeft = "nunavuth-canadian";
metricRight = "weBlackfoot-canadian";
note = uni15B6;
unicode = 5558;
},
{
glyphname = "waBlackfoot-canadian";
lastChange = "2023-01-13 15:28:19 +0000";
layers = (
{
layerId = "ABE41ABD-D787-4F86-A3B4-502CADE9F2A5";
shapes = (
{
closed = 1;
nodes = (
(417,0,l),
(569,714,l),
(142,714,l),
(116,589,l),
(395,589,l),
(358,418,l),
(79,418,l),
(53,292,l),
(332,292,l),
(269,0,l)
);
}
);
width = 524;
}
);
metricLeft = "=|weBlackfoot-canadian";
metricRight = "nunavuth-canadian";
note = uni15B7;
unicode = 5559;
},
{
glyphname = "neBlackfoot-canadian";
lastChange = "2023-01-13 15:28:19 +0000";
layers = (
{
layerId = "ABE41ABD-D787-4F86-A3B4-502CADE9F2A5";
shapes = (
{
closed = 1;
nodes = (
(146,0,l),
(275,607,l),
(327,607,l),
(306,690,l),
(298,652,ls),
(266,499,o),
(339,400,o),
(487,400,cs),
(616,400,o),
(699,477,o),
(732,629,cs),
(750,714,l),
(606,714,l),
(585,615,ls),
(573,558,o),
(544,530,o),
(497,530,cs),
(445,530,o),
(423,565,o),
(436,624,cs),
(455,714,l),
(151,714,l),
(-1,0,l)
);
}
);
width = 677;
}
);
metricLeft = "nunavuth-canadian";
note = uni15B8;
unicode = 5560;
},
{
glyphname = "niBlackfoot-canadian";
lastChange = "2023-01-13 15:28:19 +0000";
layers = (
{
layerId = "ABE41ABD-D787-4F86-A3B4-502CADE9F2A5";
shapes = (
{
closed = 1;
nodes = (
(115,0,l),
(136,99,ls),
(148,156,o),
(177,184,o),
(224,184,cs),
(276,184,o),
(298,149,o),
(285,90,cs),
(266,0,l),
(570,0,l),
(722,714,l),
(575,714,l),
(446,107,l),
(394,107,l),
(415,24,l),
(423,62,ls),
(455,215,o),
(382,314,o),
(234,314,cs),
(105,314,o),
(22,237,o),
(-11,85,cs),
(-29,0,l)
);
}
);
width = 677;
}
);
metricLeft = "=|neBlackfoot-canadian";
metricRight = "nunavuth-canadian";
note = uni15B9;
unicode = 5561;
},
{
glyphname = "noBlackfoot-canadian";
lastChange = "2023-01-13 15:28:19 +0000";
layers = (
{
layerId = "ABE41ABD-D787-4F86-A3B4-502CADE9F2A5";
shapes = (
{
closed = 1;
nodes = (
(303,0,l),
(324,94,ls),
(338,157,o),
(364,186,o),
(410,186,cs),
(463,186,o),
(484,149,o),
(471,85,cs),
(454,0,l),
(598,0,l),
(610,55,ls),
(643,211,o),
(567,314,o),
(420,314,cs),
(293,314,o),
(212,237,o),
(178,83,cs),
(165,24,l),
(221,107,l),
(169,107,l),
(298,714,l),
(151,714,l),
(-1,0,l)
);
}
);
width = 677;
}
);
metricLeft = "nunavuth-canadian";
metricRight = "neBlackfoot-canadian";
note = uni15BA;
unicode = 5562;
},
{
glyphname = "naBlackfoot-canadian";
lastChange = "2023-01-13 15:28:19 +0000";
layers = (
{
layerId = "ABE41ABD-D787-4F86-A3B4-502CADE9F2A5";
shapes = (
{
closed = 1;
nodes = (
(570,0,l),
(722,714,l),
(418,714,l),
(397,620,ls),
(383,557,o),
(357,528,o),
(311,528,cs),
(258,528,o),
(237,565,o),
(250,629,cs),
(267,714,l),
(123,714,l),
(111,659,ls),
(78,503,o),
(154,400,o),
(301,400,cs),
(428,400,o),
(509,477,o),
(543,631,cs),
(556,690,l),
(501,607,l),
(552,607,l),
(423,0,l)
);
}
);
width = 677;
}
);
metricLeft = "=|neBlackfoot-canadian";
metricRight = "nunavuth-canadian";
note = uni15BB;
unicode = 5563;
},
{
glyphname = "keBlackfoot-canadian";
lastChange = "2023-01-13 15:28:19 +0000";
layers = (
{
layerId = "ABE41ABD-D787-4F86-A3B4-502CADE9F2A5";
shapes = (
{
closed = 1;
nodes = (
(146,0,l),
(262,544,l),
(212,544,l),
(284,260,l),
(345,260,l),
(651,714,l),
(487,714,l),
(298,430,l),
(357,422,l),
(286,714,l),
(151,714,l),
(-1,0,l)
);
}
);
width = 562;
}
);
metricLeft = "nunavuth-canadian";
note = uni15BC;
unicode = 5564;
},
{
glyphname = "kiBlackfoot-canadian";
lastChange = "2023-01-13 15:28:19 +0000";
layers = (
{
layerId = "ABE41ABD-D787-4F86-A3B4-502CADE9F2A5";
shapes = (
{
closed = 1;
nodes = (
(119,0,l),
(308,285,l),
(248,292,l),
(319,0,l),
(455,0,l),
(607,714,l),
(459,714,l),
(344,171,l),
(394,171,l),
(322,455,l),
(261,455,l),
(-45,0,l)
);
}
);
width = 562;
}
);
metricLeft = "=|keBlackfoot-canadian";
metricRight = "nunavuth-canadian";
note = uni15BD;
unicode = 5565;
},
{
glyphname = "koBlackfoot-canadian";
lastChange = "2023-01-13 15:28:19 +0000";
layers = (
{
layerId = "ABE41ABD-D787-4F86-A3B4-502CADE9F2A5";
shapes = (
{
closed = 1;
nodes = (
(134,0,l),
(350,291,l),
(277,300,l),
(349,0,l),
(499,0,l),
(386,454,l),
(325,454,l),
(133,170,l),
(183,170,l),
(298,714,l),
(151,714,l),
(-1,0,l)
);
}
);
width = 562;
}
);
metricLeft = "nunavuth-canadian";
metricRight = "keBlackfoot-canadian";
note = uni15BE;
unicode = 5566;
},
{
glyphname = "kaBlackfoot-canadian";
lastChange = "2023-01-13 15:28:19 +0000";
layers = (
{
layerId = "ABE41ABD-D787-4F86-A3B4-502CADE9F2A5";
shapes = (
{
closed = 1;
nodes = (
(455,0,l),
(607,714,l),
(471,714,l),
(256,424,l),
(329,414,l),
(257,714,l),
(107,714,l),
(219,260,l),
(281,260,l),
(472,544,l),
(423,544,l),
(307,0,l)
);
}
);
width = 562;
}
);
metricLeft = "=|keBlackfoot-canadian";
metricRight = "nunavuth-canadian";
note = uni15BF;
unicode = 5567;
},
{
color = 9;
glyphname = "heSayisi-canadian";
lastChange = "2023-01-13 15:28:19 +0000";
layers = (
{
anchors = (
{
name = top_right_can;
pos = (588,714);
}
);
layerId = "ABE41ABD-D787-4F86-A3B4-502CADE9F2A5";
shapes = (
{
closed = 1;
nodes = (
(509,0,l),
(661,714,l),
(515,714,l),
(439,353,l),
(462,353,l),
(509,589,o),
(452,728,o),
(310,728,cs),
(198,728,o),
(120,642,o),
(84,481,cs),
(75,435,o),
(69,393,o),
(68,342,c),
(208,342,l),
(210,387,o),
(214,424,o),
(223,465,cs),
(242,552,o),
(279,600,o),
(329,600,cs),
(432,600,o),
(448,411,o),
(361,0,c)
);
}
);
width = 616;
}
);
metricRight = "nunavuth-canadian";
note = uni15C0;
unicode = 5568;
},
{
color = 9;
glyphname = "hiSayisi-canadian";
lastChange = "2023-01-13 15:31:51 +0000";
layers = (
{
layerId = "ABE41ABD-D787-4F86-A3B4-502CADE9F2A5";
shapes = (
{
closed = 1;
nodes = (
(146,0,l),
(230,385,o),
(329,600,o),
(425,600,cs),
(479,600,o),
(497,535,o),
(474,421,cs),
(466,387,o),
(459,364,o),
(450,342,c),
(590,342,l),
(602,372,o),
(611,399,o),
(618,429,cs),
(655,611,o),
(601,728,o),
(481,728,cs),
(356,728,o),
(251,595,o),
(201,372,c),
(224,372,l),
(297,714,l),
(151,714,l),
(-1,0,l)
);
}
);
width = 617;
}
);
metricLeft = "nunavuth-canadian";
metricRight = "=|heSayisi-canadian";
note = uni15C1;
unicode = 5569;
},
{
color = 9;
glyphname = "hoSayisi-canadian";
lastChange = "2023-01-13 15:31:51 +0000";
layers = (
{
anchors = (
{
name = top_center_can;
pos = (402,714);
},
{
name = top_left_can;
pos = (215,714);
},
{
name = top_right_can;
pos = (589,714);
}
);
layerId = "ABE41ABD-D787-4F86-A3B4-502CADE9F2A5";
shapes = (
{
closed = 1;
nodes = (
(304,-14,o),
(410,119,o),
(459,342,c),
(437,342,l),
(364,0,l),
(510,0,l),
(662,714,l),
(514,714,l),
(431,329,o),
(331,114,o),
(236,114,cs),
(181,114,o),
(163,179,o),
(187,293,cs),
(195,327,o),
(202,350,o),
(211,372,c),
(71,372,l),
(59,342,o),
(50,315,o),
(43,285,cs),
(5,103,o),
(60,-14,o),
(179,-14,cs)
);
}
);
width = 617;
}
);
metricLeft = "heSayisi-canadian";
metricRight = "nunavuth-canadian";
note = uni15C2;
unicode = 5570;
},
{
color = 9;
glyphname = "haSayisi-canadian";
lastChange = "2023-01-13 15:28:19 +0000";
layers = (
{
layerId = "ABE41ABD-D787-4F86-A3B4-502CADE9F2A5";
shapes = (
{
closed = 1;
nodes = (
(461,-14,o),
(539,72,o),
(576,233,cs),
(585,279,o),
(590,321,o),
(591,372,c),
(452,372,l),
(450,327,o),
(446,290,o),
(436,249,cs),
(417,162,o),
(381,114,o),
(330,114,cs),
(228,114,o),
(212,303,o),
(298,714,c),
(151,714,l),
(-1,0,l),
(145,0,l),
(221,361,l),
(198,361,l),
(151,125,o),
(208,-14,o),
(350,-14,cs)
);
}
);
width = 616;
}
);
metricLeft = "nunavuth-canadian";
metricRight = "=|heSayisi-canadian";
note = uni15C3;
unicode = 5571;
},
{
color = 9;
glyphname = "ghuCarrier-canadian";
lastChange = "2023-01-13 15:31:51 +0000";
layers = (
{
layerId = "ABE41ABD-D787-4F86-A3B4-502CADE9F2A5";
shapes = (
{
closed = 1;
nodes = (
(285,0,l),
(708,678,l),
(715,714,l),
(587,714,l),
(468,514,l),
(520,536,l),
(224,536,l),
(268,513,l),
(234,714,l),
(117,714,l),
(110,678,l),
(243,0,l)
);
},
{
closed = 1;
nodes = (
(460,428,l),
(435,451,l),
(278,189,l),
(325,181,l),
(278,446,l),
(242,428,l)
);
}
);
width = 637;
}
);
metricLeft = "e-canadian";
metricRight = "e-canadian";
note = uni15C4;
unicode = 5572;
},
{
color = 9;
glyphname = "ghoCarrier-canadian";
lastChange = "2023-01-13 15:28:19 +0000";
layers = (
{
layerId = "ABE41ABD-D787-4F86-A3B4-502CADE9F2A5";
shapes = (
{
closed = 1;
nodes = (
(94,0,l),
(215,200,l),
(161,178,l),
(457,178,l),
(413,201,l),
(447,0,l),
(564,0,l),
(571,36,l),
(438,714,l),
(396,714,l),
(-27,36,l),
(-34,0,l)
);
},
{
closed = 1;
nodes = (
(421,405,l),
(289,412,l),
(315,269,l),
(421,405,l),
(288,407,l),
(334,262,l)
);
}
);
width = 637;
}
);
metricLeft = "e-canadian";
metricRight = "e-canadian";
note = uni15C5;
unicode = 5573;
},
{
color = 9;
glyphname = "gheCarrier-canadian";
lastChange = "2023-01-13 15:31:51 +0000";
layers = (
{
anchors = (
{
name = middle_center_can;
pos = (92,371);
}
);
layerId = "ABE41ABD-D787-4F86-A3B4-502CADE9F2A5";
shapes = (
{
closed = 1;
nodes = (
(17,0,l),
(564,334,l),
(574,380,l),
(169,714,l),
(135,714,l),
(112,608,l),
(238,503,l),
(229,592,l),
(136,155,l),
(176,235,l),
(11,134,l),
(-17,0,l)
);
},
{
closed = 1;
nodes = (
(318,534,l),
(279,487,l),
(466,329,l),
(472,405,l),
(234,259,l),
(250,214,l)
);
}
);
width = 574;
}
);
metricLeft = "po-canadian";
metricRight = "o-canadian";
note = uni15C6;
unicode = 5574;
},
{
color = 9;
glyphname = "ghaCarrier-canadian";
lastChange = "2023-01-13 15:28:19 +0000";
layers = (
{
layerId = "ABE41ABD-D787-4F86-A3B4-502CADE9F2A5";
shapes = (
{
closed = 1;
nodes = (
(484,0,l),
(507,106,l),
(381,211,l),
(390,122,l),
(483,559,l),
(442,479,l),
(607,580,l),
(636,714,l),
(602,714,l),
(54,380,l),
(44,334,l),
(449,0,l)
);
},
{
closed = 1;
nodes = (
(339,227,l),
(175,366,l),
(172,325,l),
(385,455,l),
(362,471,l),
(310,221,l)
);
}
);
width = 574;
}
);
metricLeft = "=|o-canadian";
metricRight = "=|po-canadian";
note = uni15C9;
unicode = 5577;
},
{
color = 9;
glyphname = "ruCarrier-canadian";
lastChange = "2023-01-13 15:31:51 +0000";
layers = (
{
layerId = "ABE41ABD-D787-4F86-A3B4-502CADE9F2A5";
shapes = (
{
closed = 1;
nodes = (
(285,0,l),
(708,678,l),
(715,714,l),
(583,714,l),
(527,620,l),
(572,645,l),
(211,645,l),
(250,619,l),
(234,714,l),
(117,714,l),
(110,678,l),
(243,0,l)
);
},
{
closed = 1;
nodes = (
(513,535,l),
(499,561,l),
(278,194,l),
(325,186,l),
(258,556,l),
(227,535,l)
);
}
);
width = 637;
}
);
metricLeft = "e-canadian";
metricRight = "e-canadian";
note = uni15CA;
unicode = 5578;
},
{
color = 9;
glyphname = "roCarrier-canadian";
lastChange = "2023-01-13 15:28:19 +0000";
layers = (
{
layerId = "ABE41ABD-D787-4F86-A3B4-502CADE9F2A5";
shapes = (
{
closed = 1;
nodes = (
(396,714,l),
(-27,36,l),
(-34,0,l),
(98,0,l),
(154,94,l),
(109,69,l),
(470,69,l),
(431,95,l),
(447,0,l),
(563,0,l),
(571,36,l),
(438,714,l)
);
},
{
closed = 1;
nodes = (
(168,179,l),
(182,153,l),
(403,520,l),
(356,528,l),
(423,158,l),
(454,179,l)
);
}
);
width = 636;
}
);
metricLeft = "e-canadian";
metricRight = "e-canadian";
note = uni15CB;
unicode = 5579;
},
{
color = 9;
glyphname = "reCarrier-canadian";
lastChange = "2023-01-13 15:28:19 +0000";
layers = (
{
layerId = "ABE41ABD-D787-4F86-A3B4-502CADE9F2A5";
shapes = (
{
closed = 1;
nodes = (
(18,0,l),
(563,334,l),
(573,380,l),
(169,714,l),
(134,714,l),
(112,610,l),
(182,550,l),
(172,637,l),
(58,105,l),
(94,182,l),
(10,129,l),
(-18,0,l)
);
},
{
closed = 1;
nodes = (
(261,563,l),
(224,516,l),
(448,328,l),
(453,403,l),
(166,223,l),
(179,179,l)
);
}
);
width = 573;
}
);
metricLeft = "po-canadian";
metricRight = "o-canadian";
note = uni15CC;
unicode = 5580;
},
{
color = 9;
glyphname = "reeCarrier-canadian";
lastChange = "2023-01-13 15:28:19 +0000";
layers = (
{
layerId = "ABE41ABD-D787-4F86-A3B4-502CADE9F2A5";
shapes = (
{
closed = 1;
nodes = (
(17,0,l),
(563,334,l),
(573,380,l),
(169,714,l),
(134,714,l),
(115,625,l),
(173,575,l),
(174,650,l),
(55,93,l),
(86,168,l),
(7,118,l),
(-18,0,l)
);
},
{
closed = 1;
nodes = (
(253,597,l),
(218,550,l),
(484,329,l),
(489,404,l),
(140,189,l),
(156,143,l)
);
},
{
closed = 1;
nodes = (
(271,298,l),
(301,440,l),
(254,440,l),
(223,298,l)
);
}
);
width = 573;
}
);
metricLeft = "po-canadian";
metricRight = "o-canadian";
note = uni15CD;
unicode = 5581;
},
{
color = 9;
glyphname = "riCarrier-canadian";
lastChange = "2023-01-13 15:28:19 +0000";
layers = (
{
layerId = "ABE41ABD-D787-4F86-A3B4-502CADE9F2A5";
shapes = (
{
closed = 1;
nodes = (
(17,0,l),
(563,334,l),
(573,380,l),
(169,714,l),
(134,714,l),
(115,625,l),
(176,572,l),
(174,650,l),
(55,93,l),
(93,172,l),
(7,118,l),
(-18,0,l)
);
},
{
closed = 1;
nodes = (
(312,328,o),
(335,348,o),
(335,374,cs),
(335,401,o),
(312,420,o),
(287,420,cs),
(263,420,o),
(241,401,o),
(241,374,cs),
(241,348,o),
(263,328,o),
(287,328,cs)
);
},
{
closed = 1;
nodes = (
(253,597,l),
(214,553,l),
(484,329,l),
(489,404,l),
(143,192,l),
(156,143,l)
);
}
);
width = 573;
}
);
metricLeft = "po-canadian";
metricRight = "o-canadian";
note = uni15CE;
unicode = 5582;
},
{
color = 9;
glyphname = "raCarrier-canadian";
lastChange = "2023-01-13 15:31:51 +0000";
layers = (
{
layerId = "ABE41ABD-D787-4F86-A3B4-502CADE9F2A5";
shapes = (
{
closed = 1;
nodes = (
(483,0,l),
(506,104,l),
(436,164,l),
(446,77,l),
(559,609,l),
(524,532,l),
(608,585,l),
(635,714,l),
(600,714,l),
(54,380,l),
(44,334,l),
(448,0,l)
);
},
{
closed = 1;
nodes = (
(394,198,l),
(170,386,l),
(165,311,l),
(452,491,l),
(439,535,l),
(357,151,l)
);
}
);
width = 574;
}
);
metricLeft = "=|o-canadian";
metricRight = "=|po-canadian";
note = uni15CF;
unicode = 5583;
},
{
color = 9;
glyphname = "wuCarrier-canadian";
lastChange = "2023-01-13 15:28:19 +0000";
layers = (
{
layerId = "ABE41ABD-D787-4F86-A3B4-502CADE9F2A5";
shapes = (
{
closed = 1;
nodes = (
(293,0,l),
(723,678,l),
(731,714,l),
(606,714,l),
(353,285,l),
(383,285,l),
(474,714,l),
(363,714,l),
(271,284,l),
(302,284,l),
(226,714,l),
(117,714,l),
(110,678,l),
(251,0,l)
);
}
);
width = 652;
}
);
metricLeft = "e-canadian";
metricRight = "e-canadian";
note = uni15D0;
unicode = 5584;
},
{
color = 9;
glyphname = "woCarrier-canadian";
lastChange = "2023-01-13 15:28:19 +0000";
layers = (
{
layerId = "ABE41ABD-D787-4F86-A3B4-502CADE9F2A5";
shapes = (
{
closed = 1;
nodes = (
(91,0,l),
(343,429,l),
(314,429,l),
(222,0,l),
(334,0,l),
(425,430,l),
(394,430,l),
(471,0,l),
(579,0,l),
(586,36,l),
(446,714,l),
(403,714,l),
(-27,36,l),
(-34,0,l)
);
}
);
width = 652;
}
);
metricLeft = "e-canadian";
metricRight = "e-canadian";
note = uni15D1;
unicode = 5585;
},
{
color = 9;
glyphname = "weCarrier-canadian";
lastChange = "2023-01-13 15:28:19 +0000";
layers = (
{
layerId = "ABE41ABD-D787-4F86-A3B4-502CADE9F2A5";
shapes = (
{
closed = 1;
nodes = (
(33.995,0,l),
(580,334,l),
(590,380,l),
(185.995,714,l),
(151,714,l),
(129,608,l),
(377,406,l),
(384,427,l),
(90,427,l),
(66,316,l),
(360,316,l),
(368,335,l),
(27,132,l),
(0,0,l)
);
}
);
width = 590;
}
);
metricRight = "o-canadian";
note = uni15D2;
unicode = 5586;
},
{
color = 9;
glyphname = "weeCarrier-canadian";
lastChange = "2023-01-13 15:28:19 +0000";
layers = (
{
layerId = "ABE41ABD-D787-4F86-A3B4-502CADE9F2A5";
shapes = (
{
closed = 1;
nodes = (
(34,0,l),
(580,334,l),
(590,380,l),
(186,714,l),
(152,714,l),
(131,618,l),
(430,376,l),
(444,415,l),
(226,415,l),
(239,478,l),
(164,478,l),
(150,415,l),
(88,415,l),
(69,328,l),
(132,328,l),
(118,265,l),
(194,265,l),
(207,328,l),
(427,328,l),
(411,354,l),
(25,122,l),
(0,0,l)
);
}
);
width = 590;
}
);
metricLeft = "weCarrier-canadian";
metricRight = "o-canadian";
note = uni15D3;
unicode = 5587;
},
{
color = 9;
glyphname = "wiCarrier-canadian";
lastChange = "2023-01-13 15:28:19 +0000";
layers = (
{
layerId = "ABE41ABD-D787-4F86-A3B4-502CADE9F2A5";
shapes = (
{
closed = 1;
nodes = (
(34,0,l),
(580,334,l),
(590,380,l),
(186,714,l),
(151,714,l),
(131,618,l),
(403,399,l),
(417,419,l),
(276,419,l),
(263,445,o),
(236,462,o),
(204,462,cs),
(172,462,o),
(144,445,o),
(131,419,c),
(88,419,l),
(70,333,l),
(132,333,l),
(146,308,o),
(173,291,o),
(204,291,cs),
(234,291,o),
(261,308,o),
(275,333,c),
(399,333,l),
(391,342,l),
(25,123,l),
(0,0,l)
);
}
);
width = 590;
}
);
metricLeft = "weCarrier-canadian";
metricRight = "o-canadian";
note = uni15D4;
unicode = 5588;
},
{
color = 9;
glyphname = "waCarrier-canadian";
lastChange = "2023-01-13 15:28:19 +0000";
layers = (
{
layerId = "ABE41ABD-D787-4F86-A3B4-502CADE9F2A5";
shapes = (
{
closed = 1;
nodes = (
(483,0,l),
(505,106,l),
(258,308,l),
(251,287,l),
(544,287,l),
(568,398,l),
(275,398,l),
(267,379,l),
(607,582,l),
(634,714,l),
(600,714,l),
(54,380,l),
(44,334,l),
(448,0,l)
);
}
);
width = 590;
}
);
metricLeft = "=|o-canadian";
metricRight = "=|weCarrier-canadian";
note = uni15D5;
unicode = 5589;
},
{
color = 9;
glyphname = "hwuCarrier-canadian";
lastChange = "2023-01-13 15:28:19 +0000";
layers = (
{
layerId = "ABE41ABD-D787-4F86-A3B4-502CADE9F2A5";
shapes = (
{
closed = 1;
nodes = (
(293,0,l),
(723,678,l),
(731,714,l),
(615,714,l),
(508,538,l),
(540,554,l),
(426,554,l),
(460,714,l),
(374,714,l),
(340,554,l),
(222,554,l),
(251,540,l),
(217,714,l),
(117,714,l),
(110,678,l),
(251,0,l)
);
},
{
closed = 1;
nodes = (
(302,219,l),
(252,500,l),
(230,479,l),
(331,479,l),
(276,218,l)
);
},
{
closed = 1;
nodes = (
(402,479,l),
(500,479,l),
(491,500,l),
(326,224,l),
(347,216,l)
);
}
);
width = 652;
}
);
metricLeft = "e-canadian";
metricRight = "e-canadian";
note = uni15D6;
unicode = 5590;
},
{
color = 9;
glyphname = "hwoCarrier-canadian";
lastChange = "2023-01-13 15:28:19 +0000";
layers = (
{
layerId = "ABE41ABD-D787-4F86-A3B4-502CADE9F2A5";
shapes = (
{
closed = 1;
nodes = (
(81,0,l),
(189,176,l),
(156,160,l),
(270,160,l),
(236,0,l),
(322,0,l),
(356,160,l),
(474,160,l),
(446,174,l),
(479,0,l),
(579,0,l),
(586,36,l),
(445,714,l),
(403,714,l),
(-27,36,l),
(-34,0,l)
);
},
{
closed = 1;
nodes = (
(370,490,l),
(350,498,l),
(294,235,l),
(196,235,l),
(206,214,l)
);
},
{
closed = 1;
nodes = (
(466,235,l),
(365,235,l),
(420,496,l),
(394,495,l),
(444,214,l)
);
}
);
width = 652;
}
);
metricLeft = "e-canadian";
metricRight = "e-canadian";
note = uni15D7;
unicode = 5591;
},
{
color = 9;
glyphname = "hweCarrier-canadian";
lastChange = "2023-01-13 15:28:19 +0000";
layers = (
{
layerId = "ABE41ABD-D787-4F86-A3B4-502CADE9F2A5";
shapes = (
{
closed = 1;
nodes = (
(33,0,l),
(580,334,l),
(590,380,l),
(185,714,l),
(151,714,l),
(131,618,l),
(224,543,l),
(197,415,l),
(87,415,l),
(68,323,l),
(177,323,l),
(151,198,l),
(25,122,l),
(-1,0,l)
);
},
{
closed = 1;
nodes = (
(251,333,l),
(403,333,l),
(230,233,l)
);
},
{
closed = 1;
nodes = (
(287,505,l),
(413,405,l),
(266,405,l)
);
}
);
width = 590;
}
);
metricLeft = "weCarrier-canadian";
metricRight = "o-canadian";
note = uni15D8;
unicode = 5592;
},
{
color = 9;
glyphname = "hweeCarrier-canadian";
lastChange = "2023-01-13 15:28:19 +0000";
layers = (
{
layerId = "ABE41ABD-D787-4F86-A3B4-502CADE9F2A5";
shapes = (
{
closed = 1;
nodes = (
(33.995,0,l),
(580,334,l),
(590,380,l),
(185,714,l),
(151,714,l),
(132,625,l),
(261,521,l),
(237,408,l),
(195,408,l),
(208,474,l),
(148,474,l),
(134,408,l),
(86,408,l),
(70,332,l),
(118,332,l),
(104,266,l),
(164,266,l),
(178,332,l),
(221,332,l),
(197,219,l),
(24,116,l),
(-1,0,l)
);
},
{
closed = 1;
nodes = (
(285,339,l),
(411,339,l),
(267,252,l)
);
},
{
closed = 1;
nodes = (
(316,485,l),
(418,401,l),
(299,401,l)
);
}
);
width = 590;
}
);
metricLeft = "weCarrier-canadian";
metricRight = "o-canadian";
note = uni15D9;
unicode = 5593;
},
{
color = 9;
glyphname = "hwiCarrier-canadian";
lastChange = "2023-01-13 15:28:19 +0000";
layers = (
{
layerId = "ABE41ABD-D787-4F86-A3B4-502CADE9F2A5";
shapes = (
{
closed = 1;
nodes = (
(33.995,0,l),
(580,334,l),
(590,380,l),
(185.995,714,l),
(151,714,l),
(133,625,l),
(261,520,l),
(236,401,l),
(213,401,l),
(203,422,o),
(183,436,o),
(159,436,cs),
(135,436,o),
(115,422,o),
(104,401,c),
(85,401,l),
(71,338,l),
(104,338,l),
(114,317,o),
(135,303,o),
(158,303,cs),
(181,303,o),
(202,317,o),
(213,338,c),
(222,338,l),
(197,219,l),
(24,116,l),
(-1,0,l)
);
},
{
closed = 1;
nodes = (
(285,338,l),
(409,338,l),
(267,252,l)
);
},
{
closed = 1;
nodes = (
(316,486,l),
(419,401,l),
(298,401,l)
);
}
);
width = 590;
}
);
metricLeft = "weCarrier-canadian";
metricRight = "o-canadian";
note = uni15DA;
unicode = 5594;
},
{
color = 9;
glyphname = "hwaCarrier-canadian";
lastChange = "2023-01-13 15:31:51 +0000";
layers = (
{
layerId = "ABE41ABD-D787-4F86-A3B4-502CADE9F2A5";
shapes = (
{
closed = 1;
nodes = (
(601,714,l),
(54,380,l),
(44,334,l),
(449,0,l),
(483,0,l),
(503,96,l),
(410,171,l),
(437,299,l),
(547,299,l),
(566,391,l),
(457,391,l),
(483,516,l),
(610,592,l),
(635,714,l)
);
},
{
closed = 1;
nodes = (
(383,381,l),
(232,381,l),
(405,481,l)
);
},
{
closed = 1;
nodes = (
(347,209,l),
(221,309,l),
(368,309,l)
);
}
);
width = 591;
}
);
metricLeft = "=|o-canadian";
metricRight = "=|weCarrier-canadian";
note = uni15DB;
unicode = 5595;
},
{
color = 9;
glyphname = "thuCarrier-canadian";
lastChange = "2023-01-13 15:28:19 +0000";
layers = (
{
layerId = "ABE41ABD-D787-4F86-A3B4-502CADE9F2A5";
shapes = (
{
closed = 1;
nodes = (
(458,-14,o),
(552,73,o),
(590,250,cs),
(688,714,l),
(148,714,l),
(59,292,ls),
(18,101,o),
(111,-14,o),
(295,-14,cs)
);
},
{
closed = 1;
nodes = (
(268,583,l),
(513,583,l),
(445,262,ls),
(424,163,o),
(380,121,o),
(306,121,cs),
(216,121,o),
(181,175,o),
(203,278,cs)
);
}
);
width = 641;
}
);
metricLeft = "te-canadian";
metricRight = "te-canadian";
note = uni15DC;
unicode = 5596;
},
{
color = 9;
glyphname = "thoCarrier-canadian";
lastChange = "2023-01-13 15:31:51 +0000";
layers = (
{
layerId = "ABE41ABD-D787-4F86-A3B4-502CADE9F2A5";
shapes = (
{
closed = 1;
nodes = (
(536,0,l),
(626,422,ls),
(667,613,o),
(573,728,o),
(390,728,cs),
(227,728,o),
(133,641,o),
(95,464,cs),
(-4,0,l)
);
},
{
closed = 1;
nodes = (
(240,452,ls),
(261,551,o),
(304,593,o),
(379,593,cs),
(469,593,o),
(503,539,o),
(481,436,cs),
(417,131,l),
(172,131,l)
);
}
);
width = 640;
}
);
metricLeft = "te-canadian";
metricRight = "te-canadian";
note = uni15DD;
unicode = 5597;
},
{
color = 9;
glyphname = "theCarrier-canadian";
lastChange = "2023-01-13 15:28:19 +0000";
layers = (
{
anchors = (
{
name = middle_center_can;
pos = (343,357);
}
);
layerId = "ABE41ABD-D787-4F86-A3B4-502CADE9F2A5";
shapes = (
{
closed = 1;
nodes = (
(211,0,ls),
(519,0,o),
(623,243,o),
(623,438,cs),
(623,612,o),
(521,714,o),
(334,714,cs),
(151,714,l),
(-1,0,l)
);
},
{
closed = 1;
nodes = (
(283,645,l),
(229,585,l),
(309,585,ls),
(418,585,o),
(478,529,o),
(478,425,cs),
(478,303,o),
(412,129,o),
(221,129,cs),
(143,129,l),
(162,74,l)
);
}
);
width = 639;
}
);
metricLeft = "nunavuth-canadian";
metricRight = "to-canadian";
note = uni15DE;
unicode = 5598;
},
{
color = 9;
glyphname = "thaCarrier-canadian";
lastChange = "2023-01-13 15:31:51 +0000";
layers = (
{
layerId = "ABE41ABD-D787-4F86-A3B4-502CADE9F2A5";
shapes = (
{
closed = 1;
nodes = (
(531,0,l),
(683,714,l),
(471,714,ls),
(164,714,o),
(60,471,o),
(60,276,cs),
(60,102,o),
(162,0,o),
(349,0,cs)
);
},
{
closed = 1;
nodes = (
(205,411,o),
(270,585,o),
(462,585,cs),
(540,585,l),
(521,640,l),
(399,69,l),
(453,129,l),
(374,129,ls),
(264,129,o),
(205,185,o),
(205,289,cs)
);
}
);
width = 638;
}
);
metricLeft = "=|theCarrier-canadian";
metricRight = "nunavuth-canadian";
note = uni15E1;
unicode = 5601;
},
{
color = 9;
glyphname = "ttuCarrier-canadian";
lastChange = "2023-01-13 15:31:51 +0000";
layers = (
{
layerId = "ABE41ABD-D787-4F86-A3B4-502CADE9F2A5";
shapes = (
{
closed = 1;
nodes = (
(458,-14,o),
(551,70,o),
(589,249,cs),
(688,714,l),
(647,714,l),
(318,517,l),
(424,505,l),
(191,714,l),
(148,714,l),
(58,290,ls),
(18,100,o),
(108,-14,o),
(294,-14,cs)
);
},
{
closed = 1;
nodes = (
(216,121,o),
(181,175,o),
(203,276,cs),
(264,563,l),
(198,541,l),
(342,412,l),
(367,412,l),
(560,529,l),
(509,562,l),
(445,264,ls),
(424,164,o),
(380,121,o),
(303,121,cs)
);
}
);
width = 640;
}
);
metricLeft = "te-canadian";
metricRight = "te-canadian";
note = uni15E2;
unicode = 5602;
},
{
color = 9;
glyphname = "ttoCarrier-canadian";
lastChange = "2023-01-13 15:31:51 +0000";
layers = (
{
layerId = "ABE41ABD-D787-4F86-A3B4-502CADE9F2A5";
shapes = (
{
closed = 1;
nodes = (
(38,0,l),
(367,197,l),
(261,209,l),
(493,0,l),
(536,0,l),
(626,424,ls),
(667,614,o),
(576,728,o),
(391,728,cs),
(227,728,o),
(134,644,o),
(95,465,cs),
(-4,0,l)
);
},
{
closed = 1;
nodes = (
(468,593,o),
(503,539,o),
(482,438,cs),
(421,151,l),
(486,173,l),
(343,302,l),
(318,302,l),
(125,185,l),
(176,152,l),
(239,450,ls),
(261,550,o),
(304,593,o),
(381,593,cs)
);
}
);
width = 640;
}
);
metricLeft = "te-canadian";
metricRight = "te-canadian";
note = uni15E3;
unicode = 5603;
},
{
color = 9;
glyphname = "tteCarrier-canadian";
lastChange = "2023-01-13 15:28:19 +0000";
layers = (
{
anchors = (
{
name = middle_center_can;
pos = (387,357);
}
);
layerId = "ABE41ABD-D787-4F86-A3B4-502CADE9F2A5";
shapes = (
{
closed = 1;
nodes = (
(222,0,ls),
(520,0,o),
(634,234,o),
(634,438,cs),
(634,612,o),
(532,714,o),
(351,714,cs),
(146.996,714,l),
(139,678,l),
(180,309,l),
(200,433,l),
(3,36,l),
(-4,0,l)
);
},
{
closed = 1;
nodes = (
(310,345,l),
(314,365,l),
(281,650,l),
(230,585,l),
(320,585,ls),
(429,585,o),
(489,528,o),
(489,425,cs),
(489,303,o),
(423,129,o),
(232,129,cs),
(144,129,l),
(174,70,l)
);
}
);
width = 650;
}
);
metricRight = "theCarrier-canadian";
note = uni15E4;
unicode = 5604;
},
{
color = 9;
glyphname = "ttaCarrier-canadian";
lastChange = "2023-01-13 15:28:19 +0000";
layers = (
{
layerId = "ABE41ABD-D787-4F86-A3B4-502CADE9F2A5";
shapes = (
{
closed = 1;
nodes = (
(546,0,l),
(554,36,l),
(513,405,l),
(493,281,l),
(690,678,l),
(697,714,l),
(471,714,ls),
(173,714,o),
(60,480,o),
(60,276,cs),
(60,102,o),
(161,0,o),
(342,0,cs)
);
},
{
closed = 1;
nodes = (
(463,129,l),
(373,129,ls),
(264,129,o),
(205,186,o),
(205,289,cs),
(205,411,o),
(270,585,o),
(461,585,cs),
(549,585,l),
(519,644,l),
(383,369,l),
(379,349,l),
(412,64,l)
);
}
);
width = 649;
}
);
metricLeft = "=|theCarrier-canadian";
metricRight = "=|tteCarrier-canadian";
note = uni15E7;
unicode = 5607;
},
{
color = 9;
glyphname = "puCarrier-canadian";
lastChange = "2023-01-13 15:28:19 +0000";
layers = (
{
layerId = "ABE41ABD-D787-4F86-A3B4-502CADE9F2A5";
shapes = (
{
closed = 1;
nodes = (
(458,-14,o),
(552,73,o),
(590,250,cs),
(688,714,l),
(540.994,714,l),
(510,567,l),
(265,567,l),
(296,714,l),
(148,714,l),
(59,292,ls),
(18,101,o),
(111,-14,o),
(295,-14,cs)
);
},
{
closed = 1;
nodes = (
(216,121,o),
(181,175,o),
(203,278,cs),
(237,437,l),
(482,437,l),
(445,262,ls),
(424,163,o),
(380,121,o),
(306,121,cs)
);
}
);
width = 641;
}
);
metricLeft = "te-canadian";
metricRight = "te-canadian";
note = uni15E8;
unicode = 5608;
},
{
color = 9;
glyphname = "poCarrier-canadian";
lastChange = "2023-01-13 15:31:51 +0000";
layers = (
{
layerId = "ABE41ABD-D787-4F86-A3B4-502CADE9F2A5";
shapes = (
{
closed = 1;
nodes = (
(144,0,l),
(175,147,l),
(420,147,l),
(388.994,0,l),
(536,0,l),
(626,422,ls),
(667,613,o),
(573,728,o),
(390,728,cs),
(227,728,o),
(133,641,o),
(95,464,cs),
(-4,0,l)
);
},
{
closed = 1;
nodes = (
(240,452,ls),
(261,551,o),
(304,593,o),
(379,593,cs),
(469,593,o),
(503,539,o),
(481,436,cs),
(448,277,l),
(203,277,l)
);
}
);
width = 640;
}
);
metricLeft = "te-canadian";
metricRight = "te-canadian";
note = uni15E9;
unicode = 5609;
},
{
color = 9;
glyphname = "peCarrier-canadian";
lastChange = "2023-01-13 15:28:19 +0000";
layers = (
{
anchors = (
{
name = middle_center_can;
pos = (373,357);
}
);
layerId = "ABE41ABD-D787-4F86-A3B4-502CADE9F2A5";
shapes = (
{
closed = 1;
nodes = (
(221,0,ls),
(528,0,o),
(632,243,o),
(632,438,cs),
(632,612,o),
(530,714,o),
(349,714,cs),
(146,714,l),
(118,585,l),
(186,585,l),
(90,129,l),
(21,129,l),
(-6.005,0,l)
);
},
{
closed = 1;
nodes = (
(346,649,l),
(203,585,l),
(318,585,ls),
(427,585,o),
(487,528,o),
(487,425,cs),
(487,305,o),
(423,129,o),
(230,129,cs),
(106,129,l),
(222,65,l)
);
}
);
width = 648;
}
);
metricRight = "theCarrier-canadian";
note = uni15EA;
unicode = 5610;
},
{
color = 9;
glyphname = "paCarrier-canadian";
lastChange = "2023-01-13 15:31:51 +0000";
layers = (
{
layerId = "ABE41ABD-D787-4F86-A3B4-502CADE9F2A5";
shapes = (
{
closed = 1;
nodes = (
(546,0,l),
(573,129,l),
(506,129,l),
(602,585,l),
(670,585,l),
(698,714,l),
(471,714,ls),
(164,714,o),
(60,471,o),
(60,276,cs),
(60,102,o),
(162,0,o),
(343,0,cs)
);
},
{
closed = 1;
nodes = (
(489,129,l),
(374,129,ls),
(264,129,o),
(205,186,o),
(205,289,cs),
(205,409,o),
(269,585,o),
(462,585,cs),
(586,585,l),
(470,649,l),
(346,65,l)
);
}
);
width = 647;
}
);
metricLeft = "=|theCarrier-canadian";
metricRight = "=|peCarrier-canadian";
note = uni15ED;
unicode = 5613;
},
{
color = 6;
glyphname = "pCarrier-canadian";
lastChange = "2023-01-13 15:28:19 +0000";
layers = (
{
layerId = "ABE41ABD-D787-4F86-A3B4-502CADE9F2A5";
shapes = (
{
closed = 1;
nodes = (
(319,189,l),
(339,282,l),
(244,282,l),
(300,546,l),
(202,546,l),
(146,282,l),
(51,282,l),
(32,189,l)
);
}
);
width = 378;
}
);
metricLeft = "shorthorizontalstrokeFinal-canadian";
metricRight = "shorthorizontalstrokeFinal-canadian";
note = uni15EE;
unicode = 5614;
},
{
color = 9;
glyphname = "guCarrier-canadian";
lastChange = "2023-01-13 15:28:19 +0000";
layers = (
{
anchors = (
{
name = top_center_can;
pos = (470,714);
}
);
layerId = "ABE41ABD-D787-4F86-A3B4-502CADE9F2A5";
shapes = (
{
closed = 1;
nodes = (
(271,-14,o),
(334,30,o),
(379,122,c),
(320,122,l),
(334,32,o),
(386,-14,o),
(473,-14,cs),
(590,-14,o),
(653,55,o),
(681,188,cs),
(793,714,l),
(653,714,l),
(542,191,ls),
(532,142,o),
(509,118,o),
(473,118,cs),
(436,118,o),
(418,146,o),
(428,194,cs),
(539,714,l),
(402,714,l),
(291,192,ls),
(281,143,o),
(257,118,o),
(221,118,cs),
(183,118,o),
(167,145,o),
(177,194,cs),
(288,714,l),
(148,714,l),
(39,199,ls),
(11,68,o),
(66,-14,o),
(187,-14,cs)
);
}
);
width = 745;
}
);
metricRight = "=|";
note = uni15EF;
unicode = 5615;
},
{
color = 9;
glyphname = "goCarrier-canadian";
lastChange = "2023-01-13 15:28:19 +0000";
layers = (
{
layerId = "ABE41ABD-D787-4F86-A3B4-502CADE9F2A5";
shapes = (
{
closed = 1;
nodes = (
(137,0,l),
(247,523,ls),
(258,572,o),
(280,596,o),
(316,596,cs),
(354,596,o),
(371,568,o),
(361,520,cs),
(250,0,l),
(387,0,l),
(497,522,ls),
(508,571,o),
(532,596,o),
(568,596,cs),
(606,596,o),
(622,569,o),
(611,520,cs),
(501,0,l),
(641,0,l),
(750,515,ls),
(778,646,o),
(723,728,o),
(602,728,cs),
(517,728,o),
(455,684,o),
(409,592,c),
(469,592,l),
(455,682,o),
(404,728,o),
(316,728,cs),
(199,728,o),
(136,659,o),
(108,526,cs),
(-3,0,l)
);
}
);
width = 745;
}
);
metricLeft = "guCarrier-canadian";
metricRight = "guCarrier-canadian";
note = uni15F0;
unicode = 5616;
},
{
color = 9;
glyphname = "geCarrier-canadian";
lastChange = "2023-01-13 15:28:19 +0000";
layers = (
{
anchors = (
{
name = top_center_can;
pos = (423,714);
}
);
layerId = "ABE41ABD-D787-4F86-A3B4-502CADE9F2A5";
shapes = (
{
closed = 1;
nodes = (
(318,0,ls),
(486,0,o),
(582,89,o),
(582,224,cs),
(582,292,o),
(549,346,o),
(485,376,c),
(475,323,l),
(592,354,o),
(649,439,o),
(649,540,cs),
(649,646,o),
(571,714,o),
(455,714,cs),
(152,714,l),
(126,594,l),
(425,594,ls),
(475,594,o),
(503,566,o),
(503,522,cs),
(503,461,o),
(465,416,o),
(388,416,cs),
(88,416,l),
(63,298,l),
(362,298,ls),
(412,298,o),
(440,272,o),
(440,229,cs),
(440,185,o),
(418,120,o),
(325,120,cs),
(25,120,l),
(0,0,l)
);
}
);
width = 644;
}
);
metricLeft = "nunavuth-canadian";
note = uni15F1;
unicode = 5617;
},
{
color = 9;
glyphname = "geeCarrier-canadian";
lastChange = "2023-01-13 15:28:19 +0000";
layers = (
{
layerId = "ABE41ABD-D787-4F86-A3B4-502CADE9F2A5";
shapes = (
{
closed = 1;
nodes = (
(318,0,ls),
(486,0,o),
(582,89,o),
(582,224,cs),
(582,292,o),
(549,346,o),
(485,376,c),
(475,323,l),
(592,354,o),
(649,439,o),
(649,540,cs),
(649,646,o),
(571,714,o),
(455,714,cs),
(152,714,l),
(126,594,l),
(425,594,ls),
(475,594,o),
(503,566,o),
(503,522,cs),
(503,461,o),
(465,416,o),
(388,416,cs),
(348,416,l),
(365,495,l),
(282,495,l),
(265,416,l),
(88,416,l),
(63,298,l),
(240,298,l),
(223,221,l),
(307,221,l),
(323,298,l),
(362,298,ls),
(412,298,o),
(440,272,o),
(440,229,cs),
(440,185,o),
(418,120,o),
(325,120,cs),
(25,120,l),
(0,0,l)
);
}
);
width = 644;
}
);
metricLeft = "geCarrier-canadian";
metricRight = "geCarrier-canadian";
note = uni15F2;
unicode = 5618;
},
{
color = 9;
glyphname = "giCarrier-canadian";
lastChange = "2023-01-13 15:28:19 +0000";
layers = (
{
layerId = "ABE41ABD-D787-4F86-A3B4-502CADE9F2A5";
shapes = (
{
closed = 1;
nodes = (
(318,0,ls),
(486,0,o),
(582,89,o),
(582,224,cs),
(582,291,o),
(549,346,o),
(485,376,c),
(475,323,l),
(592,354,o),
(649,441,o),
(649,540,cs),
(649,646,o),
(571,714,o),
(455,714,cs),
(152,714,l),
(126,594,l),
(425,594,ls),
(475,594,o),
(503,566,o),
(503,522,cs),
(503,461,o),
(465,416,o),
(388,416,cs),
(359,416,l),
(398,377,l),
(391,422,o),
(352,457,o),
(303,457,cs),
(269,457,o),
(241,441,o),
(225,416,c),
(88,416,l),
(63,298,l),
(225,298,l),
(241,273,o),
(269,257,o),
(303,257,cs),
(352,257,o),
(389,292,o),
(397,338,c),
(339,298,l),
(362,298,ls),
(412,298,o),
(440,272,o),
(440,229,cs),
(440,185,o),
(418,120,o),
(325,120,cs),
(25,120,l),
(0,0,l)
);
}
);
width = 644;
}
);
metricLeft = "geCarrier-canadian";
metricRight = "geCarrier-canadian";
note = uni15F3;
unicode = 5619;
},
{
color = 9;
glyphname = "gaCarrier-canadian";
lastChange = "2023-01-13 15:28:19 +0000";
layers = (
{
anchors = (
{
name = top_center_can;
pos = (434,714);
}
);
layerId = "ABE41ABD-D787-4F86-A3B4-502CADE9F2A5";
shapes = (
{
closed = 1;
nodes = (
(536,0,l),
(562,120,l),
(263,120,ls),
(214,120,o),
(185,148,o),
(185,192,cs),
(185,253,o),
(223,298,o),
(300,298,cs),
(601,298,l),
(626,416,l),
(326,416,ls),
(276,416,o),
(248,442,o),
(248,485,cs),
(248,529,o),
(270,594,o),
(363,594,cs),
(663,594,l),
(688,714,l),
(370,714,ls),
(202,714,o),
(106,625,o),
(106,490,cs),
(106,422,o),
(139,368,o),
(203,338,c),
(214,391,l),
(96,360,o),
(39,275,o),
(39,174,cs),
(39,68,o),
(117,0,o),
(234,0,cs)
);
}
);
width = 644;
}
);
metricLeft = "=|geCarrier-canadian";
metricRight = "=|geCarrier-canadian";
note = uni15F4;
unicode = 5620;
},
{
color = 9;
glyphname = "khuCarrier-canadian";
lastChange = "2023-01-13 15:28:19 +0000";
layers = (
{
layerId = "ABE41ABD-D787-4F86-A3B4-502CADE9F2A5";
shapes = (
{
closed = 1;
nodes = (
(266,-14,o),
(326,25,o),
(370,105,c),
(322,108,l),
(340,28,o),
(390,-14,o),
(473,-14,cs),
(590,-14,o),
(653,55,o),
(681,188,cs),
(793,714,l),
(148,714,l),
(39,199,ls),
(11,68,o),
(66,-14,o),
(187,-14,cs)
);
},
{
closed = 1;
nodes = (
(183,118,o),
(167,145,o),
(177,194,cs),
(261,587,l),
(375,587,l),
(291,192,ls),
(281,143,o),
(257,118,o),
(221,118,cs)
);
},
{
closed = 1;
nodes = (
(436,118,o),
(418,146,o),
(428,194,cs),
(512,587,l),
(626,587,l),
(542,191,ls),
(532,142,o),
(509,118,o),
(473,118,cs)
);
}
);
width = 745;
}
);
metricLeft = "guCarrier-canadian";
metricRight = "guCarrier-canadian";
note = uni15F5;
unicode = 5621;
},
{
color = 9;
glyphname = "khoCarrier-canadian";
lastChange = "2023-01-13 15:28:19 +0000";
layers = (
{
layerId = "ABE41ABD-D787-4F86-A3B4-502CADE9F2A5";
shapes = (
{
closed = 1;
nodes = (
(641,0,l),
(750,515,ls),
(778,646,o),
(723,728,o),
(602,728,cs),
(523,728,o),
(463,689,o),
(419,609,c),
(467,606,l),
(449,686,o),
(398,728,o),
(315,728,cs),
(199,728,o),
(136,659,o),
(108,526,cs),
(-3,0,l)
);
},
{
closed = 1;
nodes = (
(247,523,ls),
(257,572,o),
(279,596,o),
(315,596,cs),
(353,596,o),
(370,568,o),
(360,520,cs),
(277,127,l),
(163,127,l)
);
},
{
closed = 1;
nodes = (
(497,522,ls),
(508,571,o),
(532,596,o),
(568,596,cs),
(606,596,o),
(622,569,o),
(611,520,cs),
(528,127,l),
(414,127,l)
);
}
);
width = 745;
}
);
metricLeft = "guCarrier-canadian";
metricRight = "guCarrier-canadian";
note = uni15F6;
unicode = 5622;
},
{
color = 9;
glyphname = "kheCarrier-canadian";
lastChange = "2023-01-13 15:31:51 +0000";
layers = (
{
layerId = "ABE41ABD-D787-4F86-A3B4-502CADE9F2A5";
shapes = (
{
closed = 1;
nodes = (
(325,0,ls),
(493,0,o),
(588,88,o),
(588,224,cs),
(588,290,o),
(556,343,o),
(494,373,c),
(487,325,l),
(615,361,o),
(656,457,o),
(656,540,cs),
(656,646,o),
(577,714,o),
(460,714,cs),
(151,714,l),
(-1,0,l)
);
},
{
closed = 1;
nodes = (
(209,299,l),
(369,299,ls),
(419,299,o),
(446,273,o),
(446,229,cs),
(446,180,o),
(419,118,o),
(332,118,cs),
(170,118,l)
);
},
{
closed = 1;
nodes = (
(272,596,l),
(431,596,ls),
(481,596,o),
(509,566,o),
(509,522,cs),
(509,469,o),
(479,415,o),
(394,415,cs),
(233,415,l)
);
}
);
width = 650;
}
);
metricLeft = "nunavuth-canadian";
metricRight = "geCarrier-canadian";
note = uni15F7;
unicode = 5623;
},
{
color = 9;
glyphname = "kheeCarrier-canadian";
lastChange = "2023-01-13 15:31:51 +0000";
layers = (
{
layerId = "ABE41ABD-D787-4F86-A3B4-502CADE9F2A5";
shapes = (
{
closed = 1;
nodes = (
(325,0,ls),
(493,0,o),
(588,88,o),
(588,224,cs),
(588,290,o),
(556,343,o),
(494,373,c),
(487,325,l),
(615,361,o),
(656,457,o),
(656,540,cs),
(656,646,o),
(577,714,o),
(460,714,cs),
(151,714,l),
(-1,0,l)
);
},
{
closed = 1;
nodes = (
(209,299,l),
(289,299,l),
(272,219,l),
(351,219,l),
(373,322,l),
(335,299,l),
(369,299,ls),
(419,299,o),
(446,273,o),
(446,229,cs),
(446,180,o),
(419,118,o),
(332,118,cs),
(170,118,l)
);
},
{
closed = 1;
nodes = (
(410,497,l),
(331,497,l),
(314,415,l),
(233,415,l),
(272,596,l),
(431,596,ls),
(481,596,o),
(509,566,o),
(509,522,cs),
(509,469,o),
(479,415,o),
(394,415,cs),
(359,415,l),
(388,393,l)
);
}
);
width = 650;
}
);
metricLeft = "nunavuth-canadian";
metricRight = "geCarrier-canadian";
note = uni15F8;
unicode = 5624;
},
{
color = 9;
glyphname = "khiCarrier-canadian";
lastChange = "2023-01-13 15:28:19 +0000";
layers = (
{
layerId = "ABE41ABD-D787-4F86-A3B4-502CADE9F2A5";
shapes = (
{
closed = 1;
nodes = (
(325,0,ls),
(493,0,o),
(588,88,o),
(588,224,cs),
(588,290,o),
(557,343,o),
(495,373,c),
(479,323,l),
(614,357,o),
(656,456,o),
(656,540,cs),
(656,646,o),
(577,714,o),
(460,714,cs),
(151,714,l),
(-1,0,l)
);
},
{
closed = 1;
nodes = (
(210,306,l),
(265,306,l),
(280,277,o),
(311,257,o),
(345,257,cs),
(396,257,o),
(434,298,o),
(439,349,c),
(346,306,l),
(375,306,ls),
(425,306,o),
(446,278,o),
(446,233,cs),
(446,182,o),
(419,118,o),
(332,118,cs),
(170,118,l)
);
},
{
closed = 1;
nodes = (
(431,596,ls),
(481,596,o),
(509,565,o),
(509,519,cs),
(509,466,o),
(485,409,o),
(401,409,cs),
(356,409,l),
(440,365,l),
(435,417,o),
(397,457,o),
(345,457,cs),
(295,457,o),
(254,417,o),
(252,365,c),
(289,409,l),
(232,409,l),
(272,596,l)
);
}
);
width = 651;
}
);
metricLeft = "nunavuth-canadian";
metricRight = "geCarrier-canadian";
note = uni15F9;
unicode = 5625;
},
{
color = 9;
glyphname = "khaCarrier-canadian";
lastChange = "2023-01-13 15:31:51 +0000";
layers = (
{
layerId = "ABE41ABD-D787-4F86-A3B4-502CADE9F2A5";
shapes = (
{
closed = 1;
nodes = (
(545,0,l),
(697,714,l),
(371,714,ls),
(203,714,o),
(107,626,o),
(107,490,cs),
(107,424,o),
(139,371,o),
(201,341,c),
(208,389,l),
(80,353,o),
(39,257,o),
(39,174,cs),
(39,68,o),
(118,0,o),
(235,0,cs)
);
},
{
closed = 1;
nodes = (
(214,118,o),
(186,148,o),
(186,192,cs),
(186,245,o),
(217,299,o),
(301,299,cs),
(462,299,l),
(424,118,l),
(264,118,ls)
);
},
{
closed = 1;
nodes = (
(277,415,o),
(250,441,o),
(250,485,cs),
(250,534,o),
(277,596,o),
(364,596,cs),
(526,596,l),
(487,415,l),
(327,415,ls)
);
}
);
width = 652;
}
);
metricLeft = "=|geCarrier-canadian";
metricRight = "nunavuth-canadian";
note = uni15FA;
unicode = 5626;
},
{
color = 9;
glyphname = "kkuCarrier-canadian";
lastChange = "2023-01-13 15:28:19 +0000";
layers = (
{
layerId = "ABE41ABD-D787-4F86-A3B4-502CADE9F2A5";
shapes = (
{
closed = 1;
nodes = (
(266,-14,o),
(325,24,o),
(370,105,c),
(322,106,l),
(340,28,o),
(390,-14,o),
(473,-14,cs),
(590,-14,o),
(653,54,o),
(681,188,cs),
(793,714,l),
(751,714,l),
(483,581,l),
(454,432,l),
(670,537,l),
(625,584,l),
(542,191,ls),
(532,142,o),
(509,118,o),
(473,118,cs),
(435,118,o),
(417,147,o),
(427,194,cs),
(538,714,l),
(403,714,l),
(293,192,ls),
(282,143,o),
(257,118,o),
(221,118,cs),
(183,118,o),
(167,145,o),
(177,194,cs),
(260,585,l),
(193,559,l),
(363,448,l),
(392,583,l),
(190,714,l),
(148,714,l),
(39,199,ls),
(11,67,o),
(66,-14,o),
(187,-14,cs)
);
}
);
width = 745;
}
);
metricLeft = "guCarrier-canadian";
metricRight = "guCarrier-canadian";
note = uni15FB;
unicode = 5627;
},
{
color = 9;
glyphname = "kkoCarrier-canadian";
lastChange = "2023-01-13 15:28:19 +0000";
layers = (
{
layerId = "ABE41ABD-D787-4F86-A3B4-502CADE9F2A5";
shapes = (
{
closed = 1;
nodes = (
(39,0,l),
(306,133,l),
(335,282,l),
(119,177,l),
(164,130,l),
(247,523,ls),
(258,572,o),
(279,596,o),
(315,596,cs),
(353,596,o),
(371,567,o),
(362,520,cs),
(251,0,l),
(385,0,l),
(496,522,ls),
(506,571,o),
(532,596,o),
(568,596,cs),
(606,596,o),
(622,569,o),
(611,520,cs),
(528,129,l),
(596,155,l),
(425,266,l),
(397,131,l),
(598,0,l),
(641,0,l),
(750,515,ls),
(778,647,o),
(723,728,o),
(602,728,cs),
(523,728,o),
(463,690,o),
(419,609,c),
(467,608,l),
(449,686,o),
(399,728,o),
(315,728,cs),
(199,728,o),
(136,660,o),
(108,526,cs),
(-3,0,l)
);
}
);
width = 745;
}
);
metricLeft = "guCarrier-canadian";
metricRight = "guCarrier-canadian";
note = uni15FC;
unicode = 5628;
},
{
color = 9;
glyphname = "kkeCarrier-canadian";
lastChange = "2023-01-13 15:28:19 +0000";
layers = (
{
layerId = "ABE41ABD-D787-4F86-A3B4-502CADE9F2A5";
shapes = (
{
closed = 1;
nodes = (
(338,0,ls),
(506,0,o),
(602,89,o),
(602,224,cs),
(602,292,o),
(570,343,o),
(508,373,c),
(501,325,l),
(629,361,o),
(669,457,o),
(669,540,cs),
(669,646,o),
(591,714,o),
(474,714,cs),
(149,714,l),
(141,678,l),
(170,416,l),
(95,416,l),
(70,298,l),
(137,298,l),
(5,36,l),
(-3,0,l)
);
},
{
closed = 1;
nodes = (
(284,298,l),
(382,298,ls),
(432,298,o),
(460,272,o),
(460,229,cs),
(460,185,o),
(438,120,o),
(345,120,cs),
(134,120,l),
(166,61,l)
);
},
{
closed = 1;
nodes = (
(280,661,l),
(223,594,l),
(445,594,ls),
(495,594,o),
(523,566,o),
(523,522,cs),
(523,461,o),
(485,416,o),
(408,416,cs),
(309,416,l)
);
}
);
width = 664;
}
);
metricRight = "geCarrier-canadian";
note = uni15FD;
unicode = 5629;
},
{
color = 9;
glyphname = "kkeeCarrier-canadian";
lastChange = "2023-01-13 15:28:19 +0000";
layers = (
{
layerId = "ABE41ABD-D787-4F86-A3B4-502CADE9F2A5";
shapes = (
{
closed = 1;
nodes = (
(338,0,ls),
(506,0,o),
(602,89,o),
(602,224,cs),
(602,292,o),
(570,343,o),
(508,373,c),
(501,325,l),
(629,361,o),
(669,457,o),
(669,540,cs),
(669,646,o),
(591,714,o),
(474,714,cs),
(149,714,l),
(141,678,l),
(170,416,l),
(95,416,l),
(70,298,l),
(137,298,l),
(5,36,l),
(-3,0,l)
);
},
{
closed = 1;
nodes = (
(286,303,l),
(324,303,l),
(306,218,l),
(385,218,l),
(409,330,l),
(369,303,l),
(395,303,ls),
(439,303,o),
(460,272,o),
(460,229,cs),
(460,185,o),
(438,120,o),
(345,120,cs),
(134,120,l),
(166,61,l)
);
},
{
closed = 1;
nodes = (
(444,497,l),
(365,497,l),
(347,412,l),
(309,412,l),
(280,661,l),
(223,594,l),
(445,594,ls),
(495,594,o),
(523,566,o),
(523,522,cs),
(523,461,o),
(485,412,o),
(414,412,cs),
(389,412,l),
(423,394,l)
);
}
);
width = 664;
}
);
metricLeft = "kkeCarrier-canadian";
metricRight = "geCarrier-canadian";
note = uni15FE;
unicode = 5630;
},
{
color = 9;
glyphname = "kkiCarrier-canadian";
lastChange = "2023-01-13 15:28:19 +0000";
layers = (
{
layerId = "ABE41ABD-D787-4F86-A3B4-502CADE9F2A5";
shapes = (
{
closed = 1;
nodes = (
(338,0,ls),
(506,0,o),
(602,89,o),
(602,224,cs),
(602,292,o),
(570,343,o),
(508,373,c),
(501,325,l),
(629,361,o),
(669,457,o),
(669,540,cs),
(669,646,o),
(591,714,o),
(474,714,cs),
(149,714,l),
(141,678,l),
(170,416,l),
(95,416,l),
(70,298,l),
(137,298,l),
(5,36,l),
(-3,0,l)
);
},
{
closed = 1;
nodes = (
(289,309,l),
(291,309,l),
(305,277,o),
(335,257,o),
(371,257,cs),
(410,257,o),
(442,283,o),
(454,319,c),
(364,309,l),
(395,309,ls),
(446,309,o),
(460,272,o),
(460,229,cs),
(460,185,o),
(438,120,o),
(345,120,cs),
(134,120,l),
(166,61,l)
);
},
{
closed = 1;
nodes = (
(448,429,o),
(414,457,o),
(371,457,cs),
(335,457,o),
(305,437,o),
(291,405,c),
(311,405,l),
(280,661,l),
(223,594,l),
(445,594,ls),
(495,594,o),
(523,566,o),
(523,522,cs),
(523,461,o),
(492,405,o),
(414,405,cs),
(365,405,l),
(457,388,l)
);
}
);
width = 664;
}
);
metricLeft = "kkeCarrier-canadian";
metricRight = "geCarrier-canadian";
note = uni15FF;
unicode = 5631;
},
{
color = 9;
glyphname = "kkaCarrier-canadian";
lastChange = "2023-01-13 15:28:19 +0000";
layers = (
{
layerId = "ABE41ABD-D787-4F86-A3B4-502CADE9F2A5";
shapes = (
{
closed = 1;
nodes = (
(559,0,l),
(567,36,l),
(538,298,l),
(613,298,l),
(638,416,l),
(571,416,l),
(703,678,l),
(711,714,l),
(370,714,ls),
(202,714,o),
(106,625,o),
(106,490,cs),
(106,422,o),
(138,371,o),
(200,341,c),
(207,389,l),
(79,353,o),
(39,257,o),
(39,174,cs),
(39,68,o),
(117,0,o),
(234,0,cs)
);
},
{
closed = 1;
nodes = (
(485,120,l),
(263,120,ls),
(214,120,o),
(185,148,o),
(185,192,cs),
(185,253,o),
(223,298,o),
(300,298,cs),
(399,298,l),
(428,53,l)
);
},
{
closed = 1;
nodes = (
(276,416,o),
(248,442,o),
(248,485,cs),
(248,529,o),
(270,594,o),
(363,594,cs),
(574,594,l),
(542,653,l),
(424,416,l),
(326,416,ls)
);
}
);
width = 664;
}
);
metricLeft = "=|geCarrier-canadian";
metricRight = "=|kkeCarrier-canadian";
note = uni1600;
unicode = 5632;
},
{
color = 6;
glyphname = "kkCarrier-canadian";
lastChange = "2023-01-13 15:28:19 +0000";
layers = (
{
layerId = "ABE41ABD-D787-4F86-A3B4-502CADE9F2A5";
shapes = (
{
closed = 1;
nodes = (
(290,546,l),
(150,299,l),
(212,299,l),
(177,546,l),
(87,546,l),
(84,528,l),
(150,189,l),
(172,189,l),
(383,528,l),
(387,546,l)
);
}
);
width = 350;
}
);
note = uni1601;
unicode = 5633;
},
{
color = 9;
glyphname = "nuCarrier-canadian";
lastChange = "2023-01-13 15:28:19 +0000";
layers = (
{
layerId = "ABE41ABD-D787-4F86-A3B4-502CADE9F2A5";
shapes = (
{
closed = 1;
nodes = (
(450,-14,o),
(553,81,o),
(590,251,cs),
(604,319,l),
(458,319,l),
(445,259,ls),
(426,167,o),
(380,121,o),
(304,121,cs),
(218,120,o),
(181,177,o),
(203,277,cs),
(296,714,l),
(148,714,l),
(57,286,ls),
(19,106,o),
(110,-14,o),
(292,-14,cs)
);
}
);
width = 630;
}
);
metricLeft = "te-canadian";
note = uni1602;
unicode = 5634;
},
{
color = 9;
glyphname = "noCarrier-canadian";
lastChange = "2023-01-13 15:31:51 +0000";
layers = (
{
layerId = "ABE41ABD-D787-4F86-A3B4-502CADE9F2A5";
shapes = (
{
closed = 1;
nodes = (
(526,0,l),
(617,428,ls),
(655,608,o),
(564,728,o),
(383,728,cs),
(225,728,o),
(122,633,o),
(85,463,cs),
(70,395,l),
(216,395,l),
(229,455,ls),
(249,547,o),
(295,593,o),
(370,593,cs),
(456,594,o),
(493,537,o),
(472,437,cs),
(379,0,l)
);
}
);
width = 630;
}
);
metricLeft = "=|nuCarrier-canadian";
metricRight = "te-canadian";
note = uni1603;
unicode = 5635;
},
{
color = 9;
glyphname = "neCarrier-canadian";
lastChange = "2023-01-13 15:28:19 +0000";
layers = (
{
anchors = (
{
name = middle_center_can;
pos = (308,357);
}
);
layerId = "ABE41ABD-D787-4F86-A3B4-502CADE9F2A5";
shapes = (
{
closed = 1;
nodes = (
(219,0,ls),
(506,0,o),
(625,220,o),
(625,434,cs),
(625,610,o),
(520,714,o),
(335,714,cs),
(132,714,l),
(104,580,l),
(311,580,ls),
(421,580,o),
(479,525,o),
(479,423,cs),
(479,309,o),
(424,134,o),
(233,134,cs),
(222,134,l),
(194,0,l)
);
}
);
width = 642;
}
);
metricRight = "theCarrier-canadian";
note = uni1604;
unicode = 5636;
},
{
color = 9;
glyphname = "naCarrier-canadian";
lastChange = "2023-01-13 15:28:19 +0000";
layers = (
{
layerId = "ABE41ABD-D787-4F86-A3B4-502CADE9F2A5";
shapes = (
{
closed = 1;
nodes = (
(554,0,l),
(582,134,l),
(375,134,ls),
(265,134,o),
(207,189,o),
(207,291,cs),
(207,405,o),
(263,580,o),
(453,580,cs),
(465,580,l),
(493,714,l),
(467,714,ls),
(181,714,o),
(61,494,o),
(61,280,cs),
(61,104,o),
(166,0,o),
(351,0,cs)
);
}
);
width = 642;
}
);
metricLeft = "=|theCarrier-canadian";
metricRight = "=|neCarrier-canadian";
note = uni1607;
unicode = 5639;
},
{
color = 9;
glyphname = "muCarrier-canadian";
lastChange = "2023-01-13 15:28:19 +0000";
layers = (
{
layerId = "ABE41ABD-D787-4F86-A3B4-502CADE9F2A5";
shapes = (
{
closed = 1;
nodes = (
(271,-14,o),
(334,29,o),
(379,122,c),
(320,122,l),
(334,33,o),
(386,-14,o),
(473,-14,cs),
(590,-14,o),
(653,55,o),
(681,188,cs),
(728,408,l),
(587,408,l),
(541,191,ls),
(531,142,o),
(508,118,o),
(474,118,cs),
(436,118,o),
(419,146,o),
(429,193,cs),
(474,408,l),
(337,408,l),
(291,192,ls),
(280,143,o),
(256,118,o),
(221,118,cs),
(184,118,o),
(168,145,o),
(178,194,cs),
(289,714,l),
(148,714,l),
(39,199,ls),
(11,68,o),
(66,-14,o),
(187,-14,cs)
);
}
);
width = 745;
}
);
metricLeft = "guCarrier-canadian";
metricRight = "=|";
note = uni1608;
unicode = 5640;
},
{
color = 9;
glyphname = "moCarrier-canadian";
lastChange = "2023-01-13 15:28:19 +0000";
layers = (
{
layerId = "ABE41ABD-D787-4F86-A3B4-502CADE9F2A5";
shapes = (
{
closed = 1;
nodes = (
(641,0,l),
(750,515,ls),
(778,646,o),
(723,728,o),
(602,728,cs),
(517,728,o),
(455,685,o),
(409,592,c),
(469,592,l),
(455,681,o),
(403,728,o),
(315,728,cs),
(199,728,o),
(137,659,o),
(108,526,cs),
(61,306,l),
(202,306,l),
(248,523,ls),
(259,572,o),
(280,596,o),
(315,596,cs),
(353,596,o),
(370,568,o),
(360,521,cs),
(314,306,l),
(452,306,l),
(498,522,ls),
(508,571,o),
(532,596,o),
(568,596,cs),
(605,596,o),
(621,569,o),
(610,520,cs),
(500,0,l)
);
}
);
width = 745;
}
);
metricLeft = "=|muCarrier-canadian";
metricRight = "guCarrier-canadian";
note = uni1609;
unicode = 5641;
},
{
color = 9;
glyphname = "meCarrier-canadian";
lastChange = "2023-01-13 15:31:51 +0000";
layers = (
{
layerId = "ABE41ABD-D787-4F86-A3B4-502CADE9F2A5";
shapes = (
{
closed = 1;
nodes = (
(321,0,ls),
(489,0,o),
(585,89,o),
(585,224,cs),
(585,292,o),
(551,346,o),
(487,376,c),
(477,323,l),
(595,354,o),
(652,439,o),
(652,540,cs),
(652,646,o),
(573,714,o),
(457,714,cs),
(132,714,l),
(106,594,l),
(428,594,ls),
(477,594,o),
(506,566,o),
(506,522,cs),
(506,461,o),
(468,416,o),
(391,416,cs),
(284,416,l),
(259,298,l),
(365,298,ls),
(415,298,o),
(443,272,o),
(443,229,cs),
(443,185,o),
(420,120,o),
(328,120,cs),
(221,120,l),
(196,0,l)
);
}
);
width = 647;
}
);
metricLeft = "neCarrier-canadian";
metricRight = "geCarrier-canadian";
note = uni160A;
unicode = 5642;
},
{
color = 9;
glyphname = "meeCarrier-canadian";
lastChange = "2023-01-13 15:31:51 +0000";
layers = (
{
layerId = "ABE41ABD-D787-4F86-A3B4-502CADE9F2A5";
shapes = (
{
closed = 1;
nodes = (
(321,0,ls),
(489,0,o),
(585,89,o),
(585,224,cs),
(585,292,o),
(551,346,o),
(487,376,c),
(477,323,l),
(595,354,o),
(652,439,o),
(652,540,cs),
(652,646,o),
(573,714,o),
(457,714,cs),
(132,714,l),
(106,594,l),
(428,594,ls),
(477,594,o),
(506,566,o),
(506,522,cs),
(506,461,o),
(468,413,o),
(393,413,cs),
(369,413,l),
(386,489,l),
(300,489,l),
(244,225,l),
(329,225,l),
(346,301,l),
(370,301,ls),
(416,301,o),
(443,272,o),
(443,229,cs),
(443,185,o),
(420,120,o),
(328,120,cs),
(221,120,l),
(196,0,l)
);
}
);
width = 647;
}
);
metricLeft = "neCarrier-canadian";
metricRight = "geCarrier-canadian";
note = uni160B;
unicode = 5643;
},
{
color = 9;
glyphname = "miCarrier-canadian";
lastChange = "2023-01-13 15:31:51 +0000";
layers = (
{
layerId = "ABE41ABD-D787-4F86-A3B4-502CADE9F2A5";
shapes = (
{
closed = 1;
nodes = (
(321,0,ls),
(480,0,o),
(562,74,o),
(581,186,cs),
(595,273,o),
(563,339,o),
(487,376,c),
(477,323,l),
(582,350,o),
(634,417,o),
(648,503,cs),
(670,626,o),
(590,714,o),
(457,714,cs),
(132,714,l),
(106,594,l),
(428,594,ls),
(481,594,o),
(511,560,o),
(504,508,cs),
(497,451,o),
(460,413,o),
(390,413,cs),
(336,413,l),
(416,371,l),
(410,421,o),
(372,458,o),
(320,458,cs),
(265,458,o),
(223,411,o),
(223,357,cs),
(223,301,o),
(265,257,o),
(320,257,cs),
(371,257,o),
(409,294,o),
(416,342,c),
(334,301,l),
(366,301,ls),
(421,301,o),
(449,270,o),
(442,216,cs),
(434,165,o),
(404,120,o),
(328,120,cs),
(221,120,l),
(196,0,l)
);
}
);
width = 645;
}
);
metricLeft = "neCarrier-canadian";
metricRight = "geCarrier-canadian";
note = uni160C;
unicode = 5644;
},
{
color = 9;
glyphname = "maCarrier-canadian";
lastChange = "2023-01-13 15:28:19 +0000";
layers = (
{
layerId = "ABE41ABD-D787-4F86-A3B4-502CADE9F2A5";
shapes = (
{
closed = 1;
nodes = (
(560,0,l),
(586,120,l),
(263,120,ls),
(214,120,o),
(185,148,o),
(185,192,cs),
(185,253,o),
(223,298,o),
(300,298,cs),
(406,298,l),
(431,416,l),
(326,416,ls),
(276,416,o),
(248,442,o),
(248,485,cs),
(248,529,o),
(270,594,o),
(363,594,cs),
(469,594,l),
(495,714,l),
(370,714,ls),
(202,714,o),
(106,625,o),
(106,490,cs),
(106,422,o),
(139,368,o),
(203,338,c),
(214,391,l),
(96,360,o),
(39,275,o),
(39,174,cs),
(39,68,o),
(117,0,o),
(234,0,cs)
);
}
);
width = 648;
}
);
metricLeft = "=|geCarrier-canadian";
metricRight = "=|neCarrier-canadian";
note = uni160D;
unicode = 5645;
},
{
color = 9;
glyphname = "yuCarrier-canadian";
lastChange = "2023-01-13 15:28:19 +0000";
layers = (
{
layerId = "ABE41ABD-D787-4F86-A3B4-502CADE9F2A5";
shapes = (
{
closed = 1;
nodes = (
(486,-14,o),
(610,115,o),
(665,370,cs),
(713,600,o),
(666,728,o),
(526,728,cs),
(372,728,o),
(315,568,o),
(315,459,cs),
(315,365,o),
(363,303,o),
(440,303,cs),
(453,303,o),
(465,305,o),
(475,309,c),
(498,422,l),
(493,421,o),
(488,420,o),
(482,420,cs),
(455,420,o),
(441,439,o),
(441,474,cs),
(441,513,o),
(458,611,o),
(509,611,cs),
(557,611,o),
(563,546,o),
(535,414,cs),
(492,208,o),
(429,121,o),
(314,121,cs),
(220,121,o),
(183,180,o),
(205,285,cs),
(296,714,l),
(148,714,l),
(60,296,ls),
(21,111,o),
(114,-14,o),
(300,-14,cs)
);
}
);
width = 690;
}
);
metricLeft = "te-canadian";
metricRight = "te-canadian";
note = uni160E;
unicode = 5646;
},
{
color = 9;
glyphname = "yoCarrier-canadian";
lastChange = "2023-01-13 15:28:19 +0000";
layers = (
{
layerId = "ABE41ABD-D787-4F86-A3B4-502CADE9F2A5";
shapes = (
{
closed = 1;
nodes = (
(362,-14,o),
(419,146,o),
(419,255,cs),
(419,349,o),
(372,411,o),
(295,411,cs),
(282,411,o),
(270,409,o),
(260,405,c),
(236,292,l),
(241,293,o),
(246,294,o),
(252,294,cs),
(279,294,o),
(293,275,o),
(293,240,cs),
(293,201,o),
(276,103,o),
(225,103,cs),
(178,103,o),
(172,168,o),
(199,300,cs),
(242,506,o),
(306,593,o),
(420,593,cs),
(514,593,o),
(552,534,o),
(530,429,cs),
(439,0,l),
(585.996,0,l),
(675,418,ls),
(714,603,o),
(620,728,o),
(435,728,cs),
(249,728,o),
(124,599,o),
(69,344,cs),
(21,114,o),
(68,-14,o),
(208,-14,cs)
);
}
);
width = 690;
}
);
metricLeft = "te-canadian";
metricRight = "te-canadian";
note = uni160F;
unicode = 5647;
},
{
color = 9;
glyphname = "yeCarrier-canadian";
lastChange = "2023-01-13 15:28:19 +0000";
layers = (
{
layerId = "ABE41ABD-D787-4F86-A3B4-502CADE9F2A5";
shapes = (
{
closed = 1;
nodes = (
(511,-14,o),
(618,252,o),
(618,432,cs),
(618,615,o),
(516,714,o),
(330,714,cs),
(149,714,l),
(121,580,l),
(305,580,ls),
(414,580,o),
(469,526,o),
(469,418,cs),
(469,308,o),
(424,110,o),
(268,110,cs),
(197,110,o),
(155,146,o),
(155,209,cs),
(155,245,o),
(171,317,o),
(222,317,cs),
(247,317,o),
(261,300,o),
(261,266,cs),
(261,241,o),
(254,210,o),
(245,185,c),
(355,185,l),
(367,217,o),
(376,256,o),
(376,290,cs),
(376,378,o),
(322,434,o),
(230,434,cs),
(89,434,o),
(31,294,o),
(31,189,cs),
(31,66,o),
(118,-14,o),
(262,-14,cs)
);
}
);
width = 634;
}
);
metricRight = "theCarrier-canadian";
note = uni1610;
unicode = 5648;
},
{
color = 9;
glyphname = "yeeCarrier-canadian";
lastChange = "2023-01-13 15:28:19 +0000";
layers = (
{
layerId = "ABE41ABD-D787-4F86-A3B4-502CADE9F2A5";
shapes = (
{
closed = 1;
nodes = (
(511,-14,o),
(618,253,o),
(618,434,cs),
(618,615,o),
(513.991,714,o),
(331,714,cs),
(149,714,l),
(121,580,l),
(305,580,ls),
(414,580,o),
(469,526,o),
(469,418,cs),
(469,320,o),
(428,110,o),
(268,110,cs),
(196,110,o),
(155,144,o),
(155,207,cs),
(155,245,o),
(172,317,o),
(220,317,cs),
(251,317,o),
(263,288,o),
(253,240,cs),
(243,194,l),
(327,194,l),
(394,505,l),
(309,505,l),
(272,331,l),
(287,330,l),
(297,391,o),
(261,434,o),
(199,434,cs),
(83,434,o),
(33,294,o),
(33,198,cs),
(33,70,o),
(118,-14,o),
(267,-14,cs)
);
}
);
width = 634;
}
);
metricRight = "theCarrier-canadian";
metricWidth = "yeCarrier-canadian";
note = uni1611;
unicode = 5649;
},
{
color = 9;
glyphname = "yiCarrier-canadian";
lastChange = "2023-01-13 15:28:19 +0000";
layers = (
{
layerId = "ABE41ABD-D787-4F86-A3B4-502CADE9F2A5";
shapes = (
{
closed = 1;
nodes = (
(513,-14,o),
(618,251,o),
(618,434,cs),
(618,615,o),
(516,714,o),
(331,714,cs),
(149,714,l),
(121,580,l),
(305,580,ls),
(414,580,o),
(469,526,o),
(469,418,cs),
(469,316,o),
(426,110,o),
(268,110,cs),
(194,110,o),
(153,147,o),
(153,208,cs),
(153,267,o),
(181,319,o),
(240,316,c),
(208,356,l),
(208,306,o),
(250,269,o),
(300,269,cs),
(353,269,o),
(392,308,o),
(392,358,cs),
(392,408,o),
(353,446,o),
(300,446,cs),
(267,446,o),
(239,431,o),
(223,407,c),
(98,396,o),
(28,299,o),
(28,187,cs),
(28,68,o),
(120,-14,o),
(260,-14,cs)
);
}
);
width = 634;
}
);
metricRight = "theCarrier-canadian";
metricWidth = "yeCarrier-canadian";
note = uni1612;
unicode = 5650;
},
{
color = 9;
glyphname = "yaCarrier-canadian";
lastChange = "2023-01-13 15:31:51 +0000";
layers = (
{
layerId = "ABE41ABD-D787-4F86-A3B4-502CADE9F2A5";
shapes = (
{
closed = 1;
nodes = (
(530,0,l),
(559,134,l),
(375,134,ls),
(266,134,o),
(210,188,o),
(210,296,cs),
(210,406,o),
(255,604,o),
(411,604,cs),
(483,604,o),
(524,568,o),
(524,505,cs),
(524,469,o),
(509,397,o),
(458,397,cs),
(432,397,o),
(419,414,o),
(419,448,cs),
(419,475,o),
(426,504,o),
(434,529,c),
(325,529,l),
(312,497,o),
(303,458,o),
(303,424,cs),
(303,336,o),
(358,280,o),
(449,280,cs),
(591,280,o),
(649,420,o),
(649,525,cs),
(649,648,o),
(561,728,o),
(418,728,cs),
(169,728,o),
(61,462,o),
(61,282,cs),
(61,99,o),
(164,0,o),
(350,0,cs)
);
}
);
width = 636;
}
);
metricLeft = "=|theCarrier-canadian";
metricRight = "=|yeCarrier-canadian";
note = uni1613;
unicode = 5651;
},
{
color = 9;
glyphname = "juCarrier-canadian";
lastChange = "2023-01-13 15:31:51 +0000";
layers = (
{
layerId = "ABE41ABD-D787-4F86-A3B4-502CADE9F2A5";
shapes = (
{
closed = 1;
nodes = (
(504,-14,o),
(601,122,o),
(601,266,cs),
(601,366,o),
(543,434,o),
(448,434,cs),
(332,434,o),
(278,338,o),
(270,239,cs),
(268,218,o),
(267,198,o),
(269,185,c),
(379,185,l),
(379,200,o),
(379,221,o),
(384,246,cs),
(392,287,o),
(410,317,o),
(439,317,cs),
(465,317,o),
(478,297,o),
(478,262,cs),
(478,195,o),
(443,110,o),
(338,110,cs),
(249,110,o),
(202,159,o),
(202,248,cs),
(202,421,o),
(326,580,o),
(562,580,cs),
(663,580,l),
(692,714,l),
(141,714,l),
(113,585,l),
(346,585,l),
(461,637,l),
(215,624,o),
(58,470,o),
(58,246,cs),
(58,89,o),
(160,-14,o),
(322,-14,cs)
);
}
);
width = 643;
}
);
metricRight = "=|yeCarrier-canadian";
note = uni1614;
unicode = 5652;
},
{
color = 9;
glyphname = "juSayisi-canadian";
lastChange = "2023-01-13 15:31:51 +0000";
layers = (
{
anchors = (
{
name = top_center_can;
pos = (426,714);
}
);
layerId = "ABE41ABD-D787-4F86-A3B4-502CADE9F2A5";
shapes = (
{
closed = 1;
nodes = (
(458,-14,o),
(576,138,o),
(600,319,cs),
(626,507,o),
(531,628,o),
(333,642,c),
(433,585,l),
(669,585,l),
(696,714,l),
(145,714,l),
(117,580,l),
(220,580,ls),
(409,580,o),
(480,499,o),
(457,335,cs),
(443,225,o),
(398,110,o),
(272,110,cs),
(189,110,o),
(147,153,o),
(156,229,cs),
(160,269,o),
(179,317,o),
(216,317,cs),
(246,317,o),
(256,293,o),
(252,248,cs),
(251,227,o),
(246,206,o),
(238,185,c),
(347,185,l),
(358,211,o),
(365,236,o),
(368,265,cs),
(380,367,o),
(327,434,o),
(226,434,cs),
(117,434,o),
(50,346,o),
(35,236,cs),
(13,90,o),
(106,-14,o),
(267,-14,cs)
);
}
);
width = 640;
}
);
metricLeft = "yeCarrier-canadian";
metricRight = "=|juCarrier-canadian";
note = uni1615;
unicode = 5653;
},
{
color = 9;
glyphname = "joCarrier-canadian";
lastChange = "2023-01-13 15:31:51 +0000";
layers = (
{
layerId = "ABE41ABD-D787-4F86-A3B4-502CADE9F2A5";
shapes = (
{
closed = 1;
nodes = (
(546,0,l),
(574,129,l),
(341,129,l),
(226,77,l),
(472,90,o),
(629,244,o),
(629,468,cs),
(629,625,o),
(527,728,o),
(365,728,cs),
(183,728,o),
(87,592,o),
(87,448,cs),
(87,348,o),
(144,280,o),
(239,280,cs),
(355,280,o),
(409,376,o),
(417,475,cs),
(419,496,o),
(419,516,o),
(418,529,c),
(308,529,l),
(308,514,o),
(308,493,o),
(303,468,cs),
(295,427,o),
(277,397,o),
(248,397,cs),
(222,397,o),
(209,417,o),
(209,452,cs),
(209,519,o),
(244,604,o),
(349,604,cs),
(438,604,o),
(484,555,o),
(484,466,cs),
(484,293,o),
(361,134,o),
(125,134,cs),
(24,134,l),
(-5,0,l)
);
}
);
width = 642;
}
);
metricLeft = "yeCarrier-canadian";
metricRight = "=|juCarrier-canadian";
note = uni1616;
unicode = 5654;
},
{
color = 9;
glyphname = "jeCarrier-canadian";
lastChange = "2023-01-13 15:31:51 +0000";
layers = (
{
layerId = "ABE41ABD-D787-4F86-A3B4-502CADE9F2A5";
shapes = (
{
closed = 1;
nodes = (
(607,-14,o),
(666,292,o),
(666,448,cs),
(666,619,o),
(594,728,o),
(465,728,cs),
(354,728,o),
(269,647,o),
(224,495,c),
(250,493,l),
(297,714,l),
(151,714,l),
(-1,0,l),
(146,0,l),
(215,323,ls),
(251,496,o),
(325,593,o),
(422,593,cs),
(493,593,o),
(527,543,o),
(527,443,cs),
(527,366,o),
(492,103,o),
(415,103,cs),
(390,103,o),
(376,121,o),
(376,155,cs),
(376,199,o),
(398,294,o),
(457,294,cs),
(463,294,o),
(470,293,o),
(474,292,c),
(495,405,l),
(482,409,o),
(467,411,o),
(450,411,cs),
(308,411,o),
(253,252,o),
(253,148,cs),
(253,48,o),
(309,-14,o),
(405,-14,cs)
);
}
);
width = 692;
}
);
metricLeft = "nunavuth-canadian";
metricRight = "te-canadian";
note = uni1617;
unicode = 5655;
},
{
color = 9;
glyphname = "jeeCarrier-canadian";
lastChange = "2023-01-13 15:31:51 +0000";
layers = (
{
layerId = "ABE41ABD-D787-4F86-A3B4-502CADE9F2A5";
shapes = (
{
closed = 1;
nodes = (
(607,-14,o),
(666,296,o),
(666,446,cs),
(666,619,o),
(594,728,o),
(465,728,cs),
(353,728,o),
(269,646,o),
(224,494,c),
(250,493,l),
(297,714,l),
(151,714,l),
(-1,0,l),
(146,0,l),
(212,310,ls),
(253,499,o),
(322,593,o),
(420,593,cs),
(493,593,o),
(527,543,o),
(527,441,cs),
(527,319,o),
(488,103,o),
(391,103,cs),
(347,103,o),
(324,131,o),
(324,180,cs),
(324,221,o),
(340,289,o),
(385,312,c),
(369,238,l),
(439,238,l),
(486,465,l),
(417,465,l),
(401,388,l),
(293,360,o),
(252,229,o),
(252,145,cs),
(252,48,o),
(309,-14,o),
(405,-14,cs)
);
}
);
width = 692;
}
);
metricLeft = "nunavuth-canadian";
metricRight = "jeCarrier-canadian";
note = uni1618;
unicode = 5656;
},
{
color = 9;
glyphname = "jiCarrier-canadian";
lastChange = "2023-01-13 15:31:51 +0000";
layers = (
{
layerId = "ABE41ABD-D787-4F86-A3B4-502CADE9F2A5";
shapes = (
{
closed = 1;
nodes = (
(607,-14,o),
(666,296,o),
(666,446,cs),
(666,619,o),
(594,728,o),
(465,728,cs),
(353,728,o),
(269,646,o),
(224,494,c),
(250,493,l),
(297,714,l),
(151,714,l),
(-1,0,l),
(146,0,l),
(212,310,ls),
(253,499,o),
(322,593,o),
(420,593,cs),
(493,593,o),
(527,543,o),
(527,441,cs),
(527,319,o),
(488,103,o),
(391,103,cs),
(347,103,o),
(324,131,o),
(324,180,cs),
(324,210,o),
(333,256,o),
(359,281,c),
(370,271,o),
(386,264,o),
(404,264,cs),
(452,264,o),
(486,303,o),
(486,352,cs),
(486,402,o),
(451,439,o),
(404,439,cs),
(350,439,o),
(314,389,o),
(324,335,c),
(272,287,o),
(252,204,o),
(252,145,cs),
(252,48,o),
(309,-14,o),
(405,-14,cs)
);
}
);
width = 692;
}
);
metricLeft = "nunavuth-canadian";
metricRight = "jeCarrier-canadian";
note = uni1619;
unicode = 5657;
},
{
color = 9;
glyphname = "jiSayisi-canadian";
lastChange = "2023-01-13 15:28:19 +0000";
layers = (
{
layerId = "ABE41ABD-D787-4F86-A3B4-502CADE9F2A5";
shapes = (
{
closed = 1;
nodes = (
(581,-14,o),
(685,336,o),
(685,521,cs),
(685,656,o),
(630,728,o),
(525,728,cs),
(372,728,o),
(319,563,o),
(319,458,cs),
(319,362,o),
(367,303,o),
(440,303,cs),
(457,303,o),
(467,305,o),
(475,309,c),
(501,422,l),
(496,421,o),
(491,420,o),
(484,420,cs),
(458,421,o),
(443,438,o),
(443,475,cs),
(443,509,o),
(461,611,o),
(513,611,cs),
(540,611,o),
(552,588,o),
(552,538,cs),
(552,454,o),
(500,121,o),
(334,121,cs),
(202,121,o),
(206,281,o),
(232,402,cs),
(298,714,l),
(151,714,l),
(-1,0,l),
(145,0,l),
(200,259,l),
(171,262,l),
(146,121,o),
(198,-14,o),
(345,-14,cs)
);
}
);
width = 693;
}
);
metricLeft = "nunavuth-canadian";
metricRight = "jeCarrier-canadian";
note = uni161A;
unicode = 5658;
},
{
color = 9;
glyphname = "jaCarrier-canadian";
lastChange = "2023-01-13 15:28:19 +0000";
layers = (
{
anchors = (
{
name = top_center_can;
pos = (437,714);
}
);
layerId = "ABE41ABD-D787-4F86-A3B4-502CADE9F2A5";
shapes = (
{
closed = 1;
nodes = (
(383,-14,o),
(468,68,o),
(513,220,c),
(487,222,l),
(440,1,l),
(586,1,l),
(738,715,l),
(591,715,l),
(522,392,ls),
(485,219,o),
(412,121,o),
(315,121,cs),
(244,121,o),
(210,172,o),
(210,272,cs),
(210,348,o),
(245,612,o),
(322,612,cs),
(347,612,o),
(361,593,o),
(361,560,cs),
(361,516,o),
(339,421,o),
(280,421,cs),
(273,421,o),
(267,422,o),
(263,423,c),
(242,310,l),
(255,306,o),
(270,304,o),
(287,304,cs),
(429,304,o),
(484,462,o),
(484,567,cs),
(484,667,o),
(428,729,o),
(332,729,cs),
(130,729,o),
(71,423,o),
(71,266,cs),
(71,96,o),
(143,-14,o),
(272,-14,cs)
);
}
);
width = 693;
}
);
metricLeft = "=|jeCarrier-canadian";
metricRight = "nunavuth-canadian";
note = uni161B;
unicode = 5659;
},
{
color = 9;
glyphname = "jjuCarrier-canadian";
lastChange = "2023-01-13 15:31:51 +0000";
layers = (
{
layerId = "ABE41ABD-D787-4F86-A3B4-502CADE9F2A5";
shapes = (
{
closed = 1;
nodes = (
(491,-14,o),
(598,120,o),
(598,271,cs),
(598,369,o),
(540,434,o),
(447,434,cs),
(354,434,o),
(293,370,o),
(269,262,cs),
(263,235,o),
(260,206,o),
(260,185,c),
(370,185,l),
(371,195,o),
(374,219,o),
(379,242,cs),
(390,290,o),
(409,317,o),
(438,317,cs),
(463,317,o),
(475,297,o),
(475,265,cs),
(475,199,o),
(438,107,o),
(333,107,cs),
(248,107,o),
(203,158,o),
(203,251,cs),
(203,436,o),
(314,580,o),
(523,580,cs),
(657,580,l),
(686,714,l),
(546,714,ls),
(441,714,o),
(347,688,o),
(272,643,c),
(207,728,l),
(89,638,l),
(159,548,l),
(92,469,o),
(60,362,o),
(60,257,cs),
(60,95,o),
(159,-14,o),
(318,-14,cs)
);
}
);
width = 639;
}
);
metricRight = "=|yeCarrier-canadian";
note = uni161C;
unicode = 5660;
},
{
color = 9;
glyphname = "jjoCarrier-canadian";
lastChange = "2023-01-13 15:31:51 +0000";
layers = (
{
layerId = "ABE41ABD-D787-4F86-A3B4-502CADE9F2A5";
shapes = (
{
closed = 1;
nodes = (
(594,76,l),
(524,166,l),
(591,245,o),
(623,352,o),
(623,457,cs),
(623,619,o),
(524,728,o),
(364,728,cs),
(192,728,o),
(85,594,o),
(85,443,cs),
(85,345,o),
(143,280,o),
(235,280,cs),
(328,280,o),
(390,344,o),
(414,452,cs),
(420,479,o),
(423,508,o),
(423,529,c),
(313,529,l),
(312,519,o),
(309,495,o),
(304,472,cs),
(293,424,o),
(274,397,o),
(245,397,cs),
(220,397,o),
(208,417,o),
(208,449,cs),
(208,515,o),
(244,607,o),
(350,607,cs),
(435,607,o),
(480,556,o),
(480,463,cs),
(480,278,o),
(369,134,o),
(159,134,cs),
(25,134,l),
(-3,0,l),
(137,0,ls),
(242,0,o),
(335,26,o),
(411,71,c),
(476,-14,l)
);
}
);
width = 639;
}
);
metricLeft = "yeCarrier-canadian";
metricRight = "=|jjuCarrier-canadian";
note = uni161D;
unicode = 5661;
},
{
color = 9;
glyphname = "jjeCarrier-canadian";
lastChange = "2023-01-13 15:31:51 +0000";
layers = (
{
layerId = "ABE41ABD-D787-4F86-A3B4-502CADE9F2A5";
shapes = (
{
closed = 1;
nodes = (
(617,-14,o),
(675,293,o),
(675,446,cs),
(675,628,o),
(588,728,o),
(431,728,cs),
(363,728,o),
(299,708,o),
(245,665,c),
(189,728,l),
(80,627,l),
(149,550,l),
(124,506,o),
(105,454,o),
(91,392,cs),
(8,0,l),
(155,0,l),
(238,389,ls),
(267,524,o),
(328,593,o),
(421,593,cs),
(499,593,o),
(536,545,o),
(536,443,cs),
(536,369,o),
(501,103,o),
(424,103,cs),
(398,103,o),
(385,121,o),
(385,156,cs),
(385,199,o),
(407,294,o),
(464,294,cs),
(472,294,o),
(478,293,o),
(483,292,c),
(504,405,l),
(493,409,o),
(476,411,o),
(460,411,cs),
(317,411,o),
(262,253,o),
(262,149,cs),
(262,48,o),
(317,-14,o),
(414,-14,cs)
);
}
);
width = 701;
}
);
metricRight = "jeCarrier-canadian";
note = uni161E;
unicode = 5662;
},
{
color = 9;
glyphname = "jjeeCarrier-canadian";
lastChange = "2023-01-13 15:31:51 +0000";
layers = (
{
layerId = "ABE41ABD-D787-4F86-A3B4-502CADE9F2A5";
shapes = (
{
closed = 1;
nodes = (
(617,-14,o),
(675,293,o),
(675,446,cs),
(675,628,o),
(588,728,o),
(431,728,cs),
(363,728,o),
(299,708,o),
(245,665,c),
(189,728,l),
(80,627,l),
(149,550,l),
(124,506,o),
(105,454,o),
(91,392,cs),
(8,0,l),
(155,0,l),
(238,389,ls),
(267,524,o),
(328,593,o),
(421,593,cs),
(499,593,o),
(536,545,o),
(536,443,cs),
(536,352,o),
(506,103,o),
(404,103,cs),
(362,103,o),
(333,128,o),
(333,181,cs),
(333,236,o),
(353,296,o),
(394,314,c),
(378,238,l),
(447,238,l),
(495,464,l),
(426,464,l),
(410,387,l),
(305,360,o),
(262,239,o),
(262,149,cs),
(262,48,o),
(317,-14,o),
(414,-14,cs)
);
}
);
width = 701;
}
);
metricLeft = "jjeCarrier-canadian";
metricRight = "jeCarrier-canadian";
note = uni161F;
unicode = 5663;
},
{
color = 9;
glyphname = "jjiCarrier-canadian";
lastChange = "2023-01-13 15:31:51 +0000";
layers = (
{
layerId = "ABE41ABD-D787-4F86-A3B4-502CADE9F2A5";
shapes = (
{
closed = 1;
nodes = (
(538,-14,o),
(617,94,o),
(658,289,cs),
(715,563,o),
(629,728,o),
(431,728,cs),
(360,728,o),
(297,707,o),
(245,666,c),
(189,728,l),
(80,627,l),
(149,551,l),
(124,507,o),
(104,453,o),
(91,392,cs),
(8,0,l),
(155,0,l),
(238,389,ls),
(267,524,o),
(328,593,o),
(421,593,cs),
(528,593,o),
(562,498,o),
(520,298,cs),
(492,164,o),
(461,103,o),
(400,103,cs),
(345,103,o),
(323,149,o),
(338,223,cs),
(343,250,o),
(352,271,o),
(367,282,c),
(379,271,o),
(396,264,o),
(415,264,cs),
(463,264,o),
(497,303,o),
(497,352,cs),
(497,401,o),
(462,439,o),
(415,439,cs),
(353,439,o),
(327,379,o),
(335,335,c),
(302,307,o),
(279,262,o),
(268,206,cs),
(240,73,o),
(300,-14,o),
(413,-14,cs)
);
}
);
width = 700;
}
);
metricLeft = "jjeCarrier-canadian";
metricRight = "jeCarrier-canadian";
note = uni1620;
unicode = 5664;
},
{
color = 9;
glyphname = "jjaCarrier-canadian";
lastChange = "2023-01-13 15:31:51 +0000";
layers = (
{
layerId = "ABE41ABD-D787-4F86-A3B4-502CADE9F2A5";
shapes = (
{
closed = 1;
nodes = (
(383,-14,o),
(447,6,o),
(501,49,c),
(557,-14,l),
(666,87,l),
(597,164,l),
(622,208,o),
(641,260,o),
(655,322,cs),
(738,714,l),
(591,714,l),
(508,325,ls),
(479,190,o),
(418,121,o),
(325,121,cs),
(247,121,o),
(210,169,o),
(210,271,cs),
(210,345,o),
(245,611,o),
(322,611,cs),
(348,611,o),
(361,593,o),
(361,558,cs),
(361,515,o),
(339,420,o),
(282,420,cs),
(274,420,o),
(268,421,o),
(263,422,c),
(242,309,l),
(253,305,o),
(270,303,o),
(286,303,cs),
(429,303,o),
(484,461,o),
(484,565,cs),
(484,666,o),
(428,728,o),
(332,728,cs),
(129,728,o),
(71,421,o),
(71,268,cs),
(71,86,o),
(158,-14,o),
(315,-14,cs)
);
}
);
width = 702;
}
);
metricLeft = "=|jeCarrier-canadian";
metricRight = "=|jjeCarrier-canadian";
note = uni1621;
unicode = 5665;
},
{
color = 9;
glyphname = "luCarrier-canadian";
lastChange = "2023-01-13 15:31:51 +0000";
layers = (
{
layerId = "ABE41ABD-D787-4F86-A3B4-502CADE9F2A5";
shapes = (
{
closed = 1;
nodes = (
(458,-14,o),
(553,71,o),
(591,247,cs),
(690,714,l),
(543,714,l),
(447,263,ls),
(426,165,o),
(383,121,o),
(311,121,cs),
(242,121,o),
(206,164,o),
(206,246,cs),
(206,356,o),
(263,568,o),
(413,597,c),
(439,714,l),
(143,714,l),
(117,593,l),
(274,593,l),
(386,638,l),
(169,629,o),
(57,418,o),
(57,235,cs),
(57,84,o),
(147,-14,o),
(307,-14,cs)
);
}
);
width = 642;
}
);
metricRight = "te-canadian";
note = uni1622;
unicode = 5666;
},
{
color = 9;
glyphname = "loCarrier-canadian";
lastChange = "2023-01-13 15:28:19 +0000";
layers = (
{
layerId = "ABE41ABD-D787-4F86-A3B4-502CADE9F2A5";
shapes = (
{
closed = 1;
nodes = (
(144,0,l),
(240,451,ls),
(261,549,o),
(304,593,o),
(375,593,cs),
(445,593,o),
(480,550,o),
(480,468,cs),
(480,358,o),
(423,146,o),
(273,117,c),
(248,0,l),
(544,0,l),
(570,121,l),
(413,121,l),
(301,76,l),
(518,85,o),
(630,296,o),
(630,479,cs),
(630,630,o),
(539,728,o),
(380,728,cs),
(228,728,o),
(133,643,o),
(96,467,cs),
(-4,0,l)
);
}
);
width = 643;
}
);
metricLeft = "te-canadian";
metricRight = "=|luCarrier-canadian";
note = uni1623;
unicode = 5667;
},
{
color = 9;
glyphname = "leCarrier-canadian";
lastChange = "2023-01-13 15:28:19 +0000";
layers = (
{
anchors = (
{
name = middle_center_can;
pos = (330,358);
}
);
layerId = "ABE41ABD-D787-4F86-A3B4-502CADE9F2A5";
shapes = (
{
closed = 1;
nodes = (
(219,0,ls),
(550,0,o),
(621,275,o),
(621,456,cs),
(621,618,o),
(547,728,o),
(429,728,cs),
(346,728,o),
(276,673,o),
(235,575,c),
(250,574,l),
(280,714,l),
(148,714,l),
(79,389,l),
(203,389,l),
(233,516,o),
(296,593,o),
(372,593,cs),
(437,593,o),
(473,536,o),
(473,440,cs),
(473,318,o),
(426,134,o),
(222,134,cs),
(24,134,l),
(-4,0,l)
);
}
);
width = 636;
}
);
metricRight = "theCarrier-canadian";
note = uni1624;
unicode = 5668;
},
{
color = 9;
glyphname = "laCarrier-canadian";
lastChange = "2023-01-13 15:31:51 +0000";
layers = (
{
layerId = "ABE41ABD-D787-4F86-A3B4-502CADE9F2A5";
shapes = (
{
closed = 1;
nodes = (
(534,0,l),
(563,134,l),
(381,134,ls),
(266,134,o),
(209,188,o),
(209,291,cs),
(209,387,o),
(256,593,o),
(390,593,cs),
(473,593,o),
(512,514,o),
(492,389,c),
(617,389,l),
(686,714,l),
(554,714,l),
(520,559,l),
(533,552,l),
(532,662,o),
(472,728,o),
(380,728,cs),
(160,728,o),
(61,451,o),
(61,280,cs),
(61,105,o),
(165,0,o),
(356,0,cs)
);
}
);
width = 637;
}
);
metricLeft = "=|theCarrier-canadian";
metricRight = "=|leCarrier-canadian";
note = uni1627;
unicode = 5671;
},
{
color = 1;
glyphname = "dluCarrier-canadian";
lastChange = "2023-01-13 15:28:19 +0000";
layers = (
{
layerId = "ABE41ABD-D787-4F86-A3B4-502CADE9F2A5";
shapes = (
{
closed = 1;
nodes = (
(537,-14,o),
(609,254,o),
(609,399,cs),
(609,530,o),
(545,610,o),
(420,639,c),
(454,603,l),
(650,603,l),
(632,522,l),
(739,522,l),
(796,794,l),
(690,794,l),
(673,714,l),
(400,714,l),
(374,596,l),
(440,577,o),
(471,524,o),
(471,436,cs),
(471,349,o),
(434,121,o),
(294,121,cs),
(215,121,o),
(183,182,o),
(206,292,cs),
(296,714,l),
(148,714,l),
(61,303,ls),
(18,104,o),
(104,-14,o),
(282,-14,cs)
);
}
);
width = 708;
}
);
metricLeft = "te-canadian";
note = uni1628;
unicode = 5672;
},
{
color = 9;
glyphname = "dloCarrier-canadian";
lastChange = "2023-01-13 15:28:19 +0000";
layers = (
{
layerId = "ABE41ABD-D787-4F86-A3B4-502CADE9F2A5";
shapes = (
{
closed = 1;
nodes = (
(611,-80,l),
(669,192,l),
(563,192,l),
(545,111,l),
(400,111,l),
(327,87,l),
(494,100,o),
(630,259,o),
(630,479,cs),
(630,630,o),
(539,728,o),
(380,728,cs),
(228,728,o),
(133,643,o),
(96,467,cs),
(-4,0,l),
(144,0,l),
(240,451,ls),
(261,549,o),
(304,593,o),
(375,593,cs),
(445,593,o),
(480,550,o),
(480,468,cs),
(480,358,o),
(423,146,o),
(273,117,c),
(248,0,l),
(522,0,l),
(505,-80,l)
);
}
);
width = 708;
}
);
metricLeft = "te-canadian";
metricRight = "dluCarrier-canadian";
note = uni1629;
unicode = 5673;
},
{
color = 9;
glyphname = "dleCarrier-canadian";
lastChange = "2023-01-13 15:31:51 +0000";
layers = (
{
anchors = (
{
name = middle_center_can;
pos = (347,358);
}
);
layerId = "ABE41ABD-D787-4F86-A3B4-502CADE9F2A5";
shapes = (
{
closed = 1;
nodes = (
(235,0,ls),
(566,0,o),
(638,275,o),
(638,456,cs),
(638,618,o),
(564,728,o),
(446,728,cs),
(358,728,o),
(266,663,o),
(223,547,c),
(233,547,l),
(269,721,l),
(339,721,l),
(361,824,l),
(120,824,l),
(98,721,l),
(166,721,l),
(95,389,l),
(220,389,l),
(249,516,o),
(313,593,o),
(388,593,cs),
(454,593,o),
(490,536,o),
(490,440,cs),
(490,318,o),
(442,134,o),
(238,134,cs),
(40,134,l),
(12,0,l)
);
}
);
width = 653;
}
);
metricRight = "theCarrier-canadian";
note = uni162A;
unicode = 5674;
},
{
color = 9;
glyphname = "dlaCarrier-canadian";
lastChange = "2023-01-13 15:31:51 +0000";
layers = (
{
layerId = "ABE41ABD-D787-4F86-A3B4-502CADE9F2A5";
shapes = (
{
closed = 1;
nodes = (
(534,0,l),
(563,134,l),
(381,134,ls),
(266,134,o),
(209,188,o),
(209,291,cs),
(209,387,o),
(256,593,o),
(390,593,cs),
(473,593,o),
(512,514,o),
(492,389,c),
(617,389,l),
(687,721,l),
(754,721,l),
(776,824,l),
(535,824,l),
(514,721,l),
(581,721,l),
(544,546,l),
(558,539,l),
(558,662,o),
(472,728,o),
(380,728,cs),
(160,728,o),
(61,451,o),
(61,280,cs),
(61,105,o),
(165,0,o),
(356,0,cs)
);
}
);
width = 654;
}
);
metricLeft = "=|theCarrier-canadian";
metricRight = "=|dleCarrier-canadian";
note = uni162D;
unicode = 5677;
},
{
color = 9;
glyphname = "lhuCarrier-canadian";
lastChange = "2023-01-13 15:28:19 +0000";
layers = (
{
layerId = "ABE41ABD-D787-4F86-A3B4-502CADE9F2A5";
shapes = (
{
closed = 1;
nodes = (
(532,-14,o),
(620,215,o),
(620,388,cs),
(620,515,o),
(566,610,o),
(474,639,c),
(525,592,l),
(681,592,l),
(707,714,l),
(472,714,l),
(446,597,l),
(473,573,o),
(487,528,o),
(487,471,cs),
(487,366,o),
(447,121,o),
(311,121,cs),
(245,121,o),
(210,165,o),
(210,249,cs),
(210,338,o),
(254,534,o),
(353,597,c),
(378.002,714,l),
(143,714,l),
(117,592,l),
(275,592,l),
(345,643,l),
(158,607,o),
(61,395,o),
(61,233,cs),
(61,83,o),
(149,-14,o),
(306,-14,cs)
);
}
);
width = 654;
}
);
metricLeft = "luCarrier-canadian";
metricRight = "=|";
note = uni162E;
unicode = 5678;
},
{
color = 9;
glyphname = "lhoCarrier-canadian";
lastChange = "2023-01-13 15:28:19 +0000";
layers = (
{
layerId = "ABE41ABD-D787-4F86-A3B4-502CADE9F2A5";
shapes = (
{
closed = 1;
nodes = (
(226.002,0,l),
(251,117,l),
(225,141,o),
(211,186,o),
(211,243,cs),
(211,348,o),
(251,593,o),
(386,593,cs),
(452,593,o),
(487,549,o),
(487,465,cs),
(487,376,o),
(444,180,o),
(345,117,c),
(320,0,l),
(555,0,l),
(581,122,l),
(423,122,l),
(352,71,l),
(540,107,o),
(637,319,o),
(637,481,cs),
(637,631,o),
(549,728,o),
(392,728,cs),
(165,728,o),
(78,499,o),
(78,326,cs),
(78,199,o),
(131,104,o),
(224,75,c),
(173,122,l),
(17,122,l),
(-9,0,l)
);
}
);
width = 654;
}
);
metricLeft = "luCarrier-canadian";
metricRight = "=|";
note = uni162F;
unicode = 5679;
},
{
color = 9;
glyphname = "lheCarrier-canadian";
lastChange = "2023-01-13 15:28:19 +0000";
layers = (
{
anchors = (
{
name = middle_center_can;
pos = (343,357);
}
);
layerId = "ABE41ABD-D787-4F86-A3B4-502CADE9F2A5";
shapes = (
{
closed = 1;
nodes = (
(542,-14,o),
(641,272,o),
(641,461,cs),
(641,624,o),
(567,728,o),
(443,728,cs),
(358,728,o),
(290,679,o),
(250,588,c),
(257,586,l),
(284,714,l),
(152,714,l),
(90,424,l),
(214,424,l),
(254,542,o),
(313,593,o),
(385,593,cs),
(457,593,o),
(496,542,o),
(496,451,cs),
(496,343,o),
(440,121,o),
(300,121,cs),
(223,121,o),
(182,183,o),
(186,290,c),
(61,290,l),
(0,0,l),
(132,0,l),
(164,157,l),
(153,157,l),
(156,52,o),
(222,-14,o),
(330,-14,cs)
);
}
);
width = 654;
}
);
metricLeft = "nunavuth-canadian";
metricRight = "theCarrier-canadian";
note = uni1630;
unicode = 5680;
},
{
color = 9;
glyphname = "lhaCarrier-canadian";
lastChange = "2023-01-13 15:31:51 +0000";
layers = (
{
layerId = "ABE41ABD-D787-4F86-A3B4-502CADE9F2A5";
shapes = (
{
closed = 1;
nodes = (
(339,-14,o),
(408,35,o),
(447,126,c),
(441,128,l),
(414,0,l),
(546,0,l),
(608,290,l),
(484,290,l),
(444,172,o),
(385,121,o),
(313,121,cs),
(241,121,o),
(202,172,o),
(202,263,cs),
(202,371,o),
(258,593,o),
(398,593,cs),
(474,593,o),
(516,531,o),
(512,424,c),
(636,424,l),
(698,714,l),
(566,714,l),
(533,557,l),
(545,557,l),
(542,662,o),
(476,728,o),
(375,728,cs),
(156,728,o),
(57,442,o),
(57,253,cs),
(57,90,o),
(131,-14,o),
(255,-14,cs)
);
}
);
width = 653;
}
);
metricLeft = "=|theCarrier-canadian";
metricRight = "nunavuth-canadian";
note = uni1633;
unicode = 5683;
},
{
color = 9;
glyphname = "tlhuCarrier-canadian";
lastChange = "2023-01-13 15:28:19 +0000";
layers = (
{
layerId = "ABE41ABD-D787-4F86-A3B4-502CADE9F2A5";
shapes = (
{
closed = 1;
nodes = (
(532,-14,o),
(620,215,o),
(620,388,cs),
(620,503,o),
(591,599,o),
(497,639,c),
(489,603,l),
(661,603,l),
(643,522,l),
(749,522,l),
(807,794,l),
(701,794,l),
(683,714,l),
(472,714,l),
(446,597,l),
(473,573,o),
(487,528,o),
(487,471,cs),
(487,366,o),
(447,121,o),
(311,121,cs),
(245,121,o),
(210,165,o),
(210,249,cs),
(210,338,o),
(254,534,o),
(353,597,c),
(378.002,714,l),
(143,714,l),
(117,592,l),
(297,592,l),
(290,623,l),
(132,562,o),
(61,371,o),
(61,233,cs),
(61,83,o),
(149,-14,o),
(306,-14,cs)
);
}
);
width = 714;
}
);
metricLeft = "lhuCarrier-canadian";
note = uni1634;
unicode = 5684;
},
{
color = 9;
glyphname = "tlhoCarrier-canadian";
lastChange = "2023-01-13 15:31:51 +0000";
layers = (
{
layerId = "ABE41ABD-D787-4F86-A3B4-502CADE9F2A5";
shapes = (
{
closed = 1;
nodes = (
(57,-80,l),
(75,0,l),
(287,0,l),
(312,117,l),
(285,141,o),
(272,186,o),
(272,243,cs),
(272,348,o),
(311,593,o),
(447,593,cs),
(513,593,o),
(548,549,o),
(548,465,cs),
(548,376,o),
(505,180,o),
(406,117,c),
(380,0,l),
(616,0,l),
(642,122,l),
(461,122,l),
(469,91,l),
(627,152,o),
(698,343,o),
(698,481,cs),
(698,631,o),
(609,728,o),
(452,728,cs),
(226,728,o),
(139,499,o),
(139,326,cs),
(139,211,o),
(167,115,o),
(261,75,c),
(270,111,l),
(98,111,l),
(115,192,l),
(9,192,l),
(-49,-80,l)
);
}
);
width = 715;
}
);
metricLeft = "=|tlhuCarrier-canadian";
metricRight = "lhuCarrier-canadian";
note = uni1635;
unicode = 5685;
},
{
color = 9;
glyphname = "tlheCarrier-canadian";
lastChange = "2023-01-13 15:31:51 +0000";
layers = (
{
anchors = (
{
name = middle_center_can;
pos = (354,357);
}
);
layerId = "ABE41ABD-D787-4F86-A3B4-502CADE9F2A5";
shapes = (
{
closed = 1;
nodes = (
(555,-14,o),
(655,272,o),
(655,461,cs),
(655,624,o),
(579,728,o),
(456,728,cs),
(339,728,o),
(258,650,o),
(214,525,c),
(242,579,l),
(272,721,l),
(339,721,l),
(360,824,l),
(120,824,l),
(98,721,l),
(166,721,l),
(102,424,l),
(227,424,l),
(266,542,o),
(325,593,o),
(397,593,cs),
(469,593,o),
(510,542,o),
(510,451,cs),
(510,343,o),
(453,121,o),
(313,121,cs),
(236,121,o),
(194,183,o),
(198,290,c),
(74,290,l),
(12,0,l),
(144,0,l),
(177,157,l),
(165,157,l),
(168,52,o),
(235,-14,o),
(342,-14,cs)
);
}
);
width = 668;
}
);
metricLeft = "dleCarrier-canadian";
metricRight = "theCarrier-canadian";
note = uni1636;
unicode = 5686;
},
{
color = 9;
glyphname = "tlhaCarrier-canadian";
lastChange = "2023-01-13 15:31:51 +0000";
layers = (
{
layerId = "ABE41ABD-D787-4F86-A3B4-502CADE9F2A5";
shapes = (
{
closed = 1;
nodes = (
(339,-14,o),
(409,35,o),
(449,126,c),
(442,128,l),
(416,0,l),
(548,0,l),
(610,290,l),
(485,290,l),
(445,172,o),
(386,121,o),
(313,121,cs),
(241,121,o),
(202,172,o),
(202,263,cs),
(202,371,o),
(258,593,o),
(398,593,cs),
(476,593,o),
(518,531,o),
(513,424,c),
(638,424,l),
(701,721,l),
(768,721,l),
(791,824,l),
(549,824,l),
(527,721,l),
(595,721,l),
(557,544,l),
(566,543,l),
(560,668,o),
(478,728,o),
(375,728,cs),
(156,728,o),
(57,442,o),
(57,253,cs),
(57,90,o),
(131,-14,o),
(255,-14,cs)
);
}
);
width = 669;
}
);
metricLeft = "=|theCarrier-canadian";
metricRight = "=|dleCarrier-canadian";
note = uni1639;
unicode = 5689;
},
{
color = 9;
glyphname = "tluCarrier-canadian";
lastChange = "2023-01-13 15:28:19 +0000";
layers = (
{
layerId = "ABE41ABD-D787-4F86-A3B4-502CADE9F2A5";
shapes = (
{
closed = 1;
nodes = (
(282,-14,o),
(337,24,o),
(381,107,c),
(334,108,l),
(350,28,o),
(400,-14,o),
(480,-14,cs),
(672,-14,o),
(730,264,o),
(730,407,cs),
(730,518,o),
(691,591,o),
(622,624,c),
(588,603,l),
(771,603,l),
(754,522,l),
(860,522,l),
(917,794,l),
(811,794,l),
(794,714,l),
(527,714,l),
(502,596,l),
(563,588,o),
(593,543,o),
(593,454,cs),
(593,380,o),
(558,119,o),
(477,119,cs),
(443,119,o),
(430,146,o),
(441,198,cs),
(466,319,l),
(327,319,l),
(302,198,ls),
(290,145,o),
(270,119,o),
(239,119,cs),
(209,119,o),
(195,138,o),
(195,185,cs),
(195,261,o),
(254,595,o),
(408,596,c),
(433,714,l),
(144,714,l),
(118,592,l),
(300,592,l),
(276,617,l),
(104,542,o),
(51,312,o),
(51,177,cs),
(51,53,o),
(108,-14,o),
(207,-14,cs)
);
}
);
width = 825;
}
);
metricRight = "tlhuCarrier-canadian";
note = uni163A;
unicode = 5690;
},
{
color = 1;
glyphname = "tloCarrier-canadian";
lastChange = "2023-01-13 15:28:19 +0000";
layers = (
{
layerId = "ABE41ABD-D787-4F86-A3B4-502CADE9F2A5";
shapes = (
{
closed = 1;
nodes = (
(732,-80,l),
(790,192,l),
(684,192,l),
(666,111,l),
(494,111,l),
(514,89,l),
(701,159,o),
(758,396,o),
(758,537,cs),
(758,661,o),
(701,728,o),
(602,728,cs),
(527,728,o),
(471,690,o),
(428,607,c),
(475,606,l),
(459,686,o),
(409,728,o),
(329,728,cs),
(137,728,o),
(79,450,o),
(79,307,cs),
(79,204,o),
(113,134,o),
(173,98,c),
(211,122,l),
(18,122,l),
(-8,0,l),
(282,0,l),
(307,118,l),
(246,126,o),
(216,171,o),
(216,260,cs),
(216,334,o),
(251,595,o),
(332,595,cs),
(366,595,o),
(379,568,o),
(368,516,cs),
(343,395,l),
(482,395,l),
(507,516,ls),
(519,569,o),
(539,595,o),
(570,595,cs),
(600,595,o),
(614,576,o),
(614,529,cs),
(614,453,o),
(556,119,o),
(401,118,c),
(376,0,l),
(643,0,l),
(626,-80,l)
);
}
);
width = 825;
}
);
metricLeft = "tluCarrier-canadian";
metricRight = "tlhuCarrier-canadian";
note = uni163B;
unicode = 5691;
},
{
color = 9;
glyphname = "tleCarrier-canadian";
lastChange = "2023-01-13 15:28:19 +0000";
layers = (
{
anchors = (
{
name = middle_center_can;
pos = (302,357);
}
);
layerId = "ABE41ABD-D787-4F86-A3B4-502CADE9F2A5";
shapes = (
{
closed = 1;
nodes = (
(488,-14,o),
(595,83,o),
(595,226,cs),
(595,303,o),
(556,364,o),
(493,372,c),
(487,342,l),
(593,353,o),
(665,452,o),
(665,554,cs),
(665,655,o),
(591,728,o),
(474,728,cs),
(371,728,o),
(281,672,o),
(231,570,c),
(240,569,l),
(272,721,l),
(339,721,l),
(361,824,l),
(120,824,l),
(98,721,l),
(165,721,l),
(103,424,l),
(224,424,l),
(253,537,o),
(320,597,o),
(413,597,cs),
(477,597,o),
(514,565,o),
(514,516,cs),
(514,462,o),
(479,417,o),
(417,417,cs),
(393,417,l),
(368,298,l),
(391,298,ls),
(428,298,o),
(454,275,o),
(454,234,cs),
(454,167,o),
(411,117,o),
(330,117,cs),
(229,117,o),
(180,178,o),
(195,290,c),
(74,290,l),
(13,0,l),
(145,0,l),
(177,151,l),
(154,150,l),
(156,49,o),
(236,-14,o),
(351,-14,cs)
);
}
);
width = 657;
}
);
metricLeft = "dleCarrier-canadian";
metricRight = "geCarrier-canadian";
note = uni163C;
unicode = 5692;
},
{
color = 9;
glyphname = "tlaCarrier-canadian";
lastChange = "2023-01-13 15:31:51 +0000";
layers = (
{
layerId = "ABE41ABD-D787-4F86-A3B4-502CADE9F2A5";
shapes = (
{
closed = 1;
nodes = (
(318,-14,o),
(400,30,o),
(452,111,c),
(435,140,l),
(406,0,l),
(537,0,l),
(599,290,l),
(478,290,l),
(449,177,o),
(382,117,o),
(288,117,cs),
(224,117,o),
(187,149,o),
(187,198,cs),
(187,252,o),
(222,297,o),
(283,297,cs),
(307,297,l),
(333,416,l),
(309,416,ls),
(272,416,o),
(246,439,o),
(246,480,cs),
(246,547,o),
(290,597,o),
(372,597,cs),
(472,597,o),
(521,536,o),
(506,424,c),
(628,424,l),
(691,721,l),
(758,721,l),
(780,824,l),
(539,824,l),
(516,721,l),
(584,721,l),
(542,518,l),
(556,537,l),
(566,654,o),
(483,728,o),
(349,728,cs),
(212,728,o),
(106,631,o),
(106,488,cs),
(106,414,o),
(142,356,o),
(198,342,c),
(207,371,l),
(105,358,o),
(35,260,o),
(35,160,cs),
(35,59,o),
(110,-14,o),
(227,-14,cs)
);
}
);
width = 658;
}
);
metricLeft = "=|geCarrier-canadian";
metricRight = "=|dleCarrier-canadian";
note = uni163F;
unicode = 5695;
},
{
color = 9;
glyphname = "zuCarrier-canadian";
lastChange = "2023-01-13 15:28:19 +0000";
layers = (
{
layerId = "ABE41ABD-D787-4F86-A3B4-502CADE9F2A5";
shapes = (
{
closed = 1;
nodes = (
(502,-14,o),
(602,119,o),
(602,313,cs),
(602,370,o),
(593,435,o),
(593,506,cs),
(593,558,o),
(611,588,o),
(662,588,cs),
(682,588,l),
(708,714,l),
(648,714,ls),
(514,714,o),
(455,645,o),
(455,500,cs),
(455,441,o),
(463,387,o),
(463,308,cs),
(463,200,o),
(410,121,o),
(309,121,cs),
(238,121,o),
(197,158,o),
(197,218,cs),
(197,319,o),
(330,480,o),
(330,595,cs),
(330,669,o),
(278,714,o),
(191,714,cs),
(142,714,l),
(115,588,l),
(145,588,ls),
(174,588,o),
(186,576,o),
(186,554,cs),
(186,491,o),
(47,344,o),
(47,191,cs),
(47,69,o),
(144,-14,o),
(296,-14,cs)
);
}
);
width = 655;
}
);
metricRight = "=|";
note = uni1640;
unicode = 5696;
},
